<svg width="166" height="59" viewBox="0 0 166 59" fill="none" xmlns="http://www.w3.org/2000/svg">
<rect width="166" height="59" rx="10" fill="#3C87BD"/>
<path d="M45.769 32.0585V40.1842H42.8421V32.0585H34V29.5818H49.2077C49.2691 29.2953 49.3509 28.845 49.4737 28.2719C49.5761 27.6988 49.6784 27.1052 49.7808 26.5117C49.0849 26.614 48.3071 26.6754 47.4474 26.7368C46.5878 26.7777 45.7486 26.8187 44.9708 26.8596C44.2954 26.9005 43.4766 26.921 42.5147 26.9415C41.5527 26.9415 40.6111 26.962 39.6901 26.962C38.7895 26.962 38.0117 26.9824 37.3363 26.962C36.6608 26.962 36.2924 26.962 36.231 26.962V24.5467C36.231 24.5467 36.6813 24.5467 37.4181 24.5467C38.155 24.5467 38.9737 24.5467 39.9152 24.5467C40.8568 24.5467 41.7983 24.5467 42.7603 24.5263C43.7223 24.5263 44.4796 24.4853 45.0527 24.4444C45.9123 24.4035 46.7924 24.3625 47.734 24.3011C48.6755 24.2397 49.4737 24.1579 50.1696 24.0555C50.1696 23.8508 50.2106 23.6666 50.2311 23.4824C50.2515 23.2982 50.272 23.1345 50.2925 22.9707C50.2925 22.807 50.3129 22.6432 50.3334 22.4999C50.3334 22.3362 50.3334 22.1929 50.3743 22.0292H36.4766V19.5935H53.4445C53.4036 20.4941 53.3217 21.3537 53.2398 22.1929C53.158 23.0321 53.0352 23.9532 52.9123 24.9356C52.8509 25.4269 52.7691 25.8976 52.6872 26.3684C52.6053 26.8187 52.5235 27.269 52.4416 27.6783C52.3597 28.0877 52.2778 28.4561 52.2164 28.7836C52.1346 29.1111 52.0936 29.3772 52.0527 29.6023H55.6141V32.0789H45.769V32.0585Z" fill="white"/>
<path d="M56.5967 32.6725V30.1959H65.9096V28.0877H58.5616V25.6111H61.8365L61.6113 21.5789H59.0528V19.1023H75.7546V21.5789H73.1962L72.971 25.6111H76.2459V28.0877H68.8979V30.1959H78.2108V32.6725H56.5967ZM59.2984 39.693V33.962H62.3482V37.1959H76.2254V39.6725H59.2984V39.693ZM64.4564 21.5789L64.6815 25.6111H70.126L70.3511 21.5789H64.4564Z" fill="white"/>
<path d="M87.7891 30.5439V28.1083H109.403V30.5439H87.7891ZM105.044 39.2837C103.549 40.1024 101.4 40.5323 98.5961 40.5323C95.792 40.5323 93.6429 40.1229 92.1487 39.2837C90.6546 38.465 89.8973 37.4007 89.8973 36.1317C89.8973 34.8627 90.6546 33.8597 92.1487 33.0206C93.6429 32.2018 95.792 31.772 98.5961 31.772C101.4 31.772 103.549 32.1814 105.044 33.0206C106.538 33.8597 107.295 34.9036 107.295 36.1317C107.295 37.3597 106.538 38.4445 105.044 39.2633V39.2837ZM90.4908 26.5732V19.2047H106.701V21.6404H93.3359V24.1375H106.947V26.5732H90.4908ZM102.526 34.658C101.543 34.2896 100.234 34.0849 98.5961 34.0849C96.9587 34.0849 95.6078 34.2691 94.6253 34.617C93.6429 34.9855 93.1721 35.4767 93.1721 36.1112C93.1721 36.7457 93.6634 37.2574 94.6253 37.6258C95.6078 37.9943 96.9177 38.1989 98.5961 38.1989C100.274 38.1989 101.543 38.0147 102.526 37.6668C103.508 37.2983 104 36.8071 104 36.1726C104 35.5381 103.508 35.0264 102.526 34.658Z" fill="white"/>
<path d="M122.646 30.2164H132V32.693H110.386V30.2164H119.514V28.6404H113.088V22.7047H126.064V21.3333H113.088V19H129.073V24.9766H116.055V26.3275H129.585V28.6609H122.626V30.2369L122.646 30.2164ZM129.319 34.1053V40.2048H126.494V36.5205H112.842V34.1053H129.319Z" fill="white"/>
</svg>
