<svg width="670" height="208" viewBox="0 0 670 208" fill="none" xmlns="http://www.w3.org/2000/svg">
<g filter="url(#filter0_di_363_58)">
<path fill-rule="evenodd" clip-rule="evenodd" d="M405.001 19.3549C423.769 19.3549 438.984 10.6895 438.984 0.00010191L438.984 -8.71612e-06L647.538 -1.28951e-05C657.48 -1.30943e-05 665.538 8.05886 665.538 18L665.538 182C665.538 191.941 657.48 200 647.538 200L438.984 200C438.983 189.311 423.769 180.645 405.001 180.645C386.232 180.645 371.018 189.311 371.017 200L22 200C12.3287 200 4.43888 192.372 4.01768 182.805C4.38676 182.816 4.75862 182.822 5.13298 182.822C15.7684 182.822 24.3901 178.153 24.3901 172.393C24.3901 166.633 15.7684 161.963 5.13298 161.963C4.75264 161.963 4.37488 161.969 3.99999 161.981L3.99999 158.264C4.37488 158.276 4.75264 158.282 5.13298 158.282C15.7684 158.282 24.3901 153.613 24.3901 147.853C24.3901 142.093 15.7684 137.423 5.13298 137.423C4.75264 137.423 4.37488 137.429 3.99999 137.441L4 133.725C4.37488 133.737 4.75264 133.742 5.13298 133.742C15.7684 133.742 24.3901 129.073 24.3901 123.313C24.3901 117.553 15.7684 112.884 5.13298 112.884C4.75264 112.884 4.37488 112.89 4 112.901L4 109.185C4.37488 109.197 4.75264 109.202 5.13298 109.202C15.7684 109.202 24.3901 104.533 24.3901 98.7731C24.3901 93.013 15.7684 88.3436 5.13298 88.3436C4.75264 88.3436 4.37488 88.3496 4 88.3614L4 84.6449C4.37488 84.6566 4.75264 84.6626 5.13298 84.6626C15.7684 84.6626 24.3901 79.9932 24.3901 74.2332C24.3901 68.4731 15.7684 63.8037 5.13298 63.8037C4.75264 63.8037 4.37488 63.8097 4 63.8215L4 60.1051C4.37488 60.1168 4.75264 60.1228 5.13298 60.1228C15.7684 60.1228 24.3901 55.4534 24.3901 49.6934C24.3901 43.9334 15.7684 39.2639 5.13298 39.2639C4.75265 39.2639 4.37488 39.2699 4 39.2817L4 35.5654C4.37488 35.5772 4.75264 35.5831 5.13298 35.5831C15.7684 35.5831 24.3901 30.9137 24.3901 25.1537C24.3901 19.3937 15.7684 14.7242 5.13298 14.7242C4.8524 14.7242 4.57323 14.7275 4.29557 14.7339C5.83192 6.35206 13.1742 -1.8383e-07 22 -3.6068e-07L371.018 -7.35423e-06L371.018 0.000103272C371.018 10.6895 386.233 19.3549 405.001 19.3549Z" fill="white"/>
</g>
<defs>
<filter id="filter0_di_363_58" x="0" y="0" width="669.539" height="208" filterUnits="userSpaceOnUse" color-interpolation-filters="sRGB">
<feFlood flood-opacity="0" result="BackgroundImageFix"/>
<feColorMatrix in="SourceAlpha" type="matrix" values="0 0 0 0 0 0 0 0 0 0 0 0 0 0 0 0 0 0 127 0" result="hardAlpha"/>
<feOffset dy="4"/>
<feGaussianBlur stdDeviation="2"/>
<feComposite in2="hardAlpha" operator="out"/>
<feColorMatrix type="matrix" values="0 0 0 0 0 0 0 0 0 0 0 0 0 0 0 0 0 0 0.25 0"/>
<feBlend mode="normal" in2="BackgroundImageFix" result="effect1_dropShadow_363_58"/>
<feBlend mode="normal" in="SourceGraphic" in2="effect1_dropShadow_363_58" result="shape"/>
<feColorMatrix in="SourceAlpha" type="matrix" values="0 0 0 0 0 0 0 0 0 0 0 0 0 0 0 0 0 0 127 0" result="hardAlpha"/>
<feOffset dy="4"/>
<feGaussianBlur stdDeviation="2"/>
<feComposite in2="hardAlpha" operator="arithmetic" k2="-1" k3="1"/>
<feColorMatrix type="matrix" values="0 0 0 0 0 0 0 0 0 0 0 0 0 0 0 0 0 0 0.25 0"/>
<feBlend mode="normal" in2="shape" result="effect2_innerShadow_363_58"/>
</filter>
</defs>
</svg>
