<svg width="720" height="303" viewBox="0 0 720 303" fill="none" xmlns="http://www.w3.org/2000/svg">
<g filter="url(#filter0_i_696_5)">
<g filter="url(#filter1_d_696_5)">
<path fill-rule="evenodd" clip-rule="evenodd" d="M434.997 28.5365C455.169 28.5365 471.522 15.7603 471.522 0.00021229L471.522 -5.15344e-06L697.023 -7.63911e-06C706.965 -7.74869e-06 715.023 8.05887 715.023 18L715.023 276.875C715.023 286.816 706.965 294.875 697.023 294.875L471.522 294.875C471.522 279.115 455.169 266.339 434.997 266.339C414.825 266.339 398.472 279.115 398.472 294.875L22 294.875C12.0589 294.875 4 286.816 4 276.875L4 269.522C4.40301 269.54 4.80913 269.548 5.21801 269.548C16.649 269.548 25.9156 262.664 25.9156 254.171C25.9156 245.679 16.649 238.795 5.21801 238.795C4.80913 238.795 4.40302 238.803 4 238.821L4 233.341C4.40302 233.358 4.80913 233.367 5.21801 233.367C16.649 233.367 25.9156 226.483 25.9156 217.99C25.9156 209.498 16.649 202.613 5.21801 202.613C4.80913 202.613 4.40302 202.622 4 202.64L4 197.16C4.40302 197.178 4.80913 197.187 5.21801 197.187C16.649 197.187 25.9156 190.302 25.9156 181.81C25.9156 173.317 16.649 166.433 5.21801 166.433C4.80913 166.433 4.40302 166.442 4 166.459L4 160.98C4.40302 160.997 4.80913 161.006 5.21801 161.006C16.649 161.006 25.9156 154.121 25.9156 145.629C25.9156 137.136 16.649 130.252 5.21801 130.252C4.80913 130.252 4.40302 130.261 4 130.278L4 124.798C4.40302 124.815 4.80913 124.824 5.21801 124.824C16.649 124.824 25.9156 117.94 25.9156 109.447C25.9156 100.955 16.649 94.0705 5.21801 94.0705C4.80913 94.0705 4.40302 94.0793 4 94.0967L4 88.6172C4.40302 88.6346 4.80913 88.6434 5.21801 88.6434C16.649 88.6434 25.9156 81.7589 25.9156 73.2665C25.9156 64.7741 16.649 57.8896 5.21801 57.8896C4.80913 57.8896 4.40302 57.8984 4 57.9158L4 52.4367C4.40302 52.454 4.80913 52.4628 5.21801 52.4628C16.649 52.4628 25.9156 45.5784 25.9156 37.0859C25.9156 28.5935 16.649 21.7091 5.21801 21.7091C4.80913 21.7091 4.40302 21.7179 4 21.7352L4 18C4 8.05884 12.0589 -8.88319e-08 22 -1.98412e-07L398.472 -4.34821e-06L398.472 0.00021309C398.472 15.7603 414.825 28.5365 434.997 28.5365Z" fill="white"/>
</g>
</g>
<defs>
<filter id="filter0_i_696_5" x="4" y="0" width="711.023" height="298.875" filterUnits="userSpaceOnUse" color-interpolation-filters="sRGB">
<feFlood flood-opacity="0" result="BackgroundImageFix"/>
<feBlend mode="normal" in="SourceGraphic" in2="BackgroundImageFix" result="shape"/>
<feColorMatrix in="SourceAlpha" type="matrix" values="0 0 0 0 0 0 0 0 0 0 0 0 0 0 0 0 0 0 127 0" result="hardAlpha"/>
<feOffset dy="4"/>
<feGaussianBlur stdDeviation="2"/>
<feComposite in2="hardAlpha" operator="arithmetic" k2="-1" k3="1"/>
<feColorMatrix type="matrix" values="0 0 0 0 0 0 0 0 0 0 0 0 0 0 0 0 0 0 0.25 0"/>
<feBlend mode="normal" in2="shape" result="effect1_innerShadow_696_5"/>
</filter>
<filter id="filter1_d_696_5" x="0" y="0" width="719.023" height="302.875" filterUnits="userSpaceOnUse" color-interpolation-filters="sRGB">
<feFlood flood-opacity="0" result="BackgroundImageFix"/>
<feColorMatrix in="SourceAlpha" type="matrix" values="0 0 0 0 0 0 0 0 0 0 0 0 0 0 0 0 0 0 127 0" result="hardAlpha"/>
<feOffset dy="4"/>
<feGaussianBlur stdDeviation="2"/>
<feComposite in2="hardAlpha" operator="out"/>
<feColorMatrix type="matrix" values="0 0 0 0 0 0 0 0 0 0 0 0 0 0 0 0 0 0 0.25 0"/>
<feBlend mode="normal" in2="BackgroundImageFix" result="effect1_dropShadow_696_5"/>
<feBlend mode="normal" in="SourceGraphic" in2="effect1_dropShadow_696_5" result="shape"/>
</filter>
</defs>
</svg>
