<svg width="1366" height="834" viewBox="0 0 1366 834" fill="none" xmlns="http://www.w3.org/2000/svg">
<path d="M0 834V0H1366V776V790L1331.95 812L1313.92 754L1283.88 738L1233.81 812L1149.68 790L1133.66 834L1099.61 800L1055.55 822L787.152 776L719.053 812L680.997 776L642.941 822L460.674 790L432.633 776L408.598 790V776L390.572 812L298.437 776L222.326 812L120.176 776L98.1437 738L0 834Z" fill="#EFF9FF"/>
<path d="M194.494 2H1365V636.533C338.45 850.825 156.934 302.799 194.494 2Z" fill="#B1E2FF"/>
<path fill-rule="evenodd" clip-rule="evenodd" d="M0 650.217C48.7744 677.828 106.882 693.854 169.26 693.854C341.819 693.854 481.705 571.213 481.705 419.927C481.705 268.641 341.819 146 169.26 146C106.882 146 48.7744 162.026 0 189.637V650.217Z" fill="#FFEFB5"/>
</svg>
