<svg width="157" height="28" viewBox="0 0 157 28" fill="none" xmlns="http://www.w3.org/2000/svg">
<path d="M0 4.06C0 3.63 0.22 3.42 0.67 3.42H5.47V0.67C5.47 0.22 5.69 0 6.14 0H10.56C11.01 0 11.23 0.22 11.23 0.67V3.42H16.03C16.48 3.42 16.7 3.63 16.7 4.06V7.52C16.7 7.95 16.48 8.16 16.03 8.16H0.67C0.22 8.16 0 7.95 0 7.52V4.06ZM16.06 19.26C16.06 20.67 15.87 21.87 15.5 22.86C15.13 23.85 14.6 24.66 13.92 25.28C13.24 25.9 12.42 26.35 11.47 26.64C10.52 26.93 9.47 27.07 8.32 27.07C7.17 27.07 6.12 26.93 5.18 26.64C4.24 26.35 3.44 25.9 2.76 25.28C2.09 24.66 1.56 23.86 1.19 22.86C0.82 21.86 0.63 20.67 0.63 19.26V16.99C0.63 15.58 0.82 14.38 1.19 13.39C1.56 12.4 2.09 11.59 2.77 10.97C3.45 10.35 4.27 9.9 5.22 9.61C6.17 9.32 7.22 9.18 8.37 9.18C9.52 9.18 10.57 9.32 11.51 9.61C12.45 9.9 13.25 10.35 13.93 10.97C14.6 11.59 15.12 12.39 15.5 13.39C15.87 14.38 16.06 15.58 16.06 16.99V19.26ZM10.43 16.99C10.43 16.03 10.28 15.28 9.98 14.73C9.68 14.18 9.15 13.91 8.38 13.91C7.61 13.91 7.04 14.18 6.73 14.73C6.42 15.28 6.27 16.03 6.27 16.99V19.26C6.27 20.22 6.42 20.97 6.72 21.52C7.02 22.06 7.55 22.34 8.32 22.34C9.09 22.34 9.66 22.07 9.97 21.52C10.28 20.98 10.43 20.22 10.43 19.26V16.99ZM19.26 27.23C18.81 27.23 18.59 27.02 18.59 26.59V1.79C18.59 1.34 18.81 1.12 19.26 1.12H23.84C24.29 1.12 24.51 1.34 24.51 1.79V10.62H26.17C26.6 10.62 26.81 10.84 26.81 11.29V15.55C26.81 15.98 26.6 16.19 26.17 16.19H24.51V26.59C24.51 27.02 24.29 27.23 23.84 27.23H19.26Z" fill="#3C87BD"/>
<path d="M28.8998 6.50012C28.4698 6.50012 28.2598 6.29012 28.2598 5.86012V2.44012C28.2598 1.99012 28.4698 1.77012 28.8998 1.77012H43.9398C44.3898 1.77012 44.6098 1.98012 44.6098 2.41012V26.1201C44.6098 26.5501 44.3898 26.7601 43.9398 26.7601H29.2498C28.7998 26.7601 28.5798 26.5501 28.5798 26.1201V8.10012C28.5798 7.67012 28.7998 7.46012 29.2498 7.46012H33.7898C34.2398 7.46012 34.4598 7.67012 34.4598 8.10012V22.0201H38.7198V6.50012H28.8998ZM47.5198 27.2401C47.0698 27.2401 46.8498 27.0301 46.8498 26.6001V1.79012C46.8498 1.34012 47.0698 1.12012 47.5198 1.12012H52.0998C52.5498 1.12012 52.7698 1.34012 52.7698 1.79012V10.6201H54.4298C54.8598 10.6201 55.0698 10.8401 55.0698 11.2901V15.5501C55.0698 15.9801 54.8598 16.1901 54.4298 16.1901H52.7698V26.5901C52.7698 27.0201 52.5498 27.2301 52.0998 27.2301H47.5198V27.2401Z" fill="#3C87BD"/>
<path d="M56.5098 4.06C56.5098 3.63 56.7298 3.42 57.1798 3.42H61.9798V0.67C61.9798 0.22 62.1998 0 62.6498 0H67.0698C67.5198 0 67.7398 0.22 67.7398 0.67V3.42H72.5398C72.9898 3.42 73.2098 3.63 73.2098 4.06V7.52C73.2098 7.95 72.9898 8.16 72.5398 8.16H57.1798C56.7298 8.16 56.5098 7.95 56.5098 7.52V4.06ZM72.5698 19.26C72.5698 20.67 72.3798 21.87 72.0098 22.86C71.6398 23.85 71.1098 24.66 70.4298 25.28C69.7498 25.9 68.9298 26.35 67.9798 26.64C67.0298 26.93 65.9798 27.07 64.8298 27.07C63.6798 27.07 62.6298 26.93 61.6898 26.64C60.7498 26.35 59.9498 25.9 59.2698 25.28C58.5998 24.66 58.0698 23.86 57.6998 22.86C57.3298 21.86 57.1398 20.67 57.1398 19.26V16.99C57.1398 15.58 57.3298 14.38 57.6998 13.39C58.0698 12.4 58.5998 11.59 59.2798 10.97C59.9598 10.35 60.7798 9.9 61.7298 9.61C62.6798 9.32 63.7298 9.18 64.8798 9.18C66.0298 9.18 67.0798 9.32 68.0198 9.61C68.9598 9.9 69.7598 10.35 70.4398 10.97C71.1098 11.59 71.6298 12.39 72.0098 13.39C72.3798 14.38 72.5698 15.58 72.5698 16.99V19.26ZM66.9398 16.99C66.9398 16.03 66.7898 15.28 66.4898 14.73C66.1898 14.18 65.6598 13.91 64.8898 13.91C64.1198 13.91 63.5498 14.18 63.2398 14.73C62.9298 15.28 62.7798 16.03 62.7798 16.99V19.26C62.7798 20.22 62.9298 20.97 63.2298 21.52C63.5298 22.06 64.0598 22.34 64.8298 22.34C65.5998 22.34 66.1698 22.07 66.4798 21.52C66.7898 20.98 66.9398 20.22 66.9398 19.26V16.99ZM75.7698 27.23C75.3198 27.23 75.0998 27.02 75.0998 26.59V1.79C75.0998 1.34 75.3198 1.12 75.7698 1.12H80.3498C80.7998 1.12 81.0198 1.34 81.0198 1.79V10.62H82.6798C83.1098 10.62 83.3198 10.84 83.3198 11.29V15.55C83.3198 15.98 83.1098 16.19 82.6798 16.19H81.0198V26.59C81.0198 27.02 80.7998 27.23 80.3498 27.23H75.7698Z" fill="#3C87BD"/>
<path d="M85.41 6.50012C84.98 6.50012 84.77 6.29012 84.77 5.86012V2.44012C84.77 1.99012 84.98 1.77012 85.41 1.77012H100.45C100.9 1.77012 101.12 1.98012 101.12 2.41012V26.1201C101.12 26.5501 100.9 26.7601 100.45 26.7601H85.76C85.31 26.7601 85.09 26.5501 85.09 26.1201V8.10012C85.09 7.67012 85.31 7.46012 85.76 7.46012H90.3C90.75 7.46012 90.97 7.67012 90.97 8.10012V22.0201H95.23V6.50012H85.41ZM104.03 27.2401C103.58 27.2401 103.36 27.0301 103.36 26.6001V1.79012C103.36 1.34012 103.58 1.12012 104.03 1.12012H108.61C109.06 1.12012 109.28 1.34012 109.28 1.79012V10.6201H110.94C111.37 10.6201 111.58 10.8401 111.58 11.2901V15.5501C111.58 15.9801 111.37 16.1901 110.94 16.1901H109.28V26.5901C109.28 27.0201 109.06 27.2301 108.61 27.2301H104.03V27.2401Z" fill="#3C87BD"/>
<path d="M120.3 17.5898C120.03 17.2998 119.9 17.1498 119.65 16.8398C121.26 15.7298 122.07 15.1798 123.69 14.0698C123.89 14.2598 123.99 14.3498 124.19 14.5198C122.64 15.7498 121.86 16.3598 120.31 17.5898H120.3Z" fill="#3C87BD"/>
<path d="M117.34 13.4699C117.14 13.0999 117.04 12.9199 116.85 12.5399C118.69 12.0799 119.6 11.8499 121.44 11.3899C121.6 11.6299 121.68 11.7499 121.85 11.9799C120.05 12.5799 119.14 12.8699 117.34 13.4699Z" fill="#3C87BD"/>
<path d="M125.73 21.9099C125 21.4999 124.64 21.2799 123.95 20.7999C125.11 19.0399 125.7 18.1599 126.86 16.4099C127.36 16.6799 127.61 16.8099 128.12 17.0299C127.16 18.9899 126.69 19.9699 125.73 21.9199V21.9099Z" fill="#3C87BD"/>
<path d="M119.27 16.3698C119.17 16.2398 119.12 16.1798 119.02 16.0498C120.69 15.0598 121.53 14.5698 123.2 13.5798C123.28 13.6598 123.31 13.6998 123.39 13.7798C121.74 14.8198 120.92 15.3298 119.27 16.3698Z" fill="#3C87BD"/>
<path d="M118.66 15.5599C118.61 15.4899 118.59 15.4599 118.54 15.3899C120.25 14.4999 121.11 14.0599 122.82 13.1799C122.86 13.2199 122.88 13.2399 122.91 13.2799C121.21 14.1899 120.36 14.6499 118.66 15.5599Z" fill="#3C87BD"/>
<path d="M121.26 18.5798C121.2 18.5298 121.18 18.4998 121.12 18.4398C122.59 17.0798 123.33 16.3898 124.8 15.0298C124.84 15.0598 124.86 15.0798 124.9 15.1098C123.44 16.4998 122.71 17.1898 121.26 18.5798Z" fill="#3C87BD"/>
<path d="M120.84 18.17C120.73 18.06 120.68 18 120.57 17.89C122.1 16.62 122.86 15.98 124.39 14.71C124.47 14.78 124.51 14.81 124.6 14.88C123.1 16.2 122.35 16.86 120.85 18.18L120.84 18.17Z" fill="#3C87BD"/>
<path d="M118.32 15.06C118.23 14.92 118.18 14.86 118.09 14.72C119.84 13.94 120.71 13.55 122.46 12.76C122.53 12.85 122.57 12.89 122.64 12.97C120.91 13.8 120.04 14.22 118.31 15.06H118.32Z" fill="#3C87BD"/>
<path d="M126.23 22.1799C126.36 22.2499 126.43 22.2899 126.57 22.3499C127.42 20.3099 127.85 19.2899 128.71 17.2499C128.62 17.2099 128.57 17.1999 128.47 17.1599C127.57 19.1699 127.13 20.1699 126.23 22.1799Z" fill="#3C87BD"/>
<path d="M127.6 22.84C127.74 22.9 127.81 22.93 127.95 22.99C128.63 20.83 128.98 19.74 129.66 17.58C129.56 17.55 129.52 17.54 129.42 17.5C128.69 19.63 128.33 20.7 127.6 22.83V22.84Z" fill="#3C87BD"/>
<path d="M128.3 23.1399C128.44 23.1999 128.51 23.2199 128.65 23.2799C129.25 21.0599 129.54 19.9499 130.14 17.7299C130.04 17.6999 129.99 17.6899 129.9 17.6599C129.26 19.8499 128.94 20.9499 128.3 23.1399Z" fill="#3C87BD"/>
<path d="M130.45 23.87C130.6 23.91 130.67 23.93 130.81 23.97C131.13 21.6 131.29 20.41 131.6 18.04C131.5 18.02 131.45 18.02 131.35 18C130.98 20.35 130.8 21.53 130.44 23.88L130.45 23.87Z" fill="#3C87BD"/>
<path d="M131.36 24.1198C131.43 24.1398 131.47 24.1498 131.54 24.1598C131.76 21.7398 131.87 20.5298 132.09 18.1098C132.04 18.1098 132.02 18.1098 131.97 18.0898C131.72 20.4998 131.6 21.6998 131.36 24.1098V24.1198Z" fill="#3C87BD"/>
<path d="M131.91 24.2399C132.06 24.2699 132.13 24.2899 132.28 24.3199C132.4 21.8599 132.46 20.6299 132.59 18.1699C132.49 18.1699 132.44 18.1499 132.34 18.1399C132.17 20.5799 132.08 21.7999 131.91 24.2399Z" fill="#3C87BD"/>
<path d="M132.66 24.3899C132.81 24.42 132.88 24.4299 133.03 24.4599C133.05 21.9599 133.06 20.7099 133.08 18.2199C132.98 18.2199 132.93 18.21 132.83 18.2C132.76 20.68 132.72 21.92 132.65 24.4L132.66 24.3899Z" fill="#3C87BD"/>
<path d="M135.66 24.74C135.51 24.74 135.43 24.73 135.28 24.72C134.99 22.13 134.85 20.83 134.56 18.24C134.66 18.24 134.71 18.24 134.81 18.24C135.15 20.84 135.32 22.15 135.66 24.75V24.74Z" fill="#3C87BD"/>
<path d="M134.72 24.67C134.64 24.67 134.61 24.66 134.53 24.65C134.35 22.09 134.25 20.8 134.07 18.24C134.12 18.24 134.14 18.24 134.19 18.24C134.4 20.81 134.5 22.1 134.71 24.67H134.72Z" fill="#3C87BD"/>
<path d="M133.4 24.52C133.25 24.5 133.18 24.49 133.03 24.46C133.05 21.96 133.06 20.71 133.08 18.22C133.18 18.22 133.23 18.22 133.33 18.23C133.36 20.75 133.37 22 133.4 24.52Z" fill="#3C87BD"/>
<path d="M123.48 20.4598C123.36 20.3698 123.29 20.3198 123.17 20.2298C124.42 18.5698 125.05 17.7398 126.3 16.0798C126.39 16.1298 126.43 16.1598 126.52 16.2098C125.3 17.9098 124.69 18.7598 123.48 20.4598Z" fill="#3C87BD"/>
<path d="M122.71 19.8698C122.65 19.8198 122.62 19.7998 122.56 19.7498C123.88 18.1698 124.54 17.3798 125.86 15.7998C125.9 15.8298 125.93 15.8398 125.97 15.8698C124.67 17.4698 124.02 18.2698 122.71 19.8698Z" fill="#3C87BD"/>
<path d="M122.27 19.5C122.15 19.4 122.09 19.35 121.98 19.25C123.36 17.75 124.05 17.01 125.44 15.51C125.53 15.57 125.57 15.6 125.66 15.66C124.31 17.2 123.63 17.97 122.28 19.5H122.27Z" fill="#3C87BD"/>
<path d="M141.71 24.2498C141.34 24.3298 141.15 24.3698 140.77 24.4298C139.69 21.7398 139.15 20.3998 138.07 17.7098C138.31 17.6398 138.42 17.6098 138.66 17.5298C139.88 20.2198 140.49 21.5598 141.71 24.2398V24.2498Z" fill="#3C87BD"/>
<path d="M136.98 24.7699C136.6 24.7699 136.41 24.7699 136.03 24.7599C135.64 22.1399 135.44 20.8399 135.05 18.2199C135.3 18.1999 135.42 18.1899 135.66 18.1699C136.19 20.8099 136.45 22.1299 136.98 24.7699Z" fill="#3C87BD"/>
<path d="M147.26 22.2899C146.87 22.4799 146.68 22.5799 146.29 22.7499C144.36 20.1699 143.39 18.8799 141.46 16.2899C141.69 16.1499 141.81 16.0799 142.04 15.9399C144.13 18.4799 145.18 19.7499 147.27 22.2899H147.26Z" fill="#3C87BD"/>
<path d="M140.21 24.5198C140.06 24.5398 139.98 24.5498 139.83 24.5698C138.89 21.8798 138.42 20.5398 137.48 17.8598C137.58 17.8398 137.62 17.8298 137.72 17.7998C138.72 20.4898 139.21 21.8298 140.21 24.5198Z" fill="#3C87BD"/>
<path d="M139.26 24.6399C139.18 24.6399 139.15 24.6499 139.07 24.6599C138.24 21.9799 137.83 20.6399 137 17.9599C137.05 17.9599 137.07 17.9499 137.12 17.9399C137.98 20.6199 138.41 21.9599 139.26 24.6399Z" fill="#3C87BD"/>
<path d="M143.02 23.93C142.95 23.95 142.91 23.96 142.83 23.98C141.44 21.31 140.74 19.97 139.35 17.29C139.4 17.27 139.42 17.26 139.46 17.25C140.88 19.92 141.59 21.26 143.01 23.93H143.02Z" fill="#3C87BD"/>
<path d="M142.46 24.0799C142.31 24.1199 142.24 24.1399 142.09 24.1699C140.81 21.4899 140.17 20.1499 138.89 17.4599C138.98 17.4299 139.03 17.4099 139.12 17.3799C140.45 20.0599 141.12 21.3999 142.46 24.0799Z" fill="#3C87BD"/>
<path d="M138.69 24.7C138.54 24.71 138.46 24.72 138.31 24.73C137.59 22.06 137.23 20.73 136.51 18.06C136.61 18.04 136.66 18.04 136.75 18.02C137.52 20.69 137.91 22.03 138.68 24.7H138.69Z" fill="#3C87BD"/>
<path d="M137.93 24.7398C137.78 24.7398 137.7 24.7498 137.55 24.7498C136.94 22.0998 136.64 20.7698 136.03 18.1098C136.13 18.0998 136.18 18.0898 136.27 18.0798C136.93 20.7398 137.27 22.0698 137.93 24.7298V24.7398Z" fill="#3C87BD"/>
<path d="M151.51 19.52C151.82 19.26 151.98 19.13 152.28 18.85C149.34 16.69 147.87 15.61 144.92 13.46C144.75 13.65 144.66 13.75 144.49 13.93C147.3 16.17 148.7 17.29 151.5 19.52H151.51Z" fill="#3C87BD"/>
<path d="M149.57 20.9499C149.64 20.9099 149.67 20.8799 149.74 20.8399C147.24 18.4499 145.99 17.2599 143.49 14.8699C143.45 14.8999 143.43 14.9199 143.39 14.9499C145.86 17.3499 147.1 18.5499 149.57 20.9499Z" fill="#3C87BD"/>
<path d="M147.58 22.13C147.65 22.09 147.68 22.08 147.75 22.04C145.58 19.53 144.5 18.27 142.33 15.75C142.29 15.78 142.27 15.79 142.23 15.82C144.37 18.34 145.44 19.61 147.58 22.13Z" fill="#3C87BD"/>
<path d="M148.25 21.76C148.32 21.72 148.35 21.7 148.42 21.66C146.14 19.18 145 17.95 142.72 15.47C142.68 15.5 142.66 15.51 142.62 15.54C144.87 18.03 146 19.27 148.25 21.76Z" fill="#3C87BD"/>
<path d="M150.07 20.6098C150.2 20.5198 150.27 20.4698 150.4 20.3798C147.79 18.0398 146.48 16.8698 143.87 14.5398C143.8 14.6098 143.76 14.6398 143.68 14.7098C146.24 17.0698 147.51 18.2498 150.07 20.6198V20.6098Z" fill="#3C87BD"/>
<path d="M150.72 20.1399C150.85 20.0399 150.91 19.9899 151.04 19.8899C148.32 17.6099 146.96 16.4699 144.23 14.1899C144.16 14.2599 144.12 14.2999 144.05 14.3699C146.72 16.6799 148.05 17.8299 150.72 20.1399Z" fill="#3C87BD"/>
<path d="M152.59 18.5698C152.71 18.4598 152.77 18.3998 152.89 18.2898C149.84 16.1998 148.31 15.1598 145.26 13.0698C145.19 13.1498 145.16 13.1898 145.1 13.2698C148.1 15.3898 149.59 16.4598 152.59 18.5798V18.5698Z" fill="#3C87BD"/>
<path d="M153.33 17.8499C153.39 17.7899 153.42 17.7599 153.48 17.6999C150.32 15.6799 148.74 14.6799 145.59 12.6599C145.56 12.6999 145.54 12.7199 145.51 12.7599C148.64 14.7899 150.21 15.8099 153.34 17.8499H153.33Z" fill="#3C87BD"/>
<path d="M153.76 17.39C153.87 17.27 153.93 17.2 154.04 17.08C150.78 15.14 149.15 14.17 145.88 12.23C145.82 12.32 145.79 12.36 145.73 12.44C148.94 14.42 150.55 15.41 153.76 17.38V17.39Z" fill="#3C87BD"/>
<path d="M156.4 13.9899C156.3 14.1399 156.26 14.2099 156.16 14.3599C152.49 12.7799 150.65 11.9799 146.98 10.3999C147.03 10.2999 147.05 10.2499 147.1 10.1499C150.82 11.6799 152.68 12.4499 156.4 13.9799V13.9899Z" fill="#3C87BD"/>
<path d="M155.78 14.9C155.73 14.97 155.7 15.01 155.65 15.08C152.08 13.4 150.29 12.56 146.72 10.88C146.75 10.83 146.76 10.81 146.78 10.76C150.38 12.42 152.18 13.24 155.77 14.9H155.78Z" fill="#3C87BD"/>
<path d="M155.4 15.4299C155.3 15.5699 155.24 15.6399 155.14 15.7699C151.67 13.9999 149.93 13.1099 146.46 11.3399C146.51 11.2499 146.54 11.1999 146.59 11.1099C150.11 12.8399 151.87 13.6999 155.39 15.4199L155.4 15.4299Z" fill="#3C87BD"/>
<path d="M145.76 22.99C145.62 23.05 145.54 23.08 145.4 23.14C143.61 20.52 142.71 19.22 140.92 16.6C141.01 16.55 141.05 16.53 141.14 16.48C142.99 19.08 143.91 20.39 145.76 22.99Z" fill="#3C87BD"/>
<path d="M144.85 23.34C144.78 23.37 144.74 23.38 144.67 23.41C142.99 20.77 142.16 19.45 140.48 16.82C140.52 16.8 140.55 16.79 140.59 16.77C142.29 19.4 143.15 20.72 144.85 23.35V23.34Z" fill="#3C87BD"/>
<path d="M144.31 23.5399C144.16 23.5899 144.09 23.6099 143.94 23.6599C142.38 20.9999 141.6 19.6799 140.03 17.0199C140.12 16.9799 140.16 16.9599 140.25 16.9199C141.87 19.5699 142.68 20.8899 144.3 23.5399H144.31Z" fill="#3C87BD"/>
</svg>
