<svg width="109" height="109" viewBox="0 0 109 109" fill="none" xmlns="http://www.w3.org/2000/svg">
<g filter="url(#filter0_d_42_673)">
<path d="M4 20C4 8.95431 12.9543 0 24 0H85C96.0457 0 105 8.95431 105 20V81C105 92.0457 96.0457 101 85 101H24C12.9543 101 4 92.0457 4 81V20Z" fill="white"/>
<path d="M5.5 20C5.5 9.78273 13.7827 1.5 24 1.5H85C95.2173 1.5 103.5 9.78273 103.5 20V81C103.5 91.2173 95.2173 99.5 85 99.5H24C13.7827 99.5 5.5 91.2173 5.5 81V20Z" stroke="black" stroke-width="3"/>
</g>
<path d="M42.0296 51.472C36.8136 51.472 34.2056 48.272 34.2056 41.872C34.2056 38.48 34.8776 36.016 36.2216 34.48C37.5656 32.944 39.5016 32.176 42.0296 32.176C47.2776 32.176 49.9016 35.408 49.9016 41.872C49.9016 44.976 49.2776 47.36 48.0296 49.024C46.7816 50.656 44.7816 51.472 42.0296 51.472ZM42.0296 47.296C42.9576 47.296 43.4216 46.704 43.4216 45.52V38.08C43.4216 36.928 42.9576 36.352 42.0296 36.352C41.1336 36.352 40.6856 36.928 40.6856 38.08V45.52C40.6856 46.704 41.1336 47.296 42.0296 47.296ZM40.3976 70V68.464L62.7176 32.656H67.6136V34.192L45.3416 70H40.3976ZM65.9336 70.48C60.7176 70.48 58.1096 67.28 58.1096 60.88C58.1096 57.488 58.7816 55.024 60.1256 53.488C61.4696 51.952 63.4056 51.184 65.9336 51.184C71.1816 51.184 73.8056 54.416 73.8056 60.88C73.8056 63.984 73.1816 66.368 71.9336 68.032C70.6856 69.664 68.6856 70.48 65.9336 70.48ZM65.9336 66.304C66.8616 66.304 67.3256 65.712 67.3256 64.528V57.088C67.3256 55.936 66.8616 55.36 65.9336 55.36C65.0376 55.36 64.5896 55.936 64.5896 57.088V64.528C64.5896 65.712 65.0376 66.304 65.9336 66.304Z" fill="black"/>
<defs>
<filter id="filter0_d_42_673" x="0" y="0" width="109" height="109" filterUnits="userSpaceOnUse" color-interpolation-filters="sRGB">
<feFlood flood-opacity="0" result="BackgroundImageFix"/>
<feColorMatrix in="SourceAlpha" type="matrix" values="0 0 0 0 0 0 0 0 0 0 0 0 0 0 0 0 0 0 127 0" result="hardAlpha"/>
<feOffset dy="4"/>
<feGaussianBlur stdDeviation="2"/>
<feComposite in2="hardAlpha" operator="out"/>
<feColorMatrix type="matrix" values="0 0 0 0 0 0 0 0 0 0 0 0 0 0 0 0 0 0 0.25 0"/>
<feBlend mode="normal" in2="BackgroundImageFix" result="effect1_dropShadow_42_673"/>
<feBlend mode="normal" in="SourceGraphic" in2="effect1_dropShadow_42_673" result="shape"/>
</filter>
</defs>
</svg>
