<svg width="187" height="109" viewBox="0 0 187 109" fill="none" xmlns="http://www.w3.org/2000/svg">
<g filter="url(#filter0_d_132_210)">
<path fill-rule="evenodd" clip-rule="evenodd" d="M112.503 10.3502C117.582 10.3502 121.699 6.01747 121.699 0.672781L165 0.672729C174.941 0.672729 183 8.7316 183 18.6727V82.6727C183 92.6138 174.941 100.673 165 100.673H121.699C121.699 95.328 117.582 90.9954 112.503 90.9954C107.425 90.9954 103.308 95.328 103.308 100.673H22C15.3275 100.673 9.50292 97.0421 6.39409 91.6485C8.23261 90.843 9.51714 89.0062 9.51714 86.8691C9.51714 83.9891 7.18427 81.6544 4.30652 81.6544C4.20362 81.6544 4.10142 81.6574 4 81.6633V79.805C4.10142 79.8109 4.20362 79.8138 4.30652 79.8138C7.18427 79.8138 9.51714 77.4791 9.51714 74.5991C9.51714 71.7191 7.18427 69.3844 4.30652 69.3844C4.20362 69.3844 4.10142 69.3874 4 69.3933V67.5351C4.10142 67.541 4.20362 67.5439 4.30652 67.5439C7.18427 67.5439 9.51714 65.2092 9.51714 62.3292C9.51714 59.4492 7.18427 57.1145 4.30652 57.1145C4.20362 57.1145 4.10142 57.1175 4 57.1234V55.2652C4.10142 55.2711 4.20362 55.2741 4.30652 55.2741C7.18427 55.2741 9.51714 52.9393 9.51714 50.0593C9.51714 47.1793 7.18427 44.8446 4.30652 44.8446C4.20362 44.8446 4.10142 44.8476 4 44.8535V42.9952C4.10142 43.001 4.20362 43.004 4.30652 43.004C7.18427 43.004 9.51714 40.6693 9.51714 37.7893C9.51714 34.9093 7.18427 32.5746 4.30652 32.5746C4.20362 32.5746 4.10142 32.5776 4 32.5835V30.7251C4.10142 30.731 4.20362 30.734 4.30652 30.734C7.18427 30.734 9.51714 28.3993 9.51714 25.5193C9.51714 22.6393 7.18427 20.3046 4.30652 20.3046C4.20362 20.3046 4.10142 20.3076 4 20.3134V18.6727C4 18.6002 4.00043 18.5278 4.00128 18.4554C4.10229 18.4613 4.20406 18.4642 4.30652 18.4642C7.18427 18.4642 9.51714 16.1295 9.51714 13.2495C9.51714 11.3431 8.4949 9.67556 6.96905 8.76604C10.1894 3.88979 15.719 0.672729 22 0.672729L103.308 0.672781C103.308 6.01747 107.425 10.3502 112.503 10.3502Z" fill="#EDEDED"/>
<line x1="111.777" y1="13.5562" x2="111.777" y2="19.0776" stroke="black"/>
<line x1="111.777" y1="21.5316" x2="111.777" y2="27.0531" stroke="black"/>
<line x1="111.777" y1="28.8934" x2="111.777" y2="34.4149" stroke="black"/>
<line x1="111.777" y1="36.869" x2="111.777" y2="42.3905" stroke="black"/>
<line x1="111.777" y1="44.231" x2="111.777" y2="49.7524" stroke="black"/>
<line x1="111.777" y1="52.2065" x2="111.777" y2="57.728" stroke="black"/>
<line x1="111.777" y1="59.5685" x2="111.777" y2="65.09" stroke="black"/>
<line x1="111.777" y1="67.5441" x2="111.777" y2="73.0655" stroke="black"/>
<line x1="111.777" y1="74.9058" x2="111.777" y2="80.4272" stroke="black"/>
<line x1="111.777" y1="82.8813" x2="111.777" y2="88.4028" stroke="black"/>
</g>
<mask id="path-12-inside-1_132_210" fill="white">
<path fill-rule="evenodd" clip-rule="evenodd" d="M82.3489 41.2251C82.3489 42.9617 82.0135 44.6375 81.3902 46.2157C86.8488 49.3094 90.395 54.3134 90.395 59.96C90.395 69.3539 80.5801 76.9692 68.4728 76.9692C65.4084 76.9692 62.4909 76.4814 59.8422 75.6003C57.3313 76.3775 54.5917 76.8049 51.7235 76.8049C39.6162 76.8049 29.8013 69.1896 29.8013 59.7956C29.8013 53.9807 33.562 48.8473 39.2993 45.7798C38.7813 44.3302 38.5045 42.8027 38.5045 41.2251C38.5045 36.7899 40.6923 32.7511 44.2763 29.7232C42.8266 28.2038 42.2549 26.4021 43.0058 25.6518C43.2229 25.4345 43.5316 25.3239 43.9207 25.3239C44.8807 25.3239 46.1397 25.9866 47.2061 27.0526C47.3348 27.1813 47.457 27.3124 47.5727 27.445C51.184 25.4136 55.625 24.2158 60.4267 24.2158C64.7515 24.2158 68.7837 25.1875 72.1807 26.8648C73.202 25.9094 74.3685 25.3239 75.272 25.3239C75.6612 25.3239 75.9698 25.4345 76.1869 25.6518C76.5542 26.0194 76.6157 26.6563 76.3603 27.442C76.2017 27.93 75.9329 28.4383 75.5769 28.9313C79.7499 32.028 82.3489 36.3911 82.3489 41.2251Z"/>
</mask>
<path fill-rule="evenodd" clip-rule="evenodd" d="M82.3489 41.2251C82.3489 42.9617 82.0135 44.6375 81.3902 46.2157C86.8488 49.3094 90.395 54.3134 90.395 59.96C90.395 69.3539 80.5801 76.9692 68.4728 76.9692C65.4084 76.9692 62.4909 76.4814 59.8422 75.6003C57.3313 76.3775 54.5917 76.8049 51.7235 76.8049C39.6162 76.8049 29.8013 69.1896 29.8013 59.7956C29.8013 53.9807 33.562 48.8473 39.2993 45.7798C38.7813 44.3302 38.5045 42.8027 38.5045 41.2251C38.5045 36.7899 40.6923 32.7511 44.2763 29.7232C42.8266 28.2038 42.2549 26.4021 43.0058 25.6518C43.2229 25.4345 43.5316 25.3239 43.9207 25.3239C44.8807 25.3239 46.1397 25.9866 47.2061 27.0526C47.3348 27.1813 47.457 27.3124 47.5727 27.445C51.184 25.4136 55.625 24.2158 60.4267 24.2158C64.7515 24.2158 68.7837 25.1875 72.1807 26.8648C73.202 25.9094 74.3685 25.3239 75.272 25.3239C75.6612 25.3239 75.9698 25.4345 76.1869 25.6518C76.5542 26.0194 76.6157 26.6563 76.3603 27.442C76.2017 27.93 75.9329 28.4383 75.5769 28.9313C79.7499 32.028 82.3489 36.3911 82.3489 41.2251Z" fill="#EEF9FF"/>
<path d="M81.3902 46.2157L79.995 45.6646L79.516 46.8776L80.6506 47.5206L81.3902 46.2157ZM59.8422 75.6003L60.3156 74.177L59.8587 74.025L59.3987 74.1674L59.8422 75.6003ZM39.2993 45.7798L40.0065 47.1026L41.147 46.4929L40.7118 45.2751L39.2993 45.7798ZM44.2763 29.7232L45.2444 30.869L46.4616 29.8406L45.3616 28.6877L44.2763 29.7232ZM43.0058 25.6518L44.066 26.713L44.0669 26.7121L43.0058 25.6518ZM47.2061 27.0526L48.2672 25.9923L48.2665 25.9917L47.2061 27.0526ZM47.5727 27.445L46.4421 28.4309L47.2443 29.3508L48.3081 28.7524L47.5727 27.445ZM72.1807 26.8648L71.5166 28.2098L72.4473 28.6694L73.2054 27.9602L72.1807 26.8648ZM76.1869 25.6518L77.248 24.5916L77.248 24.5916L76.1869 25.6518ZM76.3603 27.442L77.7868 27.9058L77.7869 27.9056L76.3603 27.442ZM75.5769 28.9313L74.3607 28.0534L73.4943 29.2537L74.683 30.1359L75.5769 28.9313ZM82.7853 46.7667C83.4751 45.0201 83.8489 43.1577 83.8489 41.2251L80.8489 41.2251C80.8489 42.7657 80.5518 44.2549 79.995 45.6646L82.7853 46.7667ZM91.895 59.96C91.895 53.6367 87.9262 48.1958 82.1298 44.9107L80.6506 47.5206C85.7715 50.4229 88.895 54.99 88.895 59.96L91.895 59.96ZM68.4728 78.4692C81.0322 78.4692 91.895 70.5142 91.895 59.96L88.895 59.96C88.895 68.1936 80.1281 75.4692 68.4728 75.4692L68.4728 78.4692ZM59.3688 77.0237C62.1723 77.9562 65.2499 78.4692 68.4728 78.4692L68.4728 75.4692C65.567 75.4692 62.8095 75.0065 60.3156 74.177L59.3688 77.0237ZM51.7235 78.3049C54.7402 78.3049 57.6294 77.8554 60.2857 77.0333L59.3987 74.1674C57.0332 74.8996 54.4432 75.3049 51.7235 75.3049L51.7235 78.3049ZM28.3013 59.7956C28.3013 70.3499 39.1641 78.3049 51.7235 78.3049L51.7235 75.3049C40.0682 75.3049 31.3013 68.0293 31.3013 59.7956L28.3013 59.7956ZM38.592 44.457C32.5091 47.7093 28.3013 53.2826 28.3013 59.7956L31.3013 59.7956C31.3013 54.6788 34.6149 49.9853 40.0065 47.1026L38.592 44.457ZM37.0045 41.2251C37.0045 42.9804 37.3128 44.6783 37.8868 46.2846L40.7118 45.2751C40.2498 43.982 40.0045 42.625 40.0045 41.2251L37.0045 41.2251ZM43.3083 28.5773C39.4548 31.833 37.0045 36.2665 37.0045 41.2251L40.0045 41.2251C40.0045 37.3133 41.9298 33.6693 45.2444 30.869L43.3083 28.5773ZM45.3616 28.6877C44.7591 28.0563 44.3943 27.4195 44.2471 26.9501C44.0726 26.394 44.2936 26.4857 44.066 26.713L41.9457 24.5907C40.9672 25.5682 41.0985 26.9358 41.3846 27.848C41.6979 28.8468 42.3438 29.8706 43.1911 30.7586L45.3616 28.6877ZM44.0669 26.7121C44.0091 26.7699 43.9475 26.8031 43.905 26.8183C43.8677 26.8317 43.8664 26.8239 43.9207 26.8239L43.9207 23.8239C43.2449 23.8239 42.5132 24.0227 41.9448 24.5916L44.0669 26.7121ZM43.9207 26.8239C44.3065 26.8239 45.2045 27.1728 46.1457 28.1135L48.2665 25.9917C47.0748 24.8005 45.4549 23.8239 43.9207 23.8239L43.9207 26.8239ZM46.145 28.1128C46.2498 28.2176 46.3489 28.3239 46.4421 28.4309L48.7032 26.4592C48.5652 26.3009 48.4198 26.145 48.2672 25.9923L46.145 28.1128ZM60.4267 22.7158C55.3792 22.7158 50.6831 23.9743 46.8373 26.1377L48.3081 28.7524C51.6848 26.8529 55.8709 25.7158 60.4267 25.7158L60.4267 22.7158ZM72.8448 25.5199C69.2343 23.7371 64.9738 22.7158 60.4267 22.7158L60.4267 25.7158C64.5291 25.7158 68.3332 26.6379 71.5166 28.2098L72.8448 25.5199ZM75.272 23.8239C73.8215 23.8239 72.3034 24.696 71.1559 25.7694L73.2054 27.9602C74.1006 27.1228 74.9155 26.8239 75.272 26.8239L75.272 23.8239ZM77.248 24.5916C76.6795 24.0227 75.9478 23.8239 75.272 23.8239L75.272 26.8239C75.3263 26.8239 75.3251 26.8317 75.2877 26.8183C75.2453 26.8031 75.1836 26.7699 75.1259 26.7121L77.248 24.5916ZM77.7869 27.9056C78.1047 26.9276 78.2174 25.5617 77.248 24.5916L75.1258 26.7121C75.0766 26.6628 75.0452 26.6111 75.0279 26.571C75.0116 26.5332 75.0124 26.517 75.0141 26.5346C75.0183 26.5781 75.0173 26.7213 74.9338 26.9785L77.7869 27.9056ZM76.7932 29.8093C77.2216 29.2158 77.5711 28.5695 77.7868 27.9058L74.9338 26.9783C74.8323 27.2905 74.6441 27.6607 74.3607 28.0534L76.7932 29.8093ZM83.8489 41.2251C83.8489 35.8175 80.9381 31.0419 76.4708 27.7268L74.683 30.1359C78.5617 33.0142 80.8489 36.9647 80.8489 41.2251L83.8489 41.2251Z" fill="#2F749B" mask="url(#path-12-inside-1_132_210)"/>
<ellipse cx="0.57184" cy="1.71568" rx="0.57184" ry="1.71568" transform="matrix(0.748403 -0.663245 0.662659 0.748921 44.0928 27.2628)" fill="#3C87BD"/>
<ellipse cx="0.571834" cy="1.7157" rx="0.571834" ry="1.7157" transform="matrix(0.756228 0.654308 -0.653719 0.756738 74.3459 26.5042)" fill="#3C87BD"/>
<path d="M50.0317 47.1541C50.0317 47.1541 51.4928 46.3369 53.2407 47.1541" stroke="black" stroke-miterlimit="10" stroke-linecap="round"/>
<path d="M51.8755 51.1176C52.2903 51.1176 52.6266 50.3528 52.6266 49.4094C52.6266 48.466 52.2903 47.7012 51.8755 47.7012C51.4608 47.7012 51.1245 48.466 51.1245 49.4094C51.1245 50.3528 51.4608 51.1176 51.8755 51.1176Z" fill="#57ACE9"/>
<path d="M64.5063 47.1537C64.5063 47.1537 65.9674 46.3365 67.7153 47.1537" stroke="black" stroke-miterlimit="10" stroke-linecap="round"/>
<path d="M66.3497 51.1169C66.7644 51.1169 67.1007 50.3521 67.1007 49.4087C67.1007 48.4652 66.7644 47.7004 66.3497 47.7004C65.9349 47.7004 65.5986 48.4652 65.5986 49.4087C65.5986 50.3521 65.9349 51.1169 66.3497 51.1169Z" fill="#57ACE9"/>
<path d="M44.1606 47.0173C44.1606 47.0173 58.0888 39.2278 74.7479 47.0173" stroke="black" stroke-miterlimit="10" stroke-linecap="round"/>
<path d="M47.7356 45.4322C47.0146 44.2351 46.6187 42.6895 46.6187 41.0714C46.6187 37.4924 48.5481 34.5802 50.92 34.5802C53.2919 34.5802 55.2213 37.4924 55.2213 41.0714C55.2213 42.0157 55.0889 42.9259 54.828 43.78C52.3893 44.0929 50.0037 44.6491 47.7356 45.4308L47.7356 45.4322Z" fill="white"/>
<path d="M50.9197 34.65C53.2533 34.65 55.1527 37.5307 55.1527 41.0729C55.1527 41.9939 55.0257 42.885 54.7758 43.7199C52.3671 44.0329 50.0089 44.5809 47.7653 45.3503C47.0689 44.1695 46.6866 42.6567 46.6866 41.0729C46.6866 37.5307 48.586 34.65 50.9197 34.65ZM50.9197 34.5133C48.5068 34.5133 46.55 37.4501 46.55 41.0729C46.55 42.7866 46.9884 44.3472 47.7053 45.5156C49.5227 44.8856 51.967 44.2146 54.8796 43.8443C55.1418 43.0025 55.2893 42.0636 55.2893 41.0729C55.2893 37.4501 53.3325 34.5133 50.9197 34.5133Z" fill="black"/>
<path d="M54.8349 43.8744C55.0206 43.3647 55.1367 42.7921 55.1612 42.1826C55.2527 39.9578 54.0948 38.1047 52.5763 38.0419C51.0579 37.9804 49.7539 39.7323 49.6624 41.9571C49.6187 43.0094 49.8563 43.9796 50.2782 44.7148C51.4375 44.3746 52.9928 44.0261 54.8335 43.873L54.8349 43.8744Z" fill="black"/>
<path d="M53.2409 40.3893C53.6179 40.3893 53.9236 40.0834 53.9236 39.706C53.9236 39.3286 53.6179 39.0227 53.2409 39.0227C52.8638 39.0227 52.5581 39.3286 52.5581 39.706C52.5581 40.0834 52.8638 40.3893 53.2409 40.3893Z" fill="white"/>
<path d="M71.5824 45.5689C69.3143 44.7858 66.9287 44.231 64.4899 43.9181C64.2291 43.0639 64.0967 42.1524 64.0967 41.2095C64.0967 37.6304 66.0261 34.7183 68.398 34.7183C70.7699 34.7183 72.6993 37.6304 72.6993 41.2095C72.6993 42.8262 72.3033 44.3718 71.5824 45.5703L71.5824 45.5689Z" fill="white"/>
<path d="M68.3977 34.7866C70.7313 34.7866 72.6307 37.6673 72.6307 41.2095C72.6307 42.7933 72.2484 44.3075 71.552 45.4869C69.3085 44.7175 66.9516 44.1681 64.5415 43.8565C64.2916 43.0216 64.1646 42.1319 64.1646 41.2095C64.1646 37.6673 66.064 34.7866 68.3977 34.7866ZM68.3977 34.6499C65.9848 34.6499 64.0281 37.5867 64.0281 41.2095C64.0281 42.2002 64.1756 43.1391 64.4377 43.9809C67.3503 44.3512 69.796 45.0222 71.6121 45.6522C72.329 44.4838 72.7673 42.9232 72.7673 41.2095C72.7673 37.5867 70.8105 34.6499 68.3977 34.6499Z" fill="black"/>
<path d="M64.483 44.011C64.2973 43.5013 64.1813 42.9287 64.1567 42.3192C64.0652 40.0944 65.2231 38.2413 66.7416 38.1785C68.26 38.117 69.5641 39.8689 69.6555 42.0937C69.6992 43.146 69.4617 44.1162 69.0397 44.8514C67.8804 44.5112 66.3251 44.1627 64.4844 44.0096L64.483 44.011Z" fill="black"/>
<path d="M66.0765 40.5261C66.4536 40.5261 66.7593 40.2202 66.7593 39.8428C66.7593 39.4655 66.4536 39.1595 66.0765 39.1595C65.6995 39.1595 65.3938 39.4655 65.3938 39.8428C65.3938 40.2202 65.6995 40.5261 66.0765 40.5261Z" fill="white"/>
<path d="M48.0053 63.181C47.7417 63.0682 47.609 63.0107 47.3455 62.8933C47.5953 61.268 47.7193 60.4553 47.9691 58.8301C48.2206 58.8784 48.3481 58.9014 48.5996 58.9475C48.3619 60.6418 48.243 61.489 48.0053 63.181Z" fill="black"/>
<path d="M44.7373 61.6273C44.4791 61.4915 44.35 61.4224 44.0918 61.2843C44.3862 60.0066 44.5325 59.369 44.8268 58.0913C45.0782 58.1604 45.2038 58.1949 45.4534 58.2594C45.1677 59.6061 45.0231 60.2806 44.7373 61.6273Z" fill="black"/>
<path d="M52.8125 64.9328C52.2186 64.7533 51.9225 64.6589 51.332 64.4586C51.5007 62.4236 51.5851 61.4083 51.7521 59.3733C52.3081 59.4262 52.5852 59.447 53.1395 59.4792C53.0087 61.6616 52.9433 62.7504 52.8107 64.9328L52.8125 64.9328Z" fill="black"/>
<path d="M46.9513 62.7136C46.8462 62.6652 46.7945 62.6422 46.6895 62.5916C46.9496 61.0354 47.0788 60.2573 47.3389 58.701C47.4389 58.7218 47.4905 58.7333 47.5905 58.754C47.3355 60.3378 47.2063 61.1297 46.9513 62.7136Z" fill="black"/>
<path d="M46.2974 62.4072C46.2458 62.3819 46.2182 62.3704 46.1665 62.3451C46.4335 60.8441 46.5679 60.0936 46.8367 58.595C46.8866 58.6065 46.9125 58.6111 46.9624 58.6226C46.6971 60.1374 46.5627 60.8948 46.2974 62.4072Z" fill="black"/>
<path d="M48.9307 63.5654C48.8773 63.5447 48.8515 63.5332 48.7981 63.5125C49.0203 61.7376 49.1323 60.849 49.3563 59.0718C49.4062 59.0787 49.4321 59.0833 49.482 59.0902C49.2615 60.8789 49.1513 61.7744 48.9307 63.5654Z" fill="black"/>
<path d="M48.5331 63.4042C48.428 63.3604 48.3746 63.3374 48.2678 63.2937C48.5004 61.5717 48.6175 60.7107 48.8501 58.9911C48.9518 59.0072 49.0017 59.0164 49.1017 59.0325C48.8742 60.7821 48.7588 61.6546 48.5314 63.4042L48.5331 63.4042Z" fill="black"/>
<path d="M45.9069 62.2187C45.8018 62.168 45.7501 62.1427 45.6467 62.0897C45.9224 60.644 46.0602 59.9235 46.3341 58.4778C46.434 58.5008 46.4857 58.5123 46.5856 58.5353C46.3134 60.0087 46.1791 60.7453 45.9069 62.2164L45.9069 62.2187Z" fill="black"/>
<path d="M53.2168 65.0523C53.3253 65.0845 53.3788 65.0983 53.4873 65.1305C53.601 62.8837 53.6578 61.758 53.7698 59.5111C53.6682 59.5065 53.6182 59.5042 53.5166 59.4996C53.396 61.7211 53.3357 62.8308 53.2151 65.0523L53.2168 65.0523Z" fill="black"/>
<path d="M54.3018 65.3519C54.4103 65.3795 54.4654 65.3956 54.574 65.4233C54.6567 63.0705 54.698 61.8919 54.7807 59.5391C54.679 59.5391 54.6291 59.5368 54.5292 59.5345C54.4379 61.862 54.3931 63.0245 54.3035 65.3519L54.3018 65.3519Z" fill="black"/>
<path d="M54.8455 65.4923C54.954 65.5199 55.0091 65.5337 55.1177 65.559C55.1848 63.1534 55.2176 61.9494 55.2848 59.5437C55.1831 59.5437 55.1332 59.5437 55.0332 59.5437C54.9592 61.9241 54.9213 63.1142 54.8472 65.4923L54.8455 65.4923Z" fill="black"/>
<path d="M56.481 65.8676C56.5912 65.8906 56.6446 65.9021 56.7549 65.9228C56.7704 63.3606 56.7773 62.0807 56.7928 59.5184C56.6929 59.523 56.6412 59.523 56.5413 59.5276C56.5171 62.0645 56.5051 63.333 56.481 65.8676Z" fill="black"/>
<path d="M57.1663 66.0032C57.2214 66.0147 57.249 66.0193 57.3041 66.0285C57.3024 63.8508 57.2989 61.673 57.2972 59.4952C57.2472 59.4975 57.2214 59.4998 57.1714 59.5021C57.1714 61.6684 57.168 63.837 57.1663 66.0032Z" fill="black"/>
<path d="M57.5776 66.0817C57.6879 66.1024 57.743 66.1116 57.8516 66.13C57.8343 63.9085 57.8154 61.6893 57.7982 59.4678C57.6982 59.4747 57.6466 59.477 57.5466 59.4816C57.557 61.6801 57.5673 63.8809 57.5759 66.0794L57.5776 66.0817Z" fill="black"/>
<path d="M58.1266 66.1782C58.2369 66.1966 58.292 66.2059 58.4022 66.2243C58.3678 63.9613 58.3351 61.6984 58.3006 59.4354C58.2007 59.4423 58.1507 59.4469 58.0491 59.4538C58.0749 61.6961 58.1008 63.9383 58.1266 66.1805L58.1266 66.1782Z" fill="black"/>
<path d="M60.3304 66.4912C60.2201 66.4774 60.165 66.4728 60.0548 66.459C59.9703 64.0694 59.8876 61.6799 59.8032 59.2903C59.9031 59.2788 59.9531 59.2719 60.053 59.2604C60.1461 61.6707 60.2391 64.0809 60.3304 66.4912Z" fill="black"/>
<path d="M59.6399 66.4062C59.5848 66.3993 59.5572 66.3947 59.5021 66.3878C59.4349 64.0396 59.3677 61.6915 59.3022 59.3434C59.3522 59.3388 59.3781 59.3365 59.428 59.3296C59.4986 61.6869 59.5693 64.0466 59.6416 66.4039L59.6399 66.4062Z" fill="black"/>
<path d="M58.6761 66.2681C58.5659 66.252 58.5107 66.2428 58.4005 66.2244C58.366 63.9614 58.3333 61.6985 58.2988 59.4355C58.3987 59.4286 58.4487 59.424 58.5504 59.4148C58.5917 61.6985 58.6348 63.9844 58.6761 66.2681Z" fill="black"/>
<path d="M50.9294 64.3182C50.8226 64.2813 50.7692 64.2606 50.6624 64.2238C50.8467 62.2578 50.938 61.2748 51.1223 59.3065C51.224 59.318 51.2739 59.3226 51.3756 59.3341C51.1981 61.3277 51.1086 62.3246 50.9311 64.3182L50.9294 64.3182Z" fill="black"/>
<path d="M50.2616 64.0785C50.2082 64.0578 50.1806 64.0486 50.1272 64.0302C50.3236 62.1172 50.4201 61.1618 50.6165 59.2488C50.6664 59.2557 50.6923 59.258 50.7422 59.2649C50.5493 61.1917 50.4528 62.154 50.2599 64.0785L50.2616 64.0785Z" fill="black"/>
<path d="M49.8605 63.9293C49.7537 63.8878 49.7003 63.8694 49.5935 63.828C49.8002 61.9702 49.9036 61.0402 50.1121 59.1824C50.2137 59.1962 50.2637 59.2031 50.3653 59.2169C50.1637 61.1023 50.0638 62.0439 49.8623 63.9293L49.8605 63.9293Z" fill="black"/>
<path d="M64.7591 66.7746C64.4802 66.7722 64.3425 66.7676 64.0636 66.7607C63.8433 64.0742 63.6229 61.39 63.4026 58.7034C63.6505 58.6505 63.7727 58.6229 64.0206 58.5676C64.2667 61.3025 64.5129 64.0397 64.7573 66.7746L64.7591 66.7746Z" fill="black"/>
<path d="M61.2914 66.5925C61.0141 66.5672 60.8762 66.5534 60.5989 66.5234C60.4972 64.0924 60.3956 61.6614 60.2957 59.2304C60.5455 59.1982 60.6712 59.1821 60.9193 59.1453C61.0433 61.6269 61.1674 64.1109 61.2914 66.5925Z" fill="black"/>
<path d="M69.0043 66.6112C68.6979 66.6388 68.5447 66.6503 68.2383 66.671C67.8544 63.6921 67.4705 60.7133 67.0884 57.7367C67.3569 57.6515 67.4895 57.61 67.758 57.5203C68.1746 60.5498 68.5895 63.5816 69.006 66.6112L69.0043 66.6112Z" fill="black"/>
<path d="M63.6478 66.7469C63.5358 66.7423 63.4807 66.74 63.3704 66.7354C63.1757 64.0995 62.9793 61.4636 62.7847 58.8278C62.8846 58.8093 62.9328 58.7978 63.0327 58.7794C63.2378 61.436 63.4428 64.0903 63.6478 66.7469Z" fill="black"/>
<path d="M62.9541 66.7149C62.8989 66.7126 62.8714 66.7103 62.8145 66.708C62.6388 64.1135 62.4631 61.5168 62.2874 58.9223C62.3373 58.9131 62.3614 58.9085 62.4114 58.8993C62.5923 61.5053 62.7732 64.1089 62.9523 66.7149L62.9541 66.7149Z" fill="black"/>
<path d="M65.7329 66.7745C65.6778 66.7745 65.6502 66.7745 65.5933 66.7745C65.316 63.9797 65.0386 61.185 64.7612 58.3903C64.8112 58.3788 64.8353 58.3719 64.8835 58.3604C65.1661 61.1643 65.4503 63.9705 65.7329 66.7745Z" fill="black"/>
<path d="M65.316 66.7766C65.204 66.7766 65.1489 66.7766 65.0369 66.7766C64.7802 64.021 64.5235 61.2654 64.2668 58.5098C64.365 58.4868 64.415 58.4753 64.5132 58.45C64.7802 61.2263 65.0473 64.0003 65.3143 66.7766L65.316 66.7766Z" fill="black"/>
<path d="M62.5372 66.6918C62.427 66.6848 62.3701 66.6802 62.2599 66.6733C62.1031 64.118 61.9463 61.565 61.7913 59.0097C61.8912 58.9936 61.9411 58.9844 62.0393 58.9683C62.2047 61.542 62.3718 64.118 62.5372 66.6918Z" fill="black"/>
<path d="M61.9831 66.6524C61.8728 66.6432 61.816 66.6386 61.7057 66.6294C61.5679 64.1155 61.4301 61.6016 61.2922 59.09C61.3922 59.0739 61.4421 59.067 61.542 59.0509C61.6885 61.5855 61.8366 64.1178 61.9831 66.6524Z" fill="black"/>
<path d="M72.5557 66.1503C72.8346 66.1019 72.9723 66.0766 73.2511 66.026C72.6435 62.7179 72.0341 59.4098 71.4264 56.1017C71.1889 56.2076 71.0701 56.2582 70.8308 56.3595C71.4058 59.6239 71.9824 62.8882 72.5574 66.1503L72.5557 66.1503Z" fill="black"/>
<path d="M70.886 66.4065C70.9411 66.3996 70.9704 66.395 71.0255 66.3881C70.5211 63.2227 70.0167 60.0597 69.5123 56.8943C69.4641 56.9127 69.44 56.9219 69.3918 56.9403C69.8893 60.0965 70.3886 63.2503 70.886 66.4065Z" fill="black"/>
<path d="M69.2539 66.5904C69.309 66.5858 69.3382 66.5835 69.3933 66.5765C68.9612 63.5194 68.5292 60.4645 68.0954 57.4073C68.0472 57.4235 68.0231 57.4327 67.9749 57.4488C68.4018 60.4967 68.8287 63.5424 69.2539 66.5904Z" fill="black"/>
<path d="M69.7978 66.5349C69.8529 66.528 69.8822 66.5257 69.9373 66.5188C69.4811 63.4248 69.0249 60.3331 68.5687 57.2391C68.5205 57.2553 68.4964 57.2645 68.4482 57.2829C68.8975 60.3654 69.3485 63.4502 69.7978 66.5326L69.7978 66.5349Z" fill="black"/>
<path d="M71.3027 66.3484C71.4146 66.3323 71.4697 66.3253 71.5816 66.3069C71.0514 63.1047 70.5212 59.9048 69.991 56.7026C69.8946 56.7418 69.8464 56.7602 69.75 56.797C70.2664 59.9808 70.7846 63.1623 71.301 66.3461L71.3027 66.3484Z" fill="black"/>
<path d="M71.8599 66.2658C71.9718 66.2473 72.0269 66.2404 72.1388 66.222C71.5828 62.9853 71.0267 59.7486 70.4707 56.5118C70.3743 56.551 70.3278 56.5717 70.2314 56.6108C70.7737 59.8291 71.3177 63.0498 71.8599 66.2681L71.8599 66.2658Z" fill="black"/>
<path d="M73.5284 65.9734C73.6403 65.9526 73.6954 65.9411 73.8055 65.9181C73.1703 62.5755 72.5351 59.2306 71.8999 55.8879C71.8052 55.9317 71.757 55.9524 71.6624 55.9961C72.2838 59.3226 72.9069 62.6469 73.5284 65.9734Z" fill="black"/>
<path d="M74.2239 65.8307C74.279 65.8192 74.3066 65.8123 74.3634 65.8008C73.7006 62.4236 73.0379 59.0441 72.3751 55.667C72.3286 55.69 72.3045 55.7015 72.2563 55.7222C72.9122 59.0925 73.5681 62.4604 74.2239 65.8307Z" fill="black"/>
<path d="M74.6404 65.7407C74.7523 65.7154 74.8074 65.7038 74.9176 65.6785C74.2273 62.2668 73.537 58.8528 72.8467 55.4412C72.752 55.4872 72.7055 55.5102 72.6108 55.5563C73.2874 58.9518 73.9639 62.3474 74.6404 65.743L74.6404 65.7407Z" fill="black"/>
<path d="M77.4103 65.0319C77.3002 65.0642 77.2451 65.0803 77.1332 65.1102C76.3276 61.5627 75.5236 58.0175 74.718 54.47C74.811 54.4193 74.8574 54.394 74.9504 54.3411C75.7698 57.9047 76.5892 61.466 77.4086 65.0296L77.4103 65.0319Z" fill="black"/>
<path d="M76.718 65.2274C76.6629 65.2436 76.6354 65.2505 76.5803 65.2643C75.8039 61.7513 75.0293 58.236 74.2529 54.723C74.2994 54.6977 74.3235 54.6862 74.37 54.6609C75.1532 58.1831 75.9365 61.7053 76.7197 65.2274L76.718 65.2274Z" fill="black"/>
<path d="M76.3034 65.3381C76.1932 65.3681 76.1364 65.3819 76.0262 65.4095C75.2791 61.9287 74.532 58.448 73.7849 54.9695C73.8779 54.9212 73.9261 54.8959 74.019 54.8475C74.7799 58.3444 75.5408 61.8413 76.3034 65.3381Z" fill="black"/>
<path d="M67.82 66.7006C67.7081 66.7076 67.653 66.7099 67.5411 66.7168C67.1865 63.7862 66.8319 60.8557 66.4773 57.9251C66.5754 57.8952 66.6236 57.8814 66.7217 57.8514C67.0884 60.8004 67.4533 63.7517 67.82 66.7006Z" fill="black"/>
<path d="M67.1253 66.7353C67.0702 66.7376 67.0409 66.7399 66.9858 66.7422C66.6533 63.8508 66.3208 60.9571 65.9883 58.0657C66.0365 58.0518 66.0624 58.0449 66.1106 58.0311C66.4483 60.9341 66.7859 63.8347 67.1253 66.7376L67.1253 66.7353Z" fill="black"/>
<path d="M66.7072 66.7512C66.5952 66.7558 66.5401 66.7558 66.4281 66.7604C66.118 63.9058 65.8079 61.0535 65.4978 58.199C65.596 58.1736 65.646 58.1598 65.7424 58.1322C66.0629 61.0052 66.385 63.8782 66.7055 66.7512L66.7072 66.7512Z" fill="black"/>
<path d="M120.136 46.8272C120.136 46.6042 120.25 46.4953 120.483 46.4953L122.971 46.4953L122.971 45.0688C122.971 44.8354 123.085 44.7213 123.318 44.7213L125.609 44.7213C125.842 44.7213 125.956 44.8354 125.956 45.0688L125.956 46.4953L128.444 46.4953C128.677 46.4953 128.791 46.6042 128.791 46.8272L128.791 48.6219C128.791 48.845 128.677 48.9539 128.444 48.9539L120.483 48.9539C120.25 48.9539 120.136 48.845 120.136 48.6219L120.136 46.8272ZM128.46 54.7115C128.46 55.4428 128.361 56.0653 128.169 56.5788C127.978 57.0923 127.703 57.5125 127.351 57.834C126.998 58.1556 126.573 58.3891 126.081 58.5395C125.588 58.6899 125.044 58.7625 124.448 58.7625C123.852 58.7625 123.308 58.6899 122.821 58.5395C122.334 58.3891 121.919 58.1556 121.566 57.834C121.219 57.5125 120.945 57.0975 120.753 56.5788C120.561 56.0601 120.463 55.4428 120.463 54.7115L120.463 53.534C120.463 52.8027 120.561 52.1802 120.753 51.6667C120.945 51.1532 121.219 50.733 121.572 50.4115C121.924 50.0899 122.349 49.8564 122.841 49.706C123.334 49.5556 123.878 49.483 124.474 49.483C125.07 49.483 125.614 49.5556 126.102 49.706C126.589 49.8564 127.003 50.0899 127.356 50.4115C127.703 50.733 127.973 51.148 128.169 51.6667C128.361 52.1802 128.46 52.8027 128.46 53.534L128.46 54.7115ZM125.542 53.534C125.542 53.0361 125.464 52.647 125.309 52.3618C125.153 52.0765 124.878 51.9364 124.479 51.9364C124.08 51.9364 123.785 52.0765 123.624 52.3618C123.463 52.647 123.386 53.0361 123.386 53.534L123.386 54.7115C123.386 55.2094 123.463 55.5984 123.619 55.8837C123.774 56.1638 124.049 56.3091 124.448 56.3091C124.847 56.3091 125.143 56.169 125.303 55.8837C125.464 55.6036 125.542 55.2094 125.542 54.7115L125.542 53.534ZM130.118 58.8455C129.885 58.8455 129.771 58.7366 129.771 58.5135L129.771 45.6498C129.771 45.4164 129.885 45.3023 130.118 45.3023L132.492 45.3023C132.725 45.3023 132.839 45.4164 132.839 45.6498L132.839 50.2299L133.7 50.2299C133.923 50.2299 134.031 50.344 134.031 50.5774L134.031 52.7871C134.031 53.0101 133.923 53.1191 133.7 53.1191L132.839 53.1191L132.839 58.5135C132.839 58.7366 132.725 58.8455 132.492 58.8455L130.118 58.8455Z" fill="#3C87BD"/>
<path d="M135.115 48.0929C134.892 48.0929 134.783 47.9839 134.783 47.7609L134.783 45.9869C134.783 45.7535 134.892 45.6394 135.115 45.6394L142.91 45.6394C143.143 45.6394 143.257 45.7483 143.257 45.9714L143.257 58.2697C143.257 58.4928 143.143 58.6017 142.91 58.6017L135.296 58.6017C135.063 58.6017 134.949 58.4928 134.949 58.2697L134.949 48.9228C134.949 48.6997 135.063 48.5908 135.296 48.5908L137.649 48.5908C137.882 48.5908 137.996 48.6997 137.996 48.9228L137.996 56.1431L140.204 56.1431L140.204 48.0929L135.115 48.0929ZM144.765 58.8507C144.532 58.8507 144.418 58.7418 144.418 58.5187L144.418 45.6498C144.418 45.4164 144.532 45.3022 144.765 45.3022L147.139 45.3022C147.372 45.3022 147.486 45.4164 147.486 45.6498L147.486 50.2299L148.347 50.2299C148.57 50.2299 148.678 50.344 148.678 50.5774L148.678 52.7871C148.678 53.0101 148.57 53.1191 148.347 53.1191L147.486 53.1191L147.486 58.5135C147.486 58.7366 147.372 58.8455 147.139 58.8455L144.765 58.8455L144.765 58.8507Z" fill="#3C87BD"/>
<path d="M149.425 46.8271C149.425 46.6041 149.539 46.4951 149.772 46.4951L152.26 46.4951L152.26 45.0687C152.26 44.8353 152.374 44.7212 152.607 44.7212L154.898 44.7212C155.131 44.7212 155.245 44.8353 155.245 45.0687L155.245 46.4951L157.733 46.4951C157.966 46.4951 158.08 46.6041 158.08 46.8271L158.08 48.6218C158.08 48.8449 157.966 48.9538 157.733 48.9538L149.772 48.9538C149.539 48.9538 149.425 48.8449 149.425 48.6218L149.425 46.8271ZM157.749 54.7113C157.749 55.4427 157.65 56.0652 157.458 56.5787C157.267 57.0922 156.992 57.5123 156.639 57.8339C156.287 58.1555 155.862 58.3889 155.37 58.5394C154.877 58.6898 154.333 58.7624 153.737 58.7624C153.141 58.7624 152.597 58.6898 152.11 58.5394C151.622 58.3889 151.208 58.1555 150.855 57.8339C150.508 57.5123 150.233 57.0974 150.042 56.5787C149.85 56.06 149.751 55.4427 149.751 54.7113L149.751 53.5339C149.751 52.8025 149.85 52.1801 150.042 51.6666C150.233 51.1531 150.508 50.7329 150.86 50.4113C151.213 50.0897 151.638 49.8563 152.13 49.7059C152.623 49.5555 153.167 49.4829 153.763 49.4829C154.359 49.4829 154.903 49.5555 155.39 49.7059C155.878 49.8563 156.292 50.0897 156.645 50.4113C156.992 50.7329 157.261 51.1479 157.458 51.6666C157.65 52.1801 157.749 52.8025 157.749 53.5339L157.749 54.7113ZM154.831 53.5339C154.831 53.0359 154.753 52.6469 154.597 52.3616C154.442 52.0764 154.167 51.9363 153.768 51.9363C153.369 51.9363 153.074 52.0764 152.913 52.3616C152.752 52.6469 152.674 53.0359 152.674 53.5339L152.674 54.7113C152.674 55.2093 152.752 55.5983 152.908 55.8836C153.063 56.1637 153.338 56.3089 153.737 56.3089C154.136 56.3089 154.432 56.1689 154.592 55.8836C154.753 55.6035 154.831 55.2093 154.831 54.7113L154.831 53.5339ZM159.407 58.8454C159.174 58.8454 159.06 58.7365 159.06 58.5134L159.06 45.6497C159.06 45.4162 159.174 45.3021 159.407 45.3021L161.781 45.3021C162.014 45.3021 162.128 45.4162 162.128 45.6497L162.128 50.2298L162.988 50.2298C163.211 50.2298 163.32 50.3439 163.32 50.5773L163.32 52.787C163.32 53.01 163.211 53.1189 162.988 53.1189L162.128 53.1189L162.128 58.5134C162.128 58.7365 162.014 58.8454 161.781 58.8454L159.407 58.8454Z" fill="#3C87BD"/>
<path d="M164.403 48.0929C164.18 48.0929 164.072 47.9839 164.072 47.7609L164.072 45.9869C164.072 45.7535 164.18 45.6394 164.403 45.6394L172.198 45.6394C172.432 45.6394 172.546 45.7483 172.546 45.9714L172.546 58.2697C172.546 58.4928 172.432 58.6017 172.198 58.6017L164.585 58.6017C164.351 58.6017 164.237 58.4928 164.237 58.2697L164.237 48.9228C164.237 48.6997 164.351 48.5908 164.585 48.5908L166.938 48.5908C167.171 48.5908 167.285 48.6997 167.285 48.9228L167.285 56.1431L169.493 56.1431L169.493 48.0929L164.403 48.0929ZM174.054 58.8507C173.821 58.8507 173.707 58.7418 173.707 58.5187L173.707 45.6498C173.707 45.4164 173.821 45.3022 174.054 45.3022L176.428 45.3022C176.661 45.3022 176.775 45.4164 176.775 45.6498L176.775 50.2299L177.635 50.2299C177.858 50.2299 177.967 50.344 177.967 50.5774L177.967 52.7871C177.967 53.0101 177.858 53.1191 177.635 53.1191L176.775 53.1191L176.775 58.5135C176.775 58.7366 176.661 58.8455 176.428 58.8455L174.054 58.8455L174.054 58.8507Z" fill="#3C87BD"/>
<defs>
<filter id="filter0_d_132_210" x="0" y="0.672729" width="187" height="108" filterUnits="userSpaceOnUse" color-interpolation-filters="sRGB">
<feFlood flood-opacity="0" result="BackgroundImageFix"/>
<feColorMatrix in="SourceAlpha" type="matrix" values="0 0 0 0 0 0 0 0 0 0 0 0 0 0 0 0 0 0 127 0" result="hardAlpha"/>
<feOffset dy="4"/>
<feGaussianBlur stdDeviation="2"/>
<feComposite in2="hardAlpha" operator="out"/>
<feColorMatrix type="matrix" values="0 0 0 0 0 0 0 0 0 0 0 0 0 0 0 0 0 0 0.25 0"/>
<feBlend mode="normal" in2="BackgroundImageFix" result="effect1_dropShadow_132_210"/>
<feBlend mode="normal" in="SourceGraphic" in2="effect1_dropShadow_132_210" result="shape"/>
</filter>
</defs>
</svg>
