<svg width="244" height="140" viewBox="0 0 244 140" fill="none" xmlns="http://www.w3.org/2000/svg">
<g filter="url(#filter0_d_42_609)">
<path fill-rule="evenodd" clip-rule="evenodd" d="M146.982 12.7428C153.674 12.7428 159.099 7.03781 159.099 0.000320435V0.000244141H221.88C231.821 0.000244141 239.88 8.05912 239.88 18.0002V113.673C239.88 123.614 231.821 131.673 221.88 131.673H159.099C159.099 124.635 153.674 118.93 146.982 118.93C140.29 118.93 134.865 124.635 134.865 131.673H22C14.4031 131.673 7.90534 126.967 5.26335 120.31C8.64995 119.888 11.2704 116.998 11.2704 113.497C11.2704 109.705 8.19621 106.631 4.40402 106.631C4.26839 106.631 4.13368 106.635 4 106.643V104.196C4.13368 104.204 4.26839 104.207 4.40402 104.207C8.19621 104.207 11.2704 101.133 11.2704 97.3411C11.2704 93.5489 8.19621 90.4748 4.40402 90.4748C4.26839 90.4748 4.13368 90.4787 4 90.4864V88.0398C4.13368 88.0475 4.26839 88.0515 4.40402 88.0515C8.19621 88.0515 11.2704 84.9773 11.2704 81.1851C11.2704 77.3929 8.19621 74.3187 4.40402 74.3187C4.26839 74.3187 4.13368 74.3227 4 74.3304V71.8836C4.13368 71.8913 4.26839 71.8953 4.40402 71.8953C8.19621 71.8953 11.2704 68.8211 11.2704 65.0289C11.2704 61.2367 8.19621 58.1625 4.40402 58.1625C4.26839 58.1625 4.13368 58.1665 4 58.1742V55.7272C4.13368 55.735 4.26839 55.7389 4.40402 55.7389C8.19621 55.7389 11.2704 52.6647 11.2704 48.8725C11.2704 45.0803 8.19621 42.0062 4.40402 42.0062C4.26839 42.0062 4.13368 42.0101 4 42.0179V39.5712C4.13368 39.5789 4.26839 39.5829 4.40402 39.5829C8.19621 39.5829 11.2704 36.5087 11.2704 32.7165C11.2704 28.9243 8.19621 25.8502 4.40402 25.8502C4.26839 25.8502 4.13368 25.8541 4 25.8618V23.4152C4.13368 23.4229 4.26839 23.4269 4.40402 23.4269C8.19621 23.4269 11.2704 20.3527 11.2704 16.5605C11.2704 13.2958 8.9919 10.5632 5.93835 9.86621C8.90893 4.01205 14.986 0.000244141 22 0.000244141H134.865V0.000320435C134.865 7.03781 140.29 12.7428 146.982 12.7428Z" fill="#EDEDED"/>
<line x1="145.866" y1="16.9641" x2="145.866" y2="24.2344" stroke="black"/>
<line x1="145.866" y1="27.4656" x2="145.866" y2="34.7358" stroke="black"/>
<line x1="145.866" y1="37.1592" x2="145.866" y2="44.4294" stroke="black"/>
<line x1="145.866" y1="47.6609" x2="145.866" y2="54.9312" stroke="black"/>
<line x1="145.866" y1="57.3545" x2="145.866" y2="64.6248" stroke="black"/>
<line x1="145.866" y1="67.8562" x2="145.866" y2="75.1265" stroke="black"/>
<line x1="145.866" y1="77.5498" x2="145.866" y2="84.8201" stroke="black"/>
<line x1="145.866" y1="88.0515" x2="145.866" y2="95.3218" stroke="black"/>
<line x1="145.866" y1="97.7446" x2="145.866" y2="105.015" stroke="black"/>
<line x1="145.866" y1="108.246" x2="145.866" y2="115.516" stroke="black"/>
</g>
<mask id="path-12-inside-1_42_609" fill="white">
<path fill-rule="evenodd" clip-rule="evenodd" d="M107.246 53.3965C107.246 55.6832 106.804 57.8898 105.982 59.9677C113.175 64.0413 117.848 70.6302 117.848 78.0652C117.848 90.4345 104.915 100.462 88.9601 100.462C84.9219 100.462 81.0772 99.8194 77.5868 98.6592C74.278 99.6826 70.6679 100.245 66.8883 100.245C50.9337 100.245 38 90.218 38 77.8488C38 70.1921 42.9558 63.4328 50.5162 59.3938C49.8337 57.485 49.4689 55.4738 49.4689 53.3965C49.4689 47.5566 52.3519 42.2388 57.0747 38.2518C55.1642 36.2511 54.4108 33.8787 55.4004 32.8909C55.6865 32.6048 56.0932 32.459 56.606 32.459C57.871 32.459 59.53 33.3317 60.9354 34.7353C61.1049 34.9048 61.2661 35.0774 61.4185 35.2521C66.1773 32.5772 72.0297 31 78.3572 31C84.0562 31 89.3698 32.2794 93.8462 34.488C95.192 33.23 96.7292 32.459 97.9199 32.459C98.4327 32.459 98.8394 32.6048 99.1255 32.8909C99.6095 33.3749 99.6905 34.2134 99.354 35.2481C99.1449 35.8906 98.7907 36.5598 98.3217 37.209C103.821 41.2865 107.246 47.0315 107.246 53.3965Z"/>
</mask>
<path fill-rule="evenodd" clip-rule="evenodd" d="M107.246 53.3965C107.246 55.6832 106.804 57.8898 105.982 59.9677C113.175 64.0413 117.848 70.6302 117.848 78.0652C117.848 90.4345 104.915 100.462 88.9601 100.462C84.9219 100.462 81.0772 99.8194 77.5868 98.6592C74.278 99.6826 70.6679 100.245 66.8883 100.245C50.9337 100.245 38 90.218 38 77.8488C38 70.1921 42.9558 63.4328 50.5162 59.3938C49.8337 57.485 49.4689 55.4738 49.4689 53.3965C49.4689 47.5566 52.3519 42.2388 57.0747 38.2518C55.1642 36.2511 54.4108 33.8787 55.4004 32.8909C55.6865 32.6048 56.0932 32.459 56.606 32.459C57.871 32.459 59.53 33.3317 60.9354 34.7353C61.1049 34.9048 61.2661 35.0774 61.4185 35.2521C66.1773 32.5772 72.0297 31 78.3572 31C84.0562 31 89.3698 32.2794 93.8462 34.488C95.192 33.23 96.7292 32.459 97.9199 32.459C98.4327 32.459 98.8394 32.6048 99.1255 32.8909C99.6095 33.3749 99.6905 34.2134 99.354 35.2481C99.1449 35.8906 98.7907 36.5598 98.3217 37.209C103.821 41.2865 107.246 47.0315 107.246 53.3965Z" fill="#EEF9FF"/>
<path d="M105.982 59.9677L104.587 59.4163L104.107 60.6299L105.243 61.273L105.982 59.9677ZM77.5868 98.6592L78.0599 97.2358L77.6033 97.084L77.1436 97.2262L77.5868 98.6592ZM50.5162 59.3938L51.2231 60.7168L52.3644 60.1071L51.9286 58.8887L50.5162 59.3938ZM57.0747 38.2518L58.0423 39.398L59.2609 38.3692L58.1595 37.2159L57.0747 38.2518ZM55.4004 32.8909L56.4601 33.9525L56.461 33.9515L55.4004 32.8909ZM60.9354 34.7353L61.996 33.6746L61.9953 33.6739L60.9354 34.7353ZM61.4185 35.2521L60.2883 36.2384L61.0902 37.1573L62.1535 36.5597L61.4185 35.2521ZM93.8462 34.488L93.1825 35.8332L94.1127 36.2922L94.8705 35.5838L93.8462 34.488ZM99.1255 32.8909L98.0648 33.9515V33.9515L99.1255 32.8909ZM99.354 35.2481L100.78 35.7122L100.78 35.712L99.354 35.2481ZM98.3217 37.209L97.1058 36.3306L96.2382 37.5315L97.4282 38.4139L98.3217 37.209ZM107.377 60.5191C108.265 58.2726 108.746 55.8794 108.746 53.3965H105.746C105.746 55.487 105.342 57.5069 104.587 59.4163L107.377 60.5191ZM119.348 78.0652C119.348 69.9529 114.252 62.9273 106.721 58.6625L105.243 61.273C112.099 65.1554 116.348 71.3075 116.348 78.0652H119.348ZM88.9601 101.962C105.366 101.962 119.348 91.5957 119.348 78.0652H116.348C116.348 89.2732 104.464 98.9618 88.9601 98.9618V101.962ZM77.1137 100.083C80.7589 101.294 84.7635 101.962 88.9601 101.962V98.9618C85.0804 98.9618 81.3956 98.3445 78.0599 97.2358L77.1137 100.083ZM66.8883 101.745C70.8164 101.745 74.576 101.161 78.03 100.092L77.1436 97.2262C73.9801 98.2046 70.5195 98.7453 66.8883 98.7453V101.745ZM36.5 77.8488C36.5 91.3793 50.4829 101.745 66.8883 101.745V98.7453C51.3846 98.7453 39.5 89.0568 39.5 77.8488H36.5ZM49.8094 58.0707C41.9036 62.2943 36.5 69.4934 36.5 77.8488H39.5C39.5 70.8908 44.008 64.5713 51.2231 60.7168L49.8094 58.0707ZM47.9689 53.3965C47.9689 55.6516 48.3652 57.8334 49.1038 59.8988L51.9286 58.8887C51.3021 57.1366 50.9689 55.296 50.9689 53.3965H47.9689ZM56.1071 37.1056C51.1148 41.3201 47.9689 47.0328 47.9689 53.3965H50.9689C50.9689 48.0805 53.589 43.1575 58.0423 39.398L56.1071 37.1056ZM58.1595 37.2159C57.3267 36.3438 56.8015 35.4441 56.5811 34.7423C56.3336 33.9539 56.5689 33.8438 56.4601 33.9525L54.3407 31.8293C53.2422 32.9257 53.3594 34.4958 53.7189 35.6408C54.1055 36.8723 54.9122 38.1592 55.9899 39.2877L58.1595 37.2159ZM56.461 33.9515C56.4513 33.9613 56.4407 33.9694 56.4314 33.9752C56.4224 33.9809 56.4188 33.9816 56.4241 33.9798C56.4355 33.9757 56.4898 33.959 56.606 33.959V30.959C55.8069 30.959 54.9772 31.1927 54.3397 31.8302L56.461 33.9515ZM56.606 33.959C57.2972 33.959 58.5954 34.5183 59.8754 35.7966L61.9953 33.6739C60.4646 32.1451 58.4447 30.959 56.606 30.959V33.959ZM59.8747 35.7959C60.0203 35.9415 60.1583 36.0894 60.2883 36.2384L62.5486 34.2658C62.3738 34.0655 62.1895 33.8681 61.996 33.6746L59.8747 35.7959ZM78.3572 29.5C71.784 29.5 65.6768 31.1378 60.6835 33.9445L62.1535 36.5597C66.6778 34.0166 72.2754 32.5 78.3572 32.5V29.5ZM94.5099 33.1428C89.82 30.8289 84.2784 29.5 78.3572 29.5V32.5C83.8341 32.5 88.9197 33.73 93.1825 35.8332L94.5099 33.1428ZM97.9199 30.959C96.1826 30.959 94.294 32.0161 92.8219 33.3922L94.8705 35.5838C96.0901 34.4438 97.2758 33.959 97.9199 33.959V30.959ZM100.186 31.8302C99.5486 31.1927 98.719 30.959 97.9199 30.959V33.959C98.0361 33.959 98.0904 33.9757 98.1018 33.9798C98.107 33.9816 98.1035 33.9809 98.0944 33.9752C98.0851 33.9694 98.0746 33.9613 98.0648 33.9515L100.186 31.8302ZM100.78 35.712C101.18 34.4848 101.273 32.9168 100.186 31.8302L98.0648 33.9515C98.0137 33.9004 98.0422 33.8816 98.0544 34.0076C98.0679 34.1469 98.0516 34.4027 97.9275 34.7842L100.78 35.712ZM99.5376 38.0874C100.079 37.3378 100.514 36.5305 100.78 35.7122L97.9276 34.784C97.7757 35.2507 97.5022 35.7818 97.1058 36.3306L99.5376 38.0874ZM108.746 53.3965C108.746 46.4573 105.008 40.2998 99.2151 36.0041L97.4282 38.4139C102.633 42.2732 105.746 47.6056 105.746 53.3965H108.746Z" fill="#2F749B" mask="url(#path-12-inside-1_42_609)"/>
<ellipse cx="58.8947" cy="36.2047" rx="0.753289" ry="2.25987" transform="rotate(-41.5254 58.8947 36.2047)" fill="#3C87BD"/>
<ellipse cx="95.7913" cy="36.2151" rx="0.753288" ry="2.25987" transform="rotate(40.8449 95.7913 36.2151)" fill="#3C87BD"/>
<path d="M64.6589 61.2036C64.6589 61.2036 66.5843 60.1275 68.8875 61.2036" stroke="black" stroke-miterlimit="10" stroke-linecap="round"/>
<path d="M67.0886 66.4223C67.6351 66.4223 68.0782 65.4153 68.0782 64.1731C68.0782 62.9309 67.6351 61.9238 67.0886 61.9238C66.542 61.9238 66.0989 62.9309 66.0989 64.1731C66.0989 65.4153 66.542 66.4223 67.0886 66.4223Z" fill="#57ACE9"/>
<path d="M83.7329 61.2031C83.7329 61.2031 85.6583 60.1271 87.9615 61.2031" stroke="black" stroke-miterlimit="10" stroke-linecap="round"/>
<path d="M86.1623 66.4214C86.7089 66.4214 87.152 65.4143 87.152 64.1721C87.152 62.9299 86.7089 61.9229 86.1623 61.9229C85.6157 61.9229 85.1726 62.9299 85.1726 64.1721C85.1726 65.4143 85.6157 66.4214 86.1623 66.4214Z" fill="#57ACE9"/>
<path d="M56.9219 61.0233C56.9219 61.0233 75.2758 50.7667 97.2286 61.0233" stroke="black" stroke-miterlimit="10" stroke-linecap="round"/>
<path d="M61.633 58.9361C60.683 57.3598 60.1611 55.3247 60.1611 53.1942C60.1611 48.4815 62.7037 44.647 65.8293 44.647C68.9548 44.647 71.4974 48.4815 71.4974 53.1942C71.4974 54.4375 71.3229 55.636 70.9792 56.7606C67.7654 57.1726 64.6219 57.905 61.633 58.9343V58.9361Z" fill="white"/>
<path d="M65.8289 44.739C68.9041 44.739 71.4071 48.5322 71.4071 53.1962C71.4071 54.409 71.2397 55.5823 70.9104 56.6817C67.7363 57.0938 64.6287 57.8153 61.6723 58.8284C60.7546 57.2737 60.2507 55.2818 60.2507 53.1962C60.2507 48.5322 62.7537 44.739 65.8289 44.739ZM65.8289 44.5591C62.6494 44.5591 60.0708 48.426 60.0708 53.1962C60.0708 55.4527 60.6484 57.5076 61.5931 59.0461C63.9881 58.2166 67.209 57.3331 71.0472 56.8454C71.3927 55.737 71.587 54.5008 71.587 53.1962C71.587 48.426 69.0085 44.5591 65.8289 44.5591Z" fill="black"/>
<path d="M70.9882 56.8851C71.2329 56.2139 71.3859 55.4599 71.4183 54.6574C71.5388 51.728 70.0129 49.288 68.012 49.2052C66.011 49.1242 64.2926 51.4311 64.1721 54.3605C64.1145 55.746 64.4276 57.0236 64.9836 57.9917C66.5113 57.5436 68.5608 57.0848 70.9864 56.8833L70.9882 56.8851Z" fill="black"/>
<path d="M68.888 52.296C69.3849 52.296 69.7877 51.8932 69.7877 51.3963C69.7877 50.8994 69.3849 50.4966 68.888 50.4966C68.3911 50.4966 67.9883 50.8994 67.9883 51.3963C67.9883 51.8932 68.3911 52.296 68.888 52.296Z" fill="white"/>
<path d="M93.0577 59.1162C90.0689 58.0851 86.9253 57.3545 83.7116 56.9425C83.3679 55.8178 83.1934 54.6176 83.1934 53.376C83.1934 48.6634 85.7359 44.8289 88.8615 44.8289C91.9871 44.8289 94.5296 48.6634 94.5296 53.376C94.5296 55.5047 94.0078 57.5399 93.0577 59.118V59.1162Z" fill="white"/>
<path d="M88.8611 44.919C91.9363 44.919 94.4393 48.7121 94.4393 53.3762C94.4393 55.4617 93.9355 57.4554 93.0178 59.0083C90.0613 57.9952 86.9556 57.2719 83.7796 56.8616C83.4503 55.7622 83.283 54.5908 83.283 53.3762C83.283 48.7121 85.7859 44.919 88.8611 44.919ZM88.8611 44.739C85.6816 44.739 83.103 48.6059 83.103 53.3762C83.103 54.6807 83.2974 55.9169 83.6428 57.0254C87.481 57.513 90.7037 58.3965 93.0969 59.226C94.0416 57.6875 94.6192 55.6326 94.6192 53.3762C94.6192 48.6059 92.0407 44.739 88.8611 44.739Z" fill="black"/>
<path d="M83.7024 57.065C83.4576 56.3938 83.3047 55.6399 83.2723 54.8373C83.1517 51.9079 84.6776 49.4679 86.6786 49.3851C88.6795 49.3042 90.398 51.611 90.5185 54.5404C90.5761 55.926 90.263 57.2035 89.707 58.1716C88.1793 57.7236 86.1298 57.2647 83.7042 57.0632L83.7024 57.065Z" fill="black"/>
<path d="M85.8023 52.4764C86.2992 52.4764 86.702 52.0736 86.702 51.5767C86.702 51.0798 86.2992 50.677 85.8023 50.677C85.3054 50.677 84.9026 51.0798 84.9026 51.5767C84.9026 52.0736 85.3054 52.4764 85.8023 52.4764Z" fill="white"/>
<path d="M61.988 82.3066C61.6409 82.1581 61.4662 82.0823 61.1191 81.9277C61.4481 79.7877 61.6114 78.7177 61.9403 76.5776C62.2715 76.6413 62.4394 76.6716 62.7706 76.7322C62.4575 78.9632 62.301 80.0787 61.988 82.3066Z" fill="black"/>
<path d="M57.682 80.2607C57.3417 80.0818 57.1716 79.9909 56.8313 79.809C57.2192 78.1267 57.412 77.2871 57.7999 75.6047C58.1311 75.6957 58.2967 75.7411 58.6256 75.826C58.2491 77.5993 58.0585 78.4874 57.682 80.2607Z" fill="black"/>
<path d="M68.3234 84.6131C67.5408 84.3767 67.1506 84.2524 66.3726 83.9887C66.5949 81.3091 66.706 79.9723 66.9261 77.2927C67.6588 77.3624 68.024 77.3897 68.7544 77.4322C68.582 80.3057 68.4958 81.7395 68.3211 84.6131H68.3234Z" fill="black"/>
<path d="M60.5994 81.6911C60.4611 81.6275 60.393 81.5972 60.2546 81.5305C60.5972 79.4814 60.7673 78.4568 61.1098 76.4077C61.2414 76.435 61.3095 76.4502 61.441 76.4774C61.1053 78.5629 60.9352 79.6056 60.5994 81.6911Z" fill="black"/>
<path d="M59.7378 81.2878C59.6698 81.2544 59.6335 81.2393 59.5654 81.2059C59.917 79.2296 60.094 78.2414 60.4479 76.2681C60.5136 76.2832 60.5477 76.2893 60.6134 76.3044C60.2641 78.299 60.0872 79.2962 59.7378 81.2878Z" fill="black"/>
<path d="M63.2081 82.8129C63.1378 82.7856 63.1038 82.7705 63.0334 82.7432C63.3261 80.4061 63.4735 79.2361 63.7684 76.896C63.8342 76.9051 63.8682 76.9112 63.934 76.9202C63.6437 79.2755 63.4985 80.4546 63.2081 82.8129Z" fill="black"/>
<path d="M62.6841 82.6004C62.5457 82.5428 62.4754 82.5125 62.3347 82.4549C62.641 80.1875 62.7952 79.0539 63.1014 76.7896C63.2353 76.8108 63.3011 76.8229 63.4326 76.8441C63.1332 79.1478 62.9812 80.2967 62.6818 82.6004H62.6841Z" fill="black"/>
<path d="M59.2229 81.0392C59.0845 80.9726 59.0165 80.9392 58.8804 80.8695C59.2433 78.9659 59.4248 78.0171 59.7855 76.1135C59.917 76.1438 59.9851 76.159 60.1167 76.1893C59.7583 78.1293 59.5813 79.0993 59.2229 81.0362V81.0392Z" fill="black"/>
<path d="M68.8563 84.7705C68.9992 84.813 69.0695 84.8311 69.2124 84.8736C69.3621 81.9151 69.437 80.4328 69.5844 77.4744C69.4506 77.4683 69.3848 77.4653 69.251 77.4592C69.0922 80.3843 69.0128 81.8454 68.854 84.7705H68.8563Z" fill="black"/>
<path d="M70.2856 85.1652C70.4286 85.2016 70.5011 85.2228 70.6441 85.2592C70.7529 82.1613 70.8074 80.6093 70.9163 77.5114C70.7824 77.5114 70.7166 77.5084 70.5851 77.5054C70.4649 80.5699 70.4059 82.1007 70.2879 85.1652H70.2856Z" fill="black"/>
<path d="M71.0022 85.3497C71.1451 85.3861 71.2177 85.4043 71.3606 85.4376C71.4491 82.27 71.4922 80.6847 71.5806 77.5171C71.4468 77.5171 71.381 77.5171 71.2495 77.5171C71.1519 80.6514 71.102 82.2185 71.0045 85.3497H71.0022Z" fill="black"/>
<path d="M73.1575 85.844C73.3027 85.8743 73.373 85.8894 73.5182 85.9167C73.5386 82.543 73.5476 80.8576 73.5681 77.4839C73.4365 77.4899 73.3684 77.49 73.2369 77.496C73.2051 80.8364 73.1892 82.5066 73.1575 85.844Z" fill="black"/>
<path d="M74.0605 86.0226C74.1331 86.0378 74.1694 86.0438 74.242 86.0559C74.2398 83.1884 74.2352 80.3209 74.233 77.4534C74.1672 77.4564 74.1331 77.4594 74.0674 77.4625C74.0674 80.3148 74.0628 83.1702 74.0605 86.0226Z" fill="black"/>
<path d="M74.6026 86.1259C74.7478 86.1532 74.8204 86.1653 74.9633 86.1896C74.9406 83.2644 74.9156 80.3424 74.893 77.4172C74.7614 77.4263 74.6933 77.4294 74.5618 77.4354C74.5754 80.3302 74.589 83.2281 74.6003 86.1229L74.6026 86.1259Z" fill="black"/>
<path d="M75.326 86.2532C75.4711 86.2774 75.5437 86.2896 75.6889 86.3138C75.6435 83.3341 75.6004 80.3544 75.5551 77.3748C75.4235 77.3838 75.3577 77.3899 75.2239 77.399C75.2579 80.3514 75.2919 83.3038 75.326 86.2562V86.2532Z" fill="black"/>
<path d="M78.2295 86.6651C78.0844 86.6469 78.0118 86.6408 77.8666 86.6226C77.7554 83.4762 77.6466 80.3298 77.5354 77.1835C77.667 77.1683 77.7328 77.1592 77.8643 77.144C77.9868 80.3177 78.1093 83.4914 78.2295 86.6651Z" fill="black"/>
<path d="M77.3201 86.5533C77.2475 86.5442 77.2112 86.5381 77.1386 86.529C77.0502 83.4372 76.9617 80.3454 76.8755 77.2535C76.9413 77.2475 76.9753 77.2444 77.0411 77.2354C77.1341 80.3393 77.2271 83.4463 77.3224 86.5503L77.3201 86.5533Z" fill="black"/>
<path d="M76.0498 86.3713C75.9046 86.3501 75.832 86.338 75.6868 86.3137C75.6415 83.3341 75.5983 80.3544 75.553 77.3747C75.6845 77.3656 75.7503 77.3595 75.8842 77.3474C75.9386 80.3544 75.9953 83.3644 76.0498 86.3713Z" fill="black"/>
<path d="M65.8418 83.804C65.7012 83.7555 65.6309 83.7282 65.4902 83.6797C65.733 81.0911 65.8532 79.7968 66.0959 77.2051C66.2297 77.2202 66.2955 77.2263 66.4294 77.2415C66.1957 79.8665 66.0778 81.179 65.8441 83.804H65.8418Z" fill="black"/>
<path d="M64.9618 83.4884C64.8915 83.4611 64.8552 83.449 64.7849 83.4247C65.0435 80.9058 65.1705 79.6478 65.4291 77.1289C65.4949 77.138 65.529 77.141 65.5947 77.1501C65.3407 79.6873 65.2136 80.9543 64.9596 83.4884H64.9618Z" fill="black"/>
<path d="M64.4329 83.2916C64.2923 83.2371 64.2219 83.2128 64.0813 83.1582C64.3535 80.7121 64.4896 79.4874 64.7641 77.0413C64.8979 77.0594 64.9637 77.0685 65.0976 77.0867C64.8321 79.5693 64.7006 80.8091 64.4352 83.2916H64.4329Z" fill="black"/>
<path d="M84.0663 87.0382C83.6988 87.0352 83.5174 87.0291 83.1499 87.02C82.8595 83.4826 82.5692 79.9482 82.2788 76.4108C82.6055 76.3411 82.7665 76.3047 83.0932 76.2319C83.4176 79.833 83.7419 83.4371 84.0641 87.0382H84.0663Z" fill="black"/>
<path d="M79.4955 86.7987C79.1303 86.7653 78.9488 86.7471 78.5836 86.7077C78.4497 83.5068 78.3159 80.3058 78.1843 77.1048C78.5132 77.0624 78.6788 77.0412 79.0055 76.9927C79.1688 80.2603 79.3322 83.531 79.4955 86.7987Z" fill="black"/>
<path d="M89.6605 86.8233C89.2567 86.8597 89.0548 86.8748 88.6511 86.9021C88.1452 82.9797 87.6393 79.0573 87.1357 75.138C87.4896 75.0258 87.6643 74.9712 88.0182 74.853C88.5671 78.8421 89.1138 82.8342 89.6628 86.8233H89.6605Z" fill="black"/>
<path d="M82.6008 87.002C82.4534 86.996 82.3808 86.9929 82.2356 86.9869C81.9793 83.5161 81.7207 80.0454 81.4644 76.5746C81.5959 76.5504 81.6594 76.5352 81.791 76.511C82.061 80.009 82.3309 83.504 82.6008 87.002Z" fill="black"/>
<path d="M81.6867 86.9597C81.6141 86.9566 81.5778 86.9536 81.503 86.9506C81.2716 83.5344 81.0402 80.1152 80.8088 76.699C80.8746 76.6869 80.9064 76.6808 80.9722 76.6687C81.2104 80.1 81.4485 83.5283 81.6845 86.9597H81.6867Z" fill="black"/>
<path d="M85.3482 87.0383C85.2757 87.0383 85.2394 87.0383 85.1645 87.0383C84.7993 83.3584 84.4341 79.6785 84.0688 75.9986C84.1346 75.9835 84.1664 75.9744 84.2299 75.9592C84.6019 79.6512 84.9762 83.3463 85.3482 87.0383Z" fill="black"/>
<path d="M84.799 87.041C84.6515 87.041 84.5789 87.041 84.4315 87.041C84.0935 83.4127 83.7555 79.7843 83.4175 76.156C83.5468 76.1257 83.6126 76.1105 83.7419 76.0771C84.0935 79.7328 84.4451 83.3854 84.7967 87.041H84.799Z" fill="black"/>
<path d="M81.1377 86.9292C80.9926 86.9201 80.9177 86.9141 80.7725 86.905C80.5661 83.5403 80.3597 80.1787 80.1555 76.8141C80.2871 76.7929 80.3529 76.7807 80.4822 76.7595C80.6999 80.1484 80.92 83.5403 81.1377 86.9292Z" fill="black"/>
<path d="M80.4074 86.8775C80.2623 86.8653 80.1874 86.8593 80.0422 86.8472C79.8608 83.5371 79.6793 80.227 79.4978 76.9199C79.6294 76.8987 79.6952 76.8896 79.8267 76.8684C80.0195 80.2058 80.2146 83.5401 80.4074 86.8775Z" fill="black"/>
<path d="M94.3404 86.2163C94.7078 86.1527 94.8893 86.1194 95.2568 86.0527C94.456 81.6968 93.653 77.341 92.8523 72.9851C92.5392 73.1245 92.3827 73.1912 92.0674 73.3246C92.825 77.6229 93.585 81.9211 94.3426 86.2163H94.3404Z" fill="black"/>
<path d="M92.1399 86.5535C92.2125 86.5444 92.2511 86.5384 92.3236 86.5293C91.659 82.3614 90.9943 78.1965 90.3297 74.0286C90.2662 74.0528 90.2344 74.0649 90.1709 74.0892C90.8265 78.245 91.4843 82.3977 92.1399 86.5535Z" fill="black"/>
<path d="M89.9894 86.7959C90.062 86.7898 90.1006 86.7868 90.1731 86.7777C89.6038 82.7522 89.0344 78.7298 88.4627 74.7043C88.3992 74.7256 88.3675 74.7377 88.304 74.7589C88.8665 78.7722 89.4291 82.7825 89.9894 86.7959Z" fill="black"/>
<path d="M90.7059 86.7229C90.7785 86.7139 90.8171 86.7108 90.8897 86.7017C90.2885 82.6278 89.6874 78.5569 89.0863 74.4829C89.0228 74.5041 88.991 74.5163 88.9275 74.5405C89.5196 78.5993 90.1139 82.6611 90.7059 86.7199V86.7229Z" fill="black"/>
<path d="M92.689 86.4771C92.8364 86.4559 92.909 86.4468 93.0564 86.4226C92.3578 82.2062 91.6591 77.9928 90.9604 73.7764C90.8334 73.8279 90.7699 73.8521 90.6428 73.9006C91.3234 78.0928 92.0061 82.282 92.6867 86.4741L92.689 86.4771Z" fill="black"/>
<path d="M93.4235 86.3684C93.571 86.3441 93.6436 86.3351 93.791 86.3108C93.0583 82.0489 92.3256 77.787 91.5929 73.5251C91.4659 73.5767 91.4046 73.604 91.2776 73.6555C91.9921 77.8931 92.709 82.1338 93.4235 86.3714V86.3684Z" fill="black"/>
<path d="M95.6218 85.9834C95.7693 85.9561 95.8419 85.9409 95.987 85.9106C95.15 81.5093 94.3129 77.1049 93.4759 72.7036C93.3511 72.7612 93.2876 72.7885 93.1628 72.8461C93.9817 77.2262 94.8029 81.6033 95.6218 85.9834Z" fill="black"/>
<path d="M96.5384 85.7954C96.611 85.7802 96.6473 85.7712 96.7221 85.756C95.8488 81.3092 94.9754 76.8594 94.1021 72.4126C94.0408 72.4429 94.0091 72.4581 93.9456 72.4853C94.8098 76.923 95.6741 81.3577 96.5384 85.7954Z" fill="black"/>
<path d="M97.0871 85.6769C97.2345 85.6435 97.3071 85.6284 97.4523 85.595C96.5427 81.1028 95.633 76.6075 94.7234 72.1152C94.5986 72.1759 94.5374 72.2062 94.4126 72.2668C95.3041 76.7378 96.1956 81.2089 97.0871 85.6799V85.6769Z" fill="black"/>
<path d="M100.737 84.7437C100.592 84.7861 100.52 84.8074 100.372 84.8468C99.3104 80.1757 98.2511 75.5076 97.1895 70.8365C97.3119 70.7698 97.3732 70.7365 97.4957 70.6667C98.5755 75.3591 99.6552 80.0483 100.735 84.7407L100.737 84.7437Z" fill="black"/>
<path d="M99.8253 85.0012C99.7527 85.0224 99.7164 85.0315 99.6438 85.0497C98.6208 80.424 97.6 75.7954 96.5769 71.1697C96.6382 71.1364 96.6699 71.1212 96.7312 71.0879C97.7633 75.7256 98.7954 80.3634 99.8276 85.0012H99.8253Z" fill="black"/>
<path d="M99.2787 85.147C99.1335 85.1864 99.0586 85.2046 98.9135 85.2409C97.929 80.6577 96.9445 76.0746 95.96 71.4944C96.0825 71.4307 96.146 71.3974 96.2685 71.3337C97.2711 75.9382 98.2738 80.5426 99.2787 85.147Z" fill="black"/>
<path d="M88.0999 86.941C87.9525 86.9501 87.8799 86.9532 87.7325 86.9623C87.2652 83.1035 86.7979 79.2448 86.3306 75.3861C86.4599 75.3467 86.5234 75.3285 86.6527 75.2891C87.1359 79.172 87.6168 83.0581 88.0999 86.941Z" fill="black"/>
<path d="M87.183 86.9866C87.1104 86.9897 87.0718 86.9927 86.9992 86.9957C86.5614 83.1885 86.1236 79.3783 85.6858 75.5711C85.7493 75.5529 85.7833 75.5438 85.8469 75.5256C86.2915 79.348 86.7361 83.1673 87.183 86.9897V86.9866Z" fill="black"/>
<path d="M86.6322 87.0075C86.4848 87.0136 86.4122 87.0136 86.2647 87.0197C85.8564 83.261 85.4481 79.5053 85.0398 75.7466C85.1691 75.7133 85.2349 75.6951 85.3619 75.6587C85.7838 79.4416 86.208 83.2246 86.63 87.0075H86.6322Z" fill="black"/>
<path d="M157.04 60.7727C157.04 60.479 157.19 60.3356 157.497 60.3356H160.776V58.4574C160.776 58.15 160.926 57.9998 161.233 57.9998H164.252C164.559 57.9998 164.71 58.15 164.71 58.4574V60.3356H167.988C168.295 60.3356 168.446 60.479 168.446 60.7727V63.1358C168.446 63.4295 168.295 63.5729 167.988 63.5729H157.497C157.19 63.5729 157.04 63.4295 157.04 63.1358V60.7727ZM168.009 71.1541C168.009 72.1171 167.879 72.9366 167.626 73.6128C167.373 74.289 167.011 74.8422 166.547 75.2656C166.083 75.6891 165.522 75.9964 164.874 76.1945C164.225 76.3926 163.508 76.4882 162.722 76.4882C161.937 76.4882 161.22 76.3926 160.578 76.1945C159.936 75.9964 159.389 75.6891 158.925 75.2656C158.467 74.8422 158.105 74.2958 157.853 73.6128C157.6 72.9298 157.47 72.1171 157.47 71.1541V69.6037C157.47 68.6407 157.6 67.8211 157.853 67.1449C158.105 66.4688 158.467 65.9156 158.932 65.4921C159.396 65.0687 159.956 64.7613 160.605 64.5632C161.254 64.3652 161.971 64.2696 162.756 64.2696C163.542 64.2696 164.259 64.3652 164.901 64.5632C165.543 64.7613 166.089 65.0687 166.554 65.4921C167.011 65.9156 167.367 66.4619 167.626 67.1449C167.879 67.8211 168.009 68.6407 168.009 69.6037V71.1541ZM164.163 69.6037C164.163 68.948 164.061 68.4358 163.856 68.0601C163.651 67.6845 163.289 67.5001 162.763 67.5001C162.237 67.5001 161.848 67.6845 161.636 68.0601C161.425 68.4358 161.322 68.948 161.322 69.6037V71.1541C161.322 71.8097 161.425 72.322 161.629 72.6976C161.834 73.0664 162.196 73.2577 162.722 73.2577C163.248 73.2577 163.637 73.0732 163.849 72.6976C164.061 72.3288 164.163 71.8097 164.163 71.1541V69.6037ZM170.194 76.5974C169.887 76.5974 169.736 76.454 169.736 76.1603V59.2223C169.736 58.915 169.887 58.7647 170.194 58.7647H173.322C173.63 58.7647 173.78 58.915 173.78 59.2223V65.2531H174.914C175.207 65.2531 175.351 65.4033 175.351 65.7107V68.6202C175.351 68.9139 175.207 69.0573 174.914 69.0573H173.78V76.1603C173.78 76.454 173.63 76.5974 173.322 76.5974H170.194Z" fill="#3C87BD"/>
<path d="M176.778 62.4394C176.484 62.4394 176.341 62.2959 176.341 62.0022V59.6664C176.341 59.3591 176.484 59.2088 176.778 59.2088H187.05C187.358 59.2088 187.508 59.3523 187.508 59.6459V75.8395C187.508 76.1332 187.358 76.2766 187.05 76.2766H177.017C176.71 76.2766 176.56 76.1332 176.56 75.8395V63.5321C176.56 63.2384 176.71 63.095 177.017 63.095H180.118C180.425 63.095 180.576 63.2384 180.576 63.5321V73.0393H183.485V62.4394H176.778ZM189.495 76.6045C189.188 76.6045 189.038 76.461 189.038 76.1674V59.2225C189.038 58.9151 189.188 58.7649 189.495 58.7649H192.623C192.931 58.7649 193.081 58.9151 193.081 59.2225V65.2533H194.215C194.508 65.2533 194.652 65.4035 194.652 65.7109V68.6204C194.652 68.9141 194.508 69.0575 194.215 69.0575H193.081V76.1605C193.081 76.4542 192.931 76.5976 192.623 76.5976H189.495V76.6045Z" fill="#3C87BD"/>
<path d="M195.635 60.7727C195.635 60.479 195.786 60.3356 196.093 60.3356H199.371V58.4574C199.371 58.15 199.522 57.9998 199.829 57.9998H202.848C203.155 57.9998 203.305 58.15 203.305 58.4574V60.3356H206.584C206.891 60.3356 207.041 60.479 207.041 60.7727V63.1358C207.041 63.4295 206.891 63.5729 206.584 63.5729H196.093C195.786 63.5729 195.635 63.4295 195.635 63.1358V60.7727ZM206.604 71.1541C206.604 72.1171 206.474 72.9366 206.222 73.6128C205.969 74.289 205.607 74.8422 205.143 75.2656C204.678 75.6891 204.118 75.9964 203.469 76.1945C202.821 76.3926 202.103 76.4882 201.318 76.4882C200.533 76.4882 199.815 76.3926 199.173 76.1945C198.531 75.9964 197.985 75.6891 197.521 75.2656C197.063 74.8422 196.701 74.2958 196.448 73.6128C196.196 72.9298 196.066 72.1171 196.066 71.1541V69.6037C196.066 68.6407 196.196 67.8211 196.448 67.1449C196.701 66.4688 197.063 65.9156 197.527 65.4921C197.992 65.0687 198.552 64.7613 199.201 64.5632C199.85 64.3652 200.567 64.2696 201.352 64.2696C202.138 64.2696 202.855 64.3652 203.497 64.5632C204.139 64.7613 204.685 65.0687 205.149 65.4921C205.607 65.9156 205.962 66.4619 206.222 67.1449C206.474 67.8211 206.604 68.6407 206.604 69.6037V71.1541ZM202.759 69.6037C202.759 68.948 202.657 68.4358 202.452 68.0601C202.247 67.6845 201.885 67.5001 201.359 67.5001C200.833 67.5001 200.444 67.6845 200.232 68.0601C200.02 68.4358 199.918 68.948 199.918 69.6037V71.1541C199.918 71.8097 200.02 72.322 200.225 72.6976C200.43 73.0664 200.792 73.2577 201.318 73.2577C201.844 73.2577 202.233 73.0732 202.445 72.6976C202.657 72.3288 202.759 71.8097 202.759 71.1541V69.6037ZM208.79 76.5974C208.482 76.5974 208.332 76.454 208.332 76.1603V59.2223C208.332 58.915 208.482 58.7647 208.79 58.7647H211.918C212.225 58.7647 212.375 58.915 212.375 59.2223V65.2531H213.509C213.803 65.2531 213.946 65.4033 213.946 65.7107V68.6202C213.946 68.9139 213.803 69.0573 213.509 69.0573H212.375V76.1603C212.375 76.454 212.225 76.5974 211.918 76.5974H208.79Z" fill="#3C87BD"/>
<path d="M215.374 62.4394C215.08 62.4394 214.937 62.2959 214.937 62.0022V59.6664C214.937 59.3591 215.08 59.2088 215.374 59.2088H225.646C225.953 59.2088 226.103 59.3523 226.103 59.6459V75.8395C226.103 76.1332 225.953 76.2766 225.646 76.2766H215.613C215.305 76.2766 215.155 76.1332 215.155 75.8395V63.5321C215.155 63.2384 215.305 63.095 215.613 63.095H218.713C219.021 63.095 219.171 63.2384 219.171 63.5321V73.0393H222.081V62.4394H215.374ZM228.091 76.6045C227.783 76.6045 227.633 76.461 227.633 76.1674V59.2225C227.633 58.9151 227.783 58.7649 228.091 58.7649H231.219C231.526 58.7649 231.676 58.9151 231.676 59.2225V65.2533H232.81C233.104 65.2533 233.247 65.4035 233.247 65.7109V68.6204C233.247 68.9141 233.104 69.0575 232.81 69.0575H231.676V76.1605C231.676 76.4542 231.526 76.5976 231.219 76.5976H228.091V76.6045Z" fill="#3C87BD"/>
<defs>
<filter id="filter0_d_42_609" x="0" y="0.000244141" width="243.88" height="139.673" filterUnits="userSpaceOnUse" color-interpolation-filters="sRGB">
<feFlood flood-opacity="0" result="BackgroundImageFix"/>
<feColorMatrix in="SourceAlpha" type="matrix" values="0 0 0 0 0 0 0 0 0 0 0 0 0 0 0 0 0 0 127 0" result="hardAlpha"/>
<feOffset dy="4"/>
<feGaussianBlur stdDeviation="2"/>
<feComposite in2="hardAlpha" operator="out"/>
<feColorMatrix type="matrix" values="0 0 0 0 0 0 0 0 0 0 0 0 0 0 0 0 0 0 0.25 0"/>
<feBlend mode="normal" in2="BackgroundImageFix" result="effect1_dropShadow_42_609"/>
<feBlend mode="normal" in="SourceGraphic" in2="effect1_dropShadow_42_609" result="shape"/>
</filter>
</defs>
</svg>
