<svg width="58" height="51" viewBox="0 0 58 51" fill="none" xmlns="http://www.w3.org/2000/svg">
<mask id="path-1-inside-1_258_27291" fill="white">
<path fill-rule="evenodd" clip-rule="evenodd" d="M50.2985 16.2683C50.2985 17.9293 49.9774 19.5321 49.3808 21.0415C54.6057 24.0005 58.0001 28.7864 58.0001 34.187C58.0001 43.1717 48.6053 50.4553 37.0163 50.4553C34.0831 50.4553 31.2904 49.9887 28.755 49.146C26.3516 49.8893 23.7292 50.2981 20.9838 50.2981C9.39475 50.2981 0 43.0145 0 34.0298C0 28.4681 3.59987 23.5583 9.0917 20.6244C8.59592 19.238 8.33098 17.7771 8.33098 16.2683C8.33098 12.0264 10.4251 8.16361 13.8556 5.26755C12.4678 3.8143 11.9204 2.09092 12.6393 1.37334C12.8471 1.16552 13.1425 1.05965 13.515 1.05965C14.4338 1.05965 15.6389 1.69356 16.6597 2.71306C16.7829 2.83626 16.9001 2.96173 17.0108 3.08865C20.4675 1.14563 24.7186 0 29.3147 0C33.4543 0 37.3139 0.929318 40.5654 2.53353C41.543 1.61968 42.6596 1.05965 43.5245 1.05965C43.897 1.05965 44.1924 1.16552 44.4002 1.37334C44.7518 1.72493 44.8106 2.33402 44.5662 3.08557C44.4144 3.55231 44.157 4.03839 43.8163 4.50999C47.8107 7.47182 50.2985 11.6448 50.2985 16.2683Z"/>
</mask>
<path fill-rule="evenodd" clip-rule="evenodd" d="M50.2985 16.2683C50.2985 17.9293 49.9774 19.5321 49.3808 21.0415C54.6057 24.0005 58.0001 28.7864 58.0001 34.187C58.0001 43.1717 48.6053 50.4553 37.0163 50.4553C34.0831 50.4553 31.2904 49.9887 28.755 49.146C26.3516 49.8893 23.7292 50.2981 20.9838 50.2981C9.39475 50.2981 0 43.0145 0 34.0298C0 28.4681 3.59987 23.5583 9.0917 20.6244C8.59592 19.238 8.33098 17.7771 8.33098 16.2683C8.33098 12.0264 10.4251 8.16361 13.8556 5.26755C12.4678 3.8143 11.9204 2.09092 12.6393 1.37334C12.8471 1.16552 13.1425 1.05965 13.515 1.05965C14.4338 1.05965 15.6389 1.69356 16.6597 2.71306C16.7829 2.83626 16.9001 2.96173 17.0108 3.08865C20.4675 1.14563 24.7186 0 29.3147 0C33.4543 0 37.3139 0.929318 40.5654 2.53353C41.543 1.61968 42.6596 1.05965 43.5245 1.05965C43.897 1.05965 44.1924 1.16552 44.4002 1.37334C44.7518 1.72493 44.8106 2.33402 44.5662 3.08557C44.4144 3.55231 44.157 4.03839 43.8163 4.50999C47.8107 7.47182 50.2985 11.6448 50.2985 16.2683Z" fill="#EEF9FF"/>
<path d="M49.3808 21.0415L47.9858 20.4901L47.5061 21.7037L48.6416 22.3467L49.3808 21.0415ZM28.755 49.146L29.2281 47.7226L28.7715 47.5708L28.3118 47.713L28.755 49.146ZM9.0917 20.6244L9.7985 21.9475L10.9398 21.3377L10.5041 20.1193L9.0917 20.6244ZM13.8556 5.26755L14.8232 6.41373L16.0419 5.38495L14.9404 4.23159L13.8556 5.26755ZM12.6393 1.37334L13.699 2.43494L13.6999 2.434L12.6393 1.37334ZM16.6597 2.71306L17.7204 1.6524L17.7197 1.65172L16.6597 2.71306ZM17.0108 3.08865L15.8806 4.07488L16.6826 4.99389L17.7458 4.39623L17.0108 3.08865ZM40.5654 2.53353L39.9017 3.87872L40.832 4.33768L41.5897 3.62933L40.5654 2.53353ZM44.4002 1.37334L45.4609 0.31268L45.4609 0.312675L44.4002 1.37334ZM44.5662 3.08557L45.9926 3.54969L45.9927 3.54947L44.5662 3.08557ZM43.8163 4.50999L42.6004 3.63159L41.7329 4.83248L42.9229 5.71489L43.8163 4.50999ZM50.7758 21.5929C51.439 19.915 51.7985 18.1255 51.7985 16.2683H48.7985C48.7985 17.7331 48.5159 19.1492 47.9858 20.4901L50.7758 21.5929ZM59.5001 34.187C59.5001 28.1092 55.6825 22.8864 50.12 19.7363L48.6416 22.3467C53.529 25.1145 56.5001 29.4637 56.5001 34.187H59.5001ZM37.0163 51.9553C49.0562 51.9553 59.5001 44.333 59.5001 34.187H56.5001C56.5001 42.0105 48.1545 48.9553 37.0163 48.9553V51.9553ZM28.2819 50.5694C30.972 51.4636 33.9246 51.9553 37.0163 51.9553V48.9553C34.2415 48.9553 31.6087 48.5138 29.2281 47.7226L28.2819 50.5694ZM20.9838 51.7981C23.8777 51.7981 26.6495 51.3673 29.1982 50.579L28.3118 47.713C26.0537 48.4114 23.5808 48.7981 20.9838 48.7981V51.7981ZM-1.5 34.0298C-1.5 44.1758 8.94391 51.7981 20.9838 51.7981V48.7981C9.84559 48.7981 1.5 41.8533 1.5 34.0298H-1.5ZM8.3849 19.3014C2.54769 22.4198 -1.5 27.7694 -1.5 34.0298H1.5C1.5 29.1669 4.65205 24.6968 9.7985 21.9475L8.3849 19.3014ZM6.83098 16.2683C6.83098 17.9549 7.12749 19.5864 7.67929 21.1295L10.5041 20.1193C10.0643 18.8896 9.83098 17.5993 9.83098 16.2683H6.83098ZM12.888 4.12138C9.18804 7.24492 6.83098 11.5025 6.83098 16.2683H9.83098C9.83098 12.5502 11.6622 9.08231 14.8232 6.41373L12.888 4.12138ZM14.9404 4.23159C14.369 3.63321 14.0259 3.03261 13.8886 2.59526C13.7241 2.07133 13.9432 2.19116 13.699 2.43493L11.5796 0.31174C10.6165 1.2731 10.7499 2.6134 11.0263 3.49388C11.3299 4.46093 11.9544 5.44864 12.7708 6.30352L14.9404 4.23159ZM13.6999 2.434C13.6374 2.4965 13.5702 2.53316 13.5213 2.55067C13.4775 2.56634 13.4689 2.55965 13.515 2.55965V-0.440354C12.8562 -0.440354 12.1379 -0.246564 11.5786 0.312678L13.6999 2.434ZM13.515 2.55965C13.8601 2.55965 14.7044 2.88015 15.5998 3.7744L17.7197 1.65172C16.5735 0.506978 15.0076 -0.440354 13.515 -0.440354V2.55965ZM15.5991 3.77372C15.6983 3.87298 15.7923 3.97362 15.8806 4.07488L18.141 2.10242C18.0079 1.94983 17.8676 1.79955 17.7204 1.6524L15.5991 3.77372ZM29.3147 -1.5C24.4729 -1.5 19.967 -0.293762 16.2758 1.78106L17.7458 4.39623C20.9681 2.58502 24.9642 1.5 29.3147 1.5V-1.5ZM41.2291 1.18835C37.7641 -0.521212 33.6765 -1.5 29.3147 -1.5V1.5C33.2322 1.5 36.8638 2.37985 39.9017 3.87872L41.2291 1.18835ZM43.5245 -0.440354C42.113 -0.440354 40.645 0.405861 39.5411 1.43774L41.5897 3.62933C42.4411 2.8335 43.2062 2.55965 43.5245 2.55965V-0.440354ZM45.4609 0.312675C44.9016 -0.246566 44.1833 -0.440354 43.5245 -0.440354V2.55965C43.5706 2.55965 43.562 2.56634 43.5182 2.55067C43.4693 2.53316 43.4021 2.4965 43.3396 2.434L45.4609 0.312675ZM45.9927 3.54947C46.2997 2.60541 46.4151 1.26688 45.4609 0.31268L43.3396 2.43399C43.2863 2.38072 43.2517 2.32434 43.232 2.27875C43.2133 2.23551 43.2127 2.21318 43.2137 2.22406C43.2148 2.23558 43.2168 2.27421 43.2071 2.34414C43.1974 2.41366 43.1773 2.50614 43.1398 2.62166L45.9927 3.54947ZM45.0322 5.3884C45.4455 4.81638 45.7835 4.19222 45.9926 3.54969L43.1398 2.62144C43.0452 2.9124 42.8686 3.26041 42.6004 3.63159L45.0322 5.3884ZM51.7985 16.2683C51.7985 11.0707 48.9984 6.48511 44.7098 3.30509L42.9229 5.71489C46.623 8.45853 48.7985 12.219 48.7985 16.2683H51.7985Z" fill="#2F749B" mask="url(#path-1-inside-1_258_27291)"/>
<ellipse cx="15.1776" cy="26.4768" rx="0.547171" ry="1.64151" transform="rotate(-41.5254 15.1776 26.4768)" fill="#3C87BD"/>
<ellipse cx="41.9785" cy="25.7874" rx="0.54717" ry="1.64151" transform="rotate(40.8449 41.9785 25.7874)" fill="#3C87BD"/>
<path d="M19.3643 22.05C19.3643 22.05 20.7628 21.2684 22.4358 22.05" stroke="black" stroke-miterlimit="10" stroke-linecap="round"/>
<path d="M21.129 25.8409C21.5261 25.8409 21.8479 25.1094 21.8479 24.207C21.8479 23.3047 21.5261 22.5732 21.129 22.5732C20.732 22.5732 20.4102 23.3047 20.4102 24.207C20.4102 25.1094 20.732 25.8409 21.129 25.8409Z" fill="#57ACE9"/>
<path d="M33.2188 22.0497C33.2188 22.0497 34.6173 21.268 36.2903 22.0497" stroke="black" stroke-miterlimit="10" stroke-linecap="round"/>
<path d="M34.984 25.84C35.381 25.84 35.7029 25.1085 35.7029 24.2062C35.7029 23.3039 35.381 22.5724 34.984 22.5724C34.587 22.5724 34.2651 23.3039 34.2651 24.2062C34.2651 25.1085 34.587 25.84 34.984 25.84Z" fill="#57ACE9"/>
<path d="M13.7441 21.919C13.7441 21.919 27.076 14.4688 43.022 21.919" stroke="black" stroke-miterlimit="10" stroke-linecap="round"/>
<path d="M17.1668 20.4029C16.4767 19.258 16.0977 17.7797 16.0977 16.2321C16.0977 12.809 17.9445 10.0237 20.2149 10.0237C22.4852 10.0237 24.332 12.809 24.332 16.2321C24.332 17.1353 24.2053 18.0058 23.9556 18.8227C21.6212 19.122 19.3378 19.654 17.1668 20.4016V20.4029Z" fill="white"/>
<path d="M20.2138 10.0904C22.4475 10.0904 24.2656 12.8457 24.2656 16.2335C24.2656 17.1145 24.1441 17.9667 23.9049 18.7653C21.5993 19.0646 19.342 19.5887 17.1945 20.3246C16.5279 19.1953 16.162 17.7484 16.162 16.2335C16.162 12.8457 17.9801 10.0904 20.2138 10.0904ZM20.2138 9.95972C17.9042 9.95972 16.0312 12.7686 16.0312 16.2335C16.0312 17.8726 16.4508 19.3652 17.137 20.4827C18.8767 19.8802 21.2163 19.2384 24.0042 18.8842C24.2552 18.0791 24.3963 17.1811 24.3963 16.2335C24.3963 12.7686 22.5233 9.95972 20.2138 9.95972Z" fill="black"/>
<path d="M23.9614 18.913C24.1391 18.4255 24.2502 17.8778 24.2738 17.2949C24.3613 15.167 23.253 13.3946 21.7995 13.3345C20.3461 13.2757 19.0979 14.9513 19.0103 17.0792C18.9685 18.0856 19.1959 19.0136 19.5998 19.7168C20.7094 19.3914 22.1982 19.0581 23.9601 18.9117L23.9614 18.913Z" fill="black"/>
<path d="M22.4362 15.5799C22.7972 15.5799 23.0898 15.2873 23.0898 14.9264C23.0898 14.5654 22.7972 14.2728 22.4362 14.2728C22.0753 14.2728 21.7827 14.5654 21.7827 14.9264C21.7827 15.2873 22.0753 15.5799 22.4362 15.5799Z" fill="white"/>
<path d="M39.9924 20.5336C37.8214 19.7846 35.538 19.254 33.2036 18.9547C32.9539 18.1378 32.8271 17.266 32.8271 16.3641C32.8271 12.941 34.674 10.1556 36.9443 10.1556C39.2147 10.1556 41.0615 12.941 41.0615 16.3641C41.0615 17.9103 40.6825 19.3886 39.9924 20.5349V20.5336Z" fill="white"/>
<path d="M36.9443 10.221C39.178 10.221 40.9961 12.9763 40.9961 16.3642C40.9961 17.879 40.6301 19.3272 39.9635 20.4552C37.8161 19.7193 35.5601 19.1939 33.2532 18.8959C33.014 18.0973 32.8924 17.2464 32.8924 16.3642C32.8924 12.9763 34.7105 10.221 36.9443 10.221ZM36.9443 10.0903C34.6347 10.0903 32.7617 12.8992 32.7617 16.3642C32.7617 17.3118 32.9029 18.2097 33.1538 19.0148C35.9418 19.3691 38.2827 20.0108 40.0211 20.6134C40.7073 19.4958 41.1268 18.0032 41.1268 16.3642C41.1268 12.8992 39.2538 10.0903 36.9443 10.0903Z" fill="black"/>
<path d="M33.1966 19.0436C33.0189 18.5561 32.9078 18.0084 32.8842 17.4255C32.7967 15.2976 33.905 13.5252 35.3585 13.4651C36.8119 13.4063 38.0601 15.0819 38.1477 17.2098C38.1895 18.2162 37.9621 19.1442 37.5582 19.8474C36.4486 19.522 34.9598 19.1887 33.1979 19.0423L33.1966 19.0436Z" fill="black"/>
<path d="M34.7224 15.7106C35.0833 15.7106 35.3759 15.418 35.3759 15.0571C35.3759 14.6962 35.0833 14.4036 34.7224 14.4036C34.3614 14.4036 34.0688 14.6962 34.0688 15.0571C34.0688 15.418 34.3614 15.7106 34.7224 15.7106Z" fill="white"/>
<path d="M17.4236 37.3784C17.1715 37.2706 17.0446 37.2155 16.7925 37.1032C17.0314 35.5487 17.15 34.7715 17.389 33.217C17.6295 33.2633 17.7515 33.2853 17.992 33.3293C17.7646 34.9499 17.651 35.7601 17.4236 37.3784Z" fill="black"/>
<path d="M14.2961 35.8927C14.049 35.7628 13.9254 35.6967 13.6782 35.5646C13.96 34.3426 14.1 33.7327 14.3818 32.5107C14.6224 32.5768 14.7427 32.6098 14.9816 32.6715C14.7081 33.9595 14.5696 34.6047 14.2961 35.8927Z" fill="black"/>
<path d="M22.0259 39.054C21.4575 38.8823 21.1741 38.792 20.6089 38.6005C20.7704 36.6541 20.8511 35.6831 21.0109 33.7367C21.5432 33.7873 21.8084 33.8072 22.339 33.838C22.2138 35.9253 22.1512 36.9667 22.0243 39.054H22.0259Z" fill="black"/>
<path d="M16.4155 36.9315C16.315 36.8852 16.2656 36.8632 16.165 36.8148C16.4138 35.3264 16.5374 34.5822 16.7862 33.0938C16.8818 33.1136 16.9312 33.1246 17.0268 33.1444C16.7829 34.6592 16.6594 35.4166 16.4155 36.9315Z" fill="black"/>
<path d="M15.7898 36.6385C15.7403 36.6143 15.714 36.6033 15.6646 36.579C15.9199 35.1435 16.0485 34.4257 16.3055 32.9923C16.3533 33.0033 16.378 33.0077 16.4258 33.0187C16.1721 34.4675 16.0435 35.1919 15.7898 36.6385Z" fill="black"/>
<path d="M18.31 37.7463C18.2589 37.7265 18.2342 37.7155 18.1831 37.6956C18.3957 35.9981 18.5028 35.1482 18.717 33.4484C18.7648 33.455 18.7895 33.4594 18.8373 33.466C18.6263 35.1768 18.5209 36.0333 18.31 37.7463Z" fill="black"/>
<path d="M17.9295 37.5919C17.829 37.5501 17.7779 37.5281 17.6758 37.4863C17.8982 35.8393 18.0103 35.0158 18.2327 33.3711C18.3299 33.3865 18.3777 33.3953 18.4733 33.4107C18.2558 35.0841 18.1454 35.9186 17.9279 37.5919H17.9295Z" fill="black"/>
<path d="M15.4148 36.4581C15.3143 36.4096 15.2649 36.3854 15.166 36.3347C15.4297 34.952 15.5615 34.2629 15.8235 32.8801C15.919 32.9021 15.9685 32.9132 16.064 32.9352C15.8037 34.3443 15.6752 35.0489 15.4148 36.4558V36.4581Z" fill="black"/>
<path d="M22.4128 39.1684C22.5166 39.1992 22.5677 39.2124 22.6715 39.2433C22.7802 37.0943 22.8346 36.0176 22.9417 33.8687C22.8445 33.8643 22.7967 33.8621 22.6995 33.8577C22.5841 35.9824 22.5265 37.0437 22.4111 39.1684H22.4128Z" fill="black"/>
<path d="M23.4512 39.4551C23.555 39.4815 23.6077 39.4969 23.7115 39.5233C23.7906 37.2731 23.8302 36.1458 23.9092 33.8955C23.812 33.8955 23.7642 33.8933 23.6687 33.8911C23.5813 36.1171 23.5385 37.229 23.4528 39.4551H23.4512Z" fill="black"/>
<path d="M23.9712 39.5892C24.075 39.6157 24.1277 39.6289 24.2315 39.6531C24.2958 37.3522 24.3271 36.2007 24.3914 33.8998C24.2941 33.8998 24.2464 33.8998 24.1508 33.8998C24.0799 36.1764 24.0437 37.3148 23.9728 39.5892H23.9712Z" fill="black"/>
<path d="M25.5366 39.9481C25.6421 39.9701 25.6932 39.9811 25.7986 40.0009C25.8134 37.5503 25.82 36.3261 25.8349 33.8755C25.7393 33.8799 25.6899 33.8799 25.5943 33.8843C25.5712 36.3107 25.5597 37.5239 25.5366 39.9481Z" fill="black"/>
<path d="M26.1929 40.078C26.2456 40.089 26.272 40.0934 26.3247 40.1022C26.323 38.0193 26.3197 35.9364 26.3181 33.8535C26.2703 33.8557 26.2456 33.8579 26.1978 33.8601C26.1978 35.932 26.1945 38.0061 26.1929 40.078Z" fill="black"/>
<path d="M26.5873 40.153C26.6927 40.1729 26.7455 40.1817 26.8493 40.1993C26.8328 38.0745 26.8147 35.952 26.7982 33.8273C26.7026 33.8339 26.6532 33.8361 26.5576 33.8405C26.5675 35.9432 26.5774 38.0481 26.5856 40.1508L26.5873 40.153Z" fill="black"/>
<path d="M27.1122 40.2452C27.2177 40.2628 27.2704 40.2716 27.3759 40.2892C27.3429 38.1249 27.3116 35.9605 27.2787 33.7961C27.1831 33.8027 27.1353 33.8072 27.0381 33.8138C27.0628 35.9583 27.0875 38.1029 27.1122 40.2474V40.2452Z" fill="black"/>
<path d="M29.221 40.5448C29.1155 40.5315 29.0628 40.5271 28.9574 40.5139C28.8766 38.2285 28.7975 35.943 28.7168 33.6575C28.8124 33.6465 28.8601 33.6399 28.9557 33.6289C29.0447 35.9342 29.1337 38.2395 29.221 40.5448Z" fill="black"/>
<path d="M28.5608 40.4633C28.508 40.4567 28.4817 40.4523 28.4289 40.4457C28.3647 38.1998 28.3004 35.954 28.2378 33.7082C28.2856 33.7038 28.3103 33.7016 28.3581 33.6949C28.4256 35.9496 28.4932 38.2064 28.5624 40.4611L28.5608 40.4633Z" fill="black"/>
<path d="M27.6382 40.3312C27.5327 40.3158 27.48 40.307 27.3746 40.2894C27.3416 38.125 27.3103 35.9607 27.2773 33.7963C27.3729 33.7897 27.4207 33.7853 27.5179 33.7765C27.5575 35.9607 27.5987 38.1471 27.6382 40.3312Z" fill="black"/>
<path d="M20.2237 38.4663C20.1215 38.4311 20.0704 38.4112 19.9683 38.376C20.1446 36.4957 20.2319 35.5555 20.4082 33.673C20.5054 33.684 20.5532 33.6884 20.6504 33.6994C20.4807 35.6062 20.395 36.5595 20.2253 38.4663H20.2237Z" fill="black"/>
<path d="M19.5841 38.2372C19.533 38.2174 19.5066 38.2085 19.4556 38.1909C19.6434 36.3612 19.7357 35.4475 19.9235 33.6178C19.9713 33.6244 19.996 33.6266 20.0438 33.6332C19.8593 35.4761 19.767 36.3965 19.5824 38.2372H19.5841Z" fill="black"/>
<path d="M19.1997 38.0943C19.0976 38.0547 19.0465 38.0371 18.9443 37.9974C19.1421 36.2206 19.2409 35.3311 19.4403 33.5542C19.5375 33.5674 19.5853 33.574 19.6825 33.5872C19.4897 35.3905 19.3942 36.291 19.2014 38.0943H19.1997Z" fill="black"/>
<path d="M33.4615 40.8157C33.1946 40.8135 33.0627 40.8091 32.7958 40.8025C32.5849 38.233 32.374 35.6657 32.1631 33.0962C32.4004 33.0456 32.5173 33.0192 32.7546 32.9663C32.9902 35.582 33.2259 38.2 33.4599 40.8157H33.4615Z" fill="black"/>
<path d="M30.1409 40.6416C29.8756 40.6174 29.7438 40.6042 29.4785 40.5756C29.3813 38.2505 29.284 35.9254 29.1885 33.6003C29.4274 33.5694 29.5477 33.554 29.785 33.5188C29.9036 35.8923 30.0222 38.2681 30.1409 40.6416Z" fill="black"/>
<path d="M37.5244 40.6594C37.2311 40.6858 37.0844 40.6968 36.7911 40.7166C36.4237 37.8675 36.0562 35.0184 35.6904 32.1714C35.9475 32.09 36.0744 32.0503 36.3314 31.9645C36.7302 34.862 37.1273 37.7618 37.526 40.6594H37.5244Z" fill="black"/>
<path d="M32.3963 40.7893C32.2892 40.7848 32.2365 40.7826 32.131 40.7782C31.9448 38.2572 31.757 35.7361 31.5708 33.2151C31.6664 33.1974 31.7125 33.1864 31.8081 33.1688C32.0042 35.7097 32.2002 38.2484 32.3963 40.7893Z" fill="black"/>
<path d="M31.7324 40.7586C31.6797 40.7564 31.6533 40.7542 31.5989 40.752C31.4309 38.2705 31.2628 35.7869 31.0947 33.3055C31.1425 33.2967 31.1656 33.2923 31.2134 33.2834C31.3864 35.7759 31.5594 38.2661 31.7308 40.7586H31.7324Z" fill="black"/>
<path d="M34.3927 40.8155C34.34 40.8155 34.3136 40.8155 34.2592 40.8155C33.994 38.1425 33.7287 35.4696 33.4634 32.7966C33.5112 32.7856 33.5342 32.779 33.5804 32.7679C33.8506 35.4497 34.1225 38.1337 34.3927 40.8155Z" fill="black"/>
<path d="M33.9932 40.8174C33.8861 40.8174 33.8334 40.8174 33.7263 40.8174C33.4808 38.1819 33.2353 35.5463 32.9897 32.9108C33.0837 32.8887 33.1315 32.8777 33.2254 32.8535C33.4808 35.5089 33.7362 38.1621 33.9916 40.8174H33.9932Z" fill="black"/>
<path d="M31.3336 40.7365C31.2281 40.7299 31.1738 40.7255 31.0683 40.7189C30.9184 38.2749 30.7684 35.8331 30.6201 33.3891C30.7157 33.3737 30.7635 33.3649 30.8574 33.3495C31.0156 35.8111 31.1754 38.2749 31.3336 40.7365Z" fill="black"/>
<path d="M30.8033 40.6988C30.6979 40.69 30.6435 40.6856 30.538 40.6768C30.4062 38.2724 30.2744 35.8681 30.1426 33.4659C30.2381 33.4505 30.2859 33.4439 30.3815 33.4285C30.5216 35.8526 30.6633 38.2746 30.8033 40.6988Z" fill="black"/>
<path d="M40.924 40.2186C41.1909 40.1724 41.3227 40.1482 41.5897 40.0997C41.008 36.9358 40.4247 33.7718 39.8431 30.6078C39.6157 30.7091 39.502 30.7575 39.2729 30.8544C39.8233 33.9765 40.3753 37.0987 40.9256 40.2186H40.924Z" fill="black"/>
<path d="M39.3253 40.4637C39.378 40.4571 39.406 40.4527 39.4587 40.4461C38.9759 37.4186 38.4931 34.3933 38.0104 31.3658C37.9642 31.3835 37.9412 31.3923 37.895 31.4099C38.3712 34.4285 38.8491 37.445 39.3253 40.4637Z" fill="black"/>
<path d="M37.7633 40.6394C37.8161 40.635 37.8441 40.6328 37.8968 40.6262C37.4832 37.7022 37.0696 34.7804 36.6544 31.8564C36.6083 31.8719 36.5852 31.8807 36.5391 31.8961C36.9477 34.8113 37.3563 37.7242 37.7633 40.6394Z" fill="black"/>
<path d="M38.284 40.5865C38.3367 40.5799 38.3648 40.5777 38.4175 40.5711C37.9808 37.6119 37.5442 34.6549 37.1075 31.6957C37.0614 31.7111 37.0383 31.7199 36.9922 31.7375C37.4222 34.6857 37.854 37.6361 38.284 40.5843V40.5865Z" fill="black"/>
<path d="M39.7241 40.408C39.8312 40.3926 39.8839 40.386 39.991 40.3684C39.4835 37.3057 38.976 34.2452 38.4685 31.1825C38.3762 31.2199 38.3301 31.2375 38.2378 31.2728C38.7321 34.3179 39.2281 37.3607 39.7224 40.4058L39.7241 40.408Z" fill="black"/>
<path d="M40.2575 40.3288C40.3646 40.3112 40.4173 40.3046 40.5244 40.2869C39.9922 37.1912 39.46 34.0955 38.9278 30.9998C38.8355 31.0372 38.791 31.057 38.6987 31.0944C39.2178 34.1725 39.7385 37.2529 40.2575 40.331V40.3288Z" fill="black"/>
<path d="M41.8545 40.0493C41.9616 40.0295 42.0143 40.0185 42.1198 39.9964C41.5118 36.7994 40.9038 33.6002 40.2957 30.4032C40.2051 30.445 40.159 30.4648 40.0684 30.5067C40.6632 33.6883 41.2597 36.8677 41.8545 40.0493Z" fill="black"/>
<path d="M42.5206 39.913C42.5733 39.9019 42.5997 39.8953 42.654 39.8843C42.0197 36.6543 41.3853 33.4221 40.7509 30.192C40.7064 30.214 40.6833 30.225 40.6372 30.2449C41.265 33.4683 41.8928 36.6895 42.5206 39.913Z" fill="black"/>
<path d="M42.9192 39.8268C43.0263 39.8026 43.0791 39.7916 43.1845 39.7674C42.5238 36.5043 41.863 33.239 41.2023 29.976C41.1117 30.02 41.0672 30.042 40.9766 30.086C41.6241 33.3337 42.2717 36.5813 42.9192 39.829V39.8268Z" fill="black"/>
<path d="M45.5702 39.149C45.4648 39.1798 45.412 39.1952 45.3049 39.2238C44.5338 35.8309 43.7643 32.4401 42.9932 29.0471C43.0821 28.9987 43.1266 28.9745 43.2156 28.9238C43.9999 32.3322 44.7842 35.7384 45.5686 39.1468L45.5702 39.149Z" fill="black"/>
<path d="M44.9079 39.3359C44.8552 39.3513 44.8288 39.3579 44.7761 39.3711C44.0329 36.0112 43.2915 32.649 42.5483 29.2891C42.5928 29.2648 42.6159 29.2538 42.6604 29.2296C43.4101 32.5984 44.1598 35.9671 44.9095 39.3359H44.9079Z" fill="black"/>
<path d="M44.5107 39.4418C44.4053 39.4704 44.3509 39.4836 44.2454 39.5101C43.5303 36.1809 42.8152 32.8518 42.1001 29.5249C42.1891 29.4787 42.2352 29.4544 42.3242 29.4082C43.0525 32.7527 43.7808 36.0973 44.5107 39.4418Z" fill="black"/>
<path d="M36.3912 40.745C36.2841 40.7516 36.2314 40.7538 36.1243 40.7604C35.7848 37.9575 35.4454 35.1546 35.106 32.3517C35.1999 32.3231 35.246 32.3099 35.3399 32.2812C35.6909 35.1018 36.0402 37.9245 36.3912 40.745Z" fill="black"/>
<path d="M35.7247 40.7782C35.672 40.7804 35.644 40.7826 35.5912 40.7849C35.2732 38.0194 34.9552 35.2517 34.6372 32.4863C34.6833 32.4731 34.7081 32.4665 34.7542 32.4532C35.0772 35.2297 35.4001 38.004 35.7247 40.7804V40.7782Z" fill="black"/>
<path d="M35.3247 40.7933C35.2176 40.7977 35.1648 40.7977 35.0577 40.8021C34.7612 38.0719 34.4646 35.3439 34.168 32.6137C34.2619 32.5894 34.3097 32.5762 34.4019 32.5498C34.7084 35.2976 35.0166 38.0455 35.323 40.7933H35.3247Z" fill="black"/>
</svg>
