<svg width="217" height="41" viewBox="0 0 217 41" fill="none" xmlns="http://www.w3.org/2000/svg">
<path d="M171.716 20.302C171.377 19.94 171.214 19.7527 170.9 19.3657C172.92 17.98 173.936 17.2934 175.968 15.9077C176.219 16.1449 176.345 16.2573 176.595 16.4695C174.651 18.005 173.673 18.7665 171.728 20.302H171.716Z" fill="#3C87BD"/>
<path d="M168.002 15.1586C167.751 14.6967 167.626 14.472 167.388 13.9976C169.696 13.4234 170.837 13.1363 173.145 12.562C173.346 12.8616 173.447 13.0114 173.66 13.2986C171.402 14.0476 170.26 14.4096 168.002 15.1586Z" fill="#3C87BD"/>
<path d="M178.527 25.6952C177.611 25.1833 177.159 24.9087 176.294 24.3095C177.749 22.1123 178.489 21.0138 179.944 18.8291C180.572 19.1662 180.885 19.3285 181.525 19.6031C180.321 22.0499 179.731 23.2733 178.527 25.7077V25.6952Z" fill="#3C87BD"/>
<path d="M170.423 18.7794C170.298 18.6171 170.235 18.5422 170.109 18.3799C172.204 17.144 173.258 16.5323 175.353 15.2964C175.453 15.3963 175.491 15.4462 175.591 15.5461C173.521 16.8444 172.493 17.481 170.423 18.7794Z" fill="#3C87BD"/>
<path d="M169.658 17.768C169.596 17.6806 169.571 17.6432 169.508 17.5558C171.653 16.4447 172.732 15.8954 174.877 14.7969C174.927 14.8468 174.952 14.8718 174.99 14.9217C172.857 16.0577 171.791 16.632 169.658 17.768Z" fill="#3C87BD"/>
<path d="M172.92 21.5382C172.844 21.4758 172.819 21.4383 172.744 21.3634C174.588 19.6656 175.516 18.8042 177.36 17.1064C177.411 17.1439 177.436 17.1689 177.486 17.2063C175.654 18.9416 174.739 19.8029 172.92 21.5382Z" fill="#3C87BD"/>
<path d="M172.392 21.0264C172.254 20.8891 172.192 20.8142 172.054 20.6769C173.973 19.0914 174.926 18.2925 176.846 16.707C176.946 16.7944 176.996 16.8319 177.109 16.9193C175.227 18.5671 174.287 19.391 172.405 21.0389L172.392 21.0264Z" fill="#3C87BD"/>
<path d="M169.232 17.1437C169.119 16.969 169.056 16.8941 168.943 16.7193C171.139 15.7455 172.23 15.2587 174.425 14.2725C174.513 14.3848 174.563 14.4347 174.651 14.5346C172.481 15.5708 171.389 16.0951 169.219 17.1437H169.232Z" fill="#3C87BD"/>
<path d="M179.154 26.032C179.317 26.1194 179.405 26.1693 179.581 26.2442C180.647 23.6975 181.186 22.4242 182.265 19.8775C182.152 19.8276 182.09 19.8151 181.964 19.7651C180.835 22.2744 180.283 23.5228 179.154 26.032Z" fill="#3C87BD"/>
<path d="M180.873 26.8563C181.049 26.9312 181.136 26.9686 181.312 27.0435C182.165 24.347 182.604 22.9863 183.457 20.2898C183.332 20.2524 183.282 20.2399 183.156 20.1899C182.24 22.849 181.789 24.1847 180.873 26.8438V26.8563Z" fill="#3C87BD"/>
<path d="M181.751 27.2308C181.927 27.3057 182.014 27.3306 182.19 27.4055C182.943 24.6341 183.306 23.2484 184.059 20.477C183.934 20.4396 183.871 20.4271 183.758 20.3896C182.955 23.1236 182.554 24.4968 181.751 27.2308Z" fill="#3C87BD"/>
<path d="M184.448 28.1419C184.636 28.1919 184.724 28.2168 184.9 28.2668C185.301 25.3081 185.502 23.8226 185.891 20.8639C185.765 20.8389 185.703 20.8389 185.577 20.814C185.113 23.7477 184.887 25.2207 184.436 28.1544L184.448 28.1419Z" fill="#3C87BD"/>
<path d="M185.589 28.454C185.677 28.4789 185.727 28.4914 185.815 28.5039C186.091 25.4828 186.229 23.9723 186.505 20.9512C186.442 20.9512 186.417 20.9512 186.354 20.9263C186.04 23.9349 185.89 25.4329 185.589 28.4415V28.454Z" fill="#3C87BD"/>
<path d="M186.279 28.6039C186.467 28.6413 186.555 28.6663 186.743 28.7037C186.894 25.6327 186.969 24.0972 187.132 21.0262C187.007 21.0262 186.944 21.0013 186.819 20.9888C186.605 24.0348 186.493 25.5578 186.279 28.6039Z" fill="#3C87BD"/>
<path d="M187.22 28.7909C187.408 28.8284 187.496 28.8409 187.684 28.8783C187.709 25.7574 187.721 24.1969 187.746 21.0884C187.621 21.0884 187.558 21.076 187.433 21.0635C187.345 24.1595 187.295 25.7074 187.207 28.8034L187.22 28.7909Z" fill="#3C87BD"/>
<path d="M190.983 29.2277C190.795 29.2277 190.695 29.2152 190.507 29.2028C190.143 25.9695 189.967 24.3466 189.604 21.1133C189.729 21.1133 189.792 21.1133 189.917 21.1133C190.344 24.3591 190.557 25.9944 190.983 29.2402V29.2277Z" fill="#3C87BD"/>
<path d="M189.804 29.1403C189.703 29.1403 189.666 29.1279 189.565 29.1154C189.34 25.9195 189.214 24.3091 188.988 21.1133C189.051 21.1133 189.076 21.1133 189.139 21.1133C189.402 24.3216 189.528 25.932 189.791 29.1403H189.804Z" fill="#3C87BD"/>
<path d="M188.149 28.9532C187.961 28.9282 187.873 28.9157 187.685 28.8782C187.71 25.7573 187.722 24.1968 187.747 21.0884C187.873 21.0884 187.935 21.0884 188.061 21.1009C188.099 24.2468 188.111 25.8072 188.149 28.9532Z" fill="#3C87BD"/>
<path d="M175.704 23.8849C175.554 23.7725 175.466 23.7101 175.315 23.5978C176.883 21.5254 177.674 20.4893 179.242 18.417C179.355 18.4794 179.405 18.5169 179.518 18.5793C177.987 20.7015 177.222 21.7626 175.704 23.8849Z" fill="#3C87BD"/>
<path d="M174.738 23.1488C174.663 23.0863 174.625 23.0614 174.55 22.999C176.206 21.0265 177.034 20.0403 178.689 18.0679C178.74 18.1053 178.777 18.1178 178.827 18.1553C177.197 20.1527 176.381 21.1514 174.738 23.1488Z" fill="#3C87BD"/>
<path d="M174.187 22.6866C174.036 22.5618 173.961 22.4993 173.823 22.3745C175.554 20.5019 176.42 19.5781 178.164 17.7056C178.276 17.7805 178.327 17.8179 178.439 17.8928C176.746 19.8153 175.893 20.7766 174.2 22.6866H174.187Z" fill="#3C87BD"/>
<path d="M198.572 28.6161C198.108 28.716 197.869 28.7659 197.393 28.8408C196.038 25.4827 195.361 23.8099 194.006 20.4518C194.307 20.3644 194.445 20.3269 194.746 20.2271C196.276 23.5852 197.042 25.258 198.572 28.6037V28.6161Z" fill="#3C87BD"/>
<path d="M192.639 29.2657C192.162 29.2657 191.924 29.2657 191.447 29.2532C190.958 25.9824 190.707 24.3595 190.218 21.0888C190.531 21.0638 190.682 21.0513 190.983 21.0264C191.648 24.3221 191.974 25.9699 192.639 29.2657Z" fill="#3C87BD"/>
<path d="M205.534 26.1694C205.045 26.4066 204.807 26.5314 204.318 26.7436C201.897 23.5228 200.68 21.9124 198.259 18.6791C198.547 18.5043 198.698 18.417 198.986 18.2422C201.608 21.4131 202.925 22.9985 205.547 26.1694H205.534Z" fill="#3C87BD"/>
<path d="M196.691 28.9535C196.503 28.9785 196.403 28.991 196.214 29.016C195.035 25.6578 194.446 23.985 193.267 20.6394C193.392 20.6144 193.442 20.6019 193.568 20.5645C194.822 23.9226 195.437 25.5954 196.691 28.9535Z" fill="#3C87BD"/>
<path d="M195.499 29.1034C195.399 29.1034 195.361 29.1159 195.261 29.1283C194.22 25.7827 193.705 24.1099 192.664 20.7642C192.727 20.7642 192.752 20.7517 192.815 20.7393C193.893 24.0849 194.433 25.7577 195.499 29.1034Z" fill="#3C87BD"/>
<path d="M200.216 28.2166C200.128 28.2416 200.078 28.254 199.978 28.279C198.234 24.9459 197.356 23.273 195.612 19.9274C195.675 19.9024 195.7 19.8899 195.75 19.8774C197.532 23.2106 198.422 24.8834 200.203 28.2166H200.216Z" fill="#3C87BD"/>
<path d="M199.513 28.4037C199.325 28.4536 199.237 28.4786 199.049 28.516C197.444 25.1704 196.641 23.4976 195.035 20.1394C195.148 20.102 195.211 20.077 195.324 20.0396C196.992 23.3852 197.833 25.058 199.513 28.4037Z" fill="#3C87BD"/>
<path d="M194.784 29.178C194.596 29.1905 194.496 29.203 194.308 29.2155C193.405 25.8823 192.953 24.222 192.05 20.8888C192.175 20.8638 192.238 20.8638 192.351 20.8389C193.317 24.172 193.806 25.8449 194.772 29.178H194.784Z" fill="#3C87BD"/>
<path d="M193.831 29.2282C193.642 29.2282 193.542 29.2407 193.354 29.2407C192.589 25.9325 192.212 24.2722 191.447 20.9515C191.573 20.939 191.635 20.9265 191.748 20.9141C192.576 24.2347 193.003 25.8951 193.831 29.2158V29.2282Z" fill="#3C87BD"/>
<path d="M210.866 22.7116C211.254 22.3871 211.455 22.2248 211.831 21.8752C208.143 19.1787 206.299 17.8305 202.599 15.1465C202.386 15.3837 202.273 15.5085 202.06 15.7332C205.584 18.5296 207.341 19.9278 210.853 22.7116H210.866Z" fill="#3C87BD"/>
<path d="M208.432 24.4964C208.52 24.4464 208.557 24.409 208.645 24.3591C205.509 21.3754 203.941 19.8899 200.805 16.9062C200.755 16.9437 200.73 16.9687 200.68 17.0061C203.778 20.0022 205.334 21.5003 208.432 24.4964Z" fill="#3C87BD"/>
<path d="M205.936 25.9695C206.024 25.9196 206.061 25.9071 206.149 25.8572C203.427 22.7237 202.072 21.1508 199.35 18.0049C199.3 18.0423 199.275 18.0548 199.225 18.0923C201.909 21.2382 203.251 22.8236 205.936 25.9695Z" fill="#3C87BD"/>
<path d="M206.776 25.5076C206.864 25.4576 206.902 25.4327 206.989 25.3827C204.129 22.2868 202.699 20.7512 199.839 17.6553C199.789 17.6927 199.764 17.7052 199.714 17.7427C202.536 20.8511 203.954 22.3991 206.776 25.5076Z" fill="#3C87BD"/>
<path d="M209.06 24.0723C209.223 23.9599 209.311 23.8975 209.474 23.7851C206.2 20.8639 204.556 19.4033 201.282 16.4946C201.194 16.582 201.144 16.6195 201.044 16.7069C204.255 19.653 205.848 21.1261 209.06 24.0848V24.0723Z" fill="#3C87BD"/>
<path d="M209.875 23.4855C210.038 23.3606 210.113 23.2982 210.276 23.1734C206.864 20.3271 205.158 18.9039 201.734 16.0576C201.646 16.145 201.596 16.1949 201.508 16.2823C204.857 19.1661 206.525 20.6017 209.875 23.4855Z" fill="#3C87BD"/>
<path d="M212.221 21.5257C212.371 21.3884 212.447 21.3135 212.597 21.1762C208.771 18.5671 206.852 17.2688 203.026 14.6597C202.938 14.7595 202.9 14.8095 202.825 14.9093C206.588 17.5559 208.458 18.8917 212.221 21.5382V21.5257Z" fill="#3C87BD"/>
<path d="M213.148 20.6265C213.224 20.5516 213.261 20.5142 213.337 20.4393C209.373 17.9176 207.391 16.6692 203.439 14.1475C203.402 14.1974 203.376 14.2224 203.339 14.2723C207.265 16.8065 209.235 18.0798 213.161 20.6265H213.148Z" fill="#3C87BD"/>
<path d="M213.688 20.0525C213.826 19.9027 213.901 19.8153 214.039 19.6655C209.95 17.2436 207.905 16.0327 203.803 13.6108C203.728 13.7232 203.69 13.7731 203.615 13.873C207.642 16.3448 209.662 17.5807 213.688 20.04V20.0525Z" fill="#3C87BD"/>
<path d="M217 15.8079C216.875 15.9952 216.825 16.0826 216.699 16.2698C212.095 14.2974 209.787 13.2987 205.184 11.3263C205.246 11.2014 205.271 11.139 205.334 11.0142C210.001 12.9242 212.334 13.8854 217 15.7954V15.8079Z" fill="#3C87BD"/>
<path d="M216.222 16.9442C216.16 17.0315 216.122 17.0815 216.059 17.1689C211.581 15.0716 209.336 14.023 204.857 11.9257C204.895 11.8633 204.908 11.8383 204.933 11.7759C209.449 13.8482 211.707 14.8719 216.21 16.9442H216.222Z" fill="#3C87BD"/>
<path d="M215.746 17.6054C215.62 17.7802 215.545 17.8675 215.42 18.0298C211.067 15.8202 208.884 14.7092 204.531 12.4995C204.594 12.3872 204.632 12.3248 204.694 12.2124C209.11 14.3721 211.318 15.4457 215.733 17.5929L215.746 17.6054Z" fill="#3C87BD"/>
<path d="M203.652 27.0434C203.477 27.1183 203.376 27.1558 203.201 27.2307C200.955 23.9599 199.826 22.3371 197.581 19.0663C197.694 19.0039 197.744 18.9789 197.857 18.9165C200.178 22.1623 201.332 23.7977 203.652 27.0434Z" fill="#3C87BD"/>
<path d="M202.511 27.4802C202.423 27.5176 202.373 27.5301 202.285 27.5675C200.178 24.2718 199.137 22.624 197.029 19.3407C197.079 19.3158 197.117 19.3033 197.167 19.2783C199.3 22.5616 200.379 24.2094 202.511 27.4926V27.4802Z" fill="#3C87BD"/>
<path d="M201.834 27.7301C201.646 27.7925 201.558 27.8175 201.37 27.8799C199.413 24.5592 198.434 22.9113 196.465 19.5907C196.578 19.5407 196.628 19.5158 196.741 19.4658C198.773 22.774 199.789 24.4219 201.821 27.7301H201.834Z" fill="#3C87BD"/>
<path d="M0 7.62624H6.73239C8.10169 6.29498 8.99554 4.71648 9.41394 2.89708H15.6202C15.2018 4.72282 14.3079 6.29498 12.9386 7.62624H19.7217V12.3554H15.411C16.2541 13.1288 16.9007 14.0353 17.3571 15.0877C17.8136 16.14 18.0418 17.243 18.0418 18.3968C18.0418 19.9056 17.6741 21.2432 16.9387 22.4223C16.2034 23.6014 15.2144 24.5079 13.9656 25.1545C12.7231 25.8012 11.3601 26.1245 9.88939 26.1245C7.57553 26.1245 5.64202 25.4081 4.08254 23.9691C2.52306 22.5301 1.74332 20.6726 1.74332 18.3968C1.74332 17.243 1.97154 16.1336 2.42797 15.0877C2.88441 14.0353 3.512 13.1225 4.3171 12.3554H0V7.62624ZM8.15241 19.9309C8.50107 20.7741 9.07795 21.1925 9.88939 21.1925C10.7008 21.1925 11.265 20.7741 11.601 19.9309C11.937 19.0878 12.1018 18.0228 12.1018 16.7232C12.1018 15.6392 11.8799 14.72 11.4425 13.9656C11.0051 13.2112 10.4853 12.8372 9.88939 12.8372C9.2618 12.8372 8.72295 13.2112 8.28553 13.9656C7.84812 14.72 7.62624 15.6392 7.62624 16.7232C7.62624 18.0228 7.80374 19.0878 8.15241 19.9309ZM31.0755 12.4125H35.754V17.934H31.0755V40.071H24.8756V0H31.0755V12.4061V12.4125Z" fill="#3C87BD"/>
<path d="M40.4834 6.88454H57.625V25.8646H51.4188V22.7646C49.91 23.9564 48.4393 24.8312 47.0003 25.3954C45.5612 25.9596 44.23 26.2386 43.0065 26.2386C42.0239 26.2386 41.3582 25.9913 41.0096 25.5032C40.6609 25.0151 40.4834 24.2227 40.4834 23.1386V6.88454ZM49.1303 18.606C49.8149 18.1496 50.5756 17.5537 51.4188 16.8183V11.3474H46.6896V20.0767C47.6342 19.5506 48.452 19.0624 49.1366 18.606H49.1303ZM69.6634 12.3998H74.3419V17.9213H69.6634V40.0584H63.4572V0H69.6634V12.4061V12.3998Z" fill="#3C87BD"/>
<path d="M79.0703 7.62624H85.8027C87.172 6.29498 88.0659 4.71648 88.4843 2.89708H94.6905C94.2721 4.72282 93.3782 6.29498 92.0089 7.62624H98.792V12.3554H94.4813C95.3244 13.1288 95.971 14.0353 96.4275 15.0877C96.8839 16.14 97.1121 17.243 97.1121 18.3968C97.1121 19.9056 96.7444 21.2432 96.0091 22.4223C95.2737 23.6014 94.2848 24.5079 93.0359 25.1545C91.7934 25.8012 90.4304 26.1245 88.9597 26.1245C86.6458 26.1245 84.7123 25.4081 83.1529 23.9691C81.5934 22.5301 80.8136 20.6726 80.8136 18.3968C80.8136 17.243 81.0418 16.1336 81.4983 15.0877C81.9547 14.0353 82.5823 13.1225 83.3874 12.3554H79.0766V7.62624H79.0703ZM87.2227 19.9309C87.5714 20.7741 88.1483 21.1925 88.9597 21.1925C89.7711 21.1925 90.3353 20.7741 90.6713 19.9309C91.0073 19.0878 91.1721 18.0228 91.1721 16.7232C91.1721 15.6392 90.9503 14.72 90.5128 13.9656C90.0754 13.2112 89.5556 12.8372 88.9597 12.8372C88.3321 12.8372 87.7933 13.2112 87.3558 13.9656C86.9184 14.72 86.6965 15.6392 86.6965 16.7232C86.6965 18.0228 86.8741 19.0878 87.2227 19.9309ZM110.146 12.4125H114.824V17.934H110.146V40.071H103.946V0H110.146V12.4061V12.4125Z" fill="#3C87BD"/>
<path d="M119.554 6.88454H136.695V25.8646H130.489V22.7646C128.98 23.9564 127.51 24.8312 126.071 25.3954C124.632 25.9596 123.3 26.2386 122.077 26.2386C121.094 26.2386 120.429 25.9913 120.08 25.5032C119.731 25.0151 119.554 24.2227 119.554 23.1386V6.88454ZM128.201 18.606C128.885 18.1496 129.646 17.5537 130.489 16.8183V11.3474H125.76V20.0767C126.705 19.5506 127.522 19.0624 128.207 18.606H128.201ZM148.734 12.3998H153.412V17.9213H148.734V40.0584H142.528V0H148.734V12.4061V12.3998Z" fill="#3C87BD"/>
</svg>
