<svg width="184" height="35" viewBox="0 0 184 35" fill="none" xmlns="http://www.w3.org/2000/svg">
<path d="M145.602 17.3084C145.315 17.0015 145.177 16.8427 144.911 16.5145C146.623 15.3396 147.485 14.7574 149.208 13.5824C149.421 13.7835 149.527 13.8788 149.74 14.0587C148.091 15.3607 147.261 16.0064 145.613 17.3084H145.602Z" fill="#3C87BD"/>
<path d="M142.454 12.9471C142.241 12.5554 142.135 12.3649 141.933 11.9627C143.89 11.4757 144.858 11.2323 146.815 10.7454C146.985 10.9994 147.07 11.1264 147.251 11.3699C145.336 12.005 144.368 12.312 142.454 12.9471Z" fill="#3C87BD"/>
<path d="M151.378 21.8811C150.601 21.4471 150.218 21.2143 149.484 20.7062C150.718 18.8431 151.346 17.9116 152.58 16.0592C153.111 16.345 153.377 16.4826 153.92 16.7155C152.899 18.7902 152.399 19.8276 151.378 21.8917V21.8811Z" fill="#3C87BD"/>
<path d="M144.507 16.017C144.4 15.8794 144.347 15.8159 144.241 15.6783C146.017 14.6303 146.91 14.1117 148.687 13.0637C148.772 13.1484 148.804 13.1907 148.889 13.2754C147.134 14.3763 146.262 14.9162 144.507 16.017Z" fill="#3C87BD"/>
<path d="M143.858 15.1596C143.804 15.0855 143.783 15.0537 143.73 14.9796C145.549 14.0375 146.464 13.5718 148.282 12.6403C148.325 12.6826 148.346 12.7038 148.378 12.7461C146.57 13.7094 145.666 14.1963 143.858 15.1596Z" fill="#3C87BD"/>
<path d="M146.624 18.3563C146.56 18.3034 146.538 18.2716 146.475 18.2081C148.038 16.7685 148.825 16.0381 150.389 14.5985C150.431 14.6303 150.453 14.6514 150.495 14.6832C148.942 16.1546 148.166 16.8849 146.624 18.3563Z" fill="#3C87BD"/>
<path d="M146.177 17.9224C146.06 17.806 146.007 17.7425 145.89 17.626C147.517 16.2817 148.325 15.6042 149.953 14.2599C150.038 14.334 150.08 14.3657 150.176 14.4398C148.581 15.8371 147.783 16.5357 146.187 17.933L146.177 17.9224Z" fill="#3C87BD"/>
<path d="M143.496 14.6304C143.4 14.4822 143.347 14.4187 143.251 14.2705C145.113 13.4449 146.038 13.032 147.9 12.1958C147.974 12.2911 148.017 12.3334 148.091 12.4181C146.251 13.2967 145.326 13.7413 143.485 14.6304H143.496Z" fill="#3C87BD"/>
<path d="M151.91 22.1672C152.048 22.2413 152.122 22.2837 152.271 22.3472C153.175 20.1878 153.633 19.1081 154.548 16.9487C154.452 16.9063 154.399 16.8957 154.292 16.8534C153.335 18.981 152.867 20.0396 151.91 22.1672Z" fill="#3C87BD"/>
<path d="M153.367 22.8657C153.516 22.9292 153.59 22.961 153.739 23.0245C154.462 20.738 154.835 19.5842 155.558 17.2978C155.451 17.2661 155.409 17.2555 155.303 17.2131C154.526 19.4678 154.143 20.6004 153.367 22.8551V22.8657Z" fill="#3C87BD"/>
<path d="M154.111 23.1833C154.26 23.2468 154.335 23.268 154.484 23.3315C155.122 20.9816 155.43 19.8066 156.068 17.4567C155.962 17.4249 155.909 17.4143 155.813 17.3826C155.132 19.7008 154.792 20.8651 154.111 23.1833Z" fill="#3C87BD"/>
<path d="M156.398 23.956C156.558 23.9984 156.632 24.0195 156.781 24.0619C157.122 21.5531 157.292 20.2935 157.622 17.7848C157.515 17.7636 157.462 17.7636 157.356 17.7424C156.962 20.23 156.771 21.479 156.388 23.9666L156.398 23.956Z" fill="#3C87BD"/>
<path d="M157.366 24.2205C157.441 24.2416 157.483 24.2522 157.558 24.2628C157.792 21.7012 157.909 20.4203 158.143 17.8587C158.089 17.8587 158.068 17.8587 158.015 17.8375C157.749 20.3886 157.621 21.6588 157.366 24.2099V24.2205Z" fill="#3C87BD"/>
<path d="M157.951 24.3477C158.111 24.3794 158.185 24.4006 158.345 24.4323C158.472 21.8284 158.536 20.5264 158.674 17.9224C158.568 17.9224 158.515 17.9012 158.409 17.8906C158.228 20.4734 158.132 21.7648 157.951 24.3477Z" fill="#3C87BD"/>
<path d="M158.749 24.5064C158.908 24.5382 158.983 24.5487 159.142 24.5805C159.164 21.9342 159.174 20.611 159.196 17.9753C159.089 17.9753 159.036 17.9647 158.93 17.9541C158.855 20.5793 158.813 21.8918 158.738 24.517L158.749 24.5064Z" fill="#3C87BD"/>
<path d="M161.94 24.8769C161.78 24.8769 161.695 24.8663 161.536 24.8557C161.227 22.1141 161.078 20.7381 160.77 17.9965C160.876 17.9965 160.93 17.9965 161.036 17.9965C161.398 20.7486 161.578 22.1353 161.94 24.8875V24.8769Z" fill="#3C87BD"/>
<path d="M160.94 24.8028C160.855 24.8028 160.823 24.7922 160.738 24.7816C160.546 22.0718 160.44 20.7063 160.249 17.9965C160.302 17.9965 160.323 17.9965 160.376 17.9965C160.6 20.7169 160.706 22.0824 160.929 24.8028H160.94Z" fill="#3C87BD"/>
<path d="M159.536 24.644C159.377 24.6228 159.302 24.6122 159.143 24.5805C159.164 21.9341 159.174 20.611 159.196 17.9752C159.302 17.9752 159.355 17.9752 159.462 17.9858C159.494 20.6533 159.504 21.9765 159.536 24.644Z" fill="#3C87BD"/>
<path d="M148.985 20.3464C148.857 20.2512 148.782 20.1983 148.655 20.103C149.984 18.3458 150.654 17.4672 151.984 15.7101C152.08 15.763 152.122 15.7948 152.218 15.8477C150.92 17.6472 150.272 18.5469 148.985 20.3464Z" fill="#3C87BD"/>
<path d="M148.165 19.722C148.102 19.6691 148.07 19.6479 148.006 19.595C149.41 17.9225 150.112 17.0863 151.516 15.4138C151.558 15.4456 151.59 15.4562 151.633 15.4879C150.25 17.1816 149.559 18.0284 148.165 19.722Z" fill="#3C87BD"/>
<path d="M147.698 19.3304C147.57 19.2245 147.506 19.1716 147.389 19.0657C148.857 17.4779 149.591 16.6946 151.069 15.1068C151.165 15.1703 151.208 15.2021 151.303 15.2656C149.867 16.8957 149.144 17.7108 147.708 19.3304H147.698Z" fill="#3C87BD"/>
<path d="M168.375 24.3582C167.981 24.4429 167.779 24.4852 167.375 24.5487C166.226 21.7013 165.652 20.2829 164.503 17.4354C164.758 17.3613 164.875 17.3296 165.13 17.2449C166.428 20.0923 167.077 21.5108 168.375 24.3476V24.3582Z" fill="#3C87BD"/>
<path d="M163.344 24.9087C162.94 24.9087 162.738 24.9087 162.333 24.8981C161.919 22.1247 161.706 20.7486 161.291 17.9753C161.557 17.9541 161.685 17.9435 161.94 17.9224C162.504 20.7169 162.78 22.1141 163.344 24.9087Z" fill="#3C87BD"/>
<path d="M174.278 22.2836C173.863 22.4847 173.661 22.5905 173.246 22.7705C171.193 20.0395 170.162 18.674 168.109 15.9324C168.354 15.7842 168.481 15.7101 168.726 15.5619C170.949 18.2506 172.066 19.5949 174.289 22.2836H174.278Z" fill="#3C87BD"/>
<path d="M166.779 24.6441C166.62 24.6653 166.535 24.6758 166.375 24.697C165.375 21.8496 164.875 20.4311 163.875 17.5943C163.982 17.5731 164.024 17.5625 164.131 17.5308C165.194 20.3782 165.716 21.7966 166.779 24.6441Z" fill="#3C87BD"/>
<path d="M165.769 24.7711C165.684 24.7711 165.652 24.7817 165.567 24.7923C164.684 21.9554 164.248 20.537 163.365 17.7001C163.418 17.7001 163.44 17.6895 163.493 17.679C164.408 20.5158 164.865 21.9342 165.769 24.7711Z" fill="#3C87BD"/>
<path d="M169.768 24.0196C169.694 24.0408 169.651 24.0514 169.566 24.0725C168.088 21.2462 167.343 19.8278 165.865 16.991C165.918 16.9698 165.939 16.9592 165.982 16.9486C167.492 19.7749 168.247 21.1933 169.758 24.0196H169.768Z" fill="#3C87BD"/>
<path d="M169.173 24.1782C169.013 24.2206 168.939 24.2417 168.779 24.2735C167.418 21.4366 166.737 20.0182 165.375 17.1707C165.471 17.139 165.524 17.1178 165.62 17.0861C167.035 19.9229 167.747 21.3414 169.173 24.1782Z" fill="#3C87BD"/>
<path d="M165.163 24.8345C165.003 24.8451 164.918 24.8557 164.758 24.8663C163.992 22.04 163.61 20.6322 162.844 17.8059C162.95 17.7847 163.003 17.7847 163.099 17.7635C163.918 20.5898 164.333 22.0083 165.152 24.8345H165.163Z" fill="#3C87BD"/>
<path d="M164.354 24.877C164.195 24.877 164.11 24.8876 163.95 24.8876C163.301 22.0824 162.982 20.6746 162.333 17.8589C162.44 17.8483 162.493 17.8377 162.589 17.8271C163.291 20.6428 163.652 22.0507 164.354 24.8664V24.877Z" fill="#3C87BD"/>
<path d="M178.799 19.3516C179.129 19.0764 179.299 18.9388 179.618 18.6424C176.491 16.3559 174.927 15.2127 171.789 12.9369C171.609 13.138 171.513 13.2439 171.332 13.4344C174.321 15.8055 175.81 16.9911 178.788 19.3516H178.799Z" fill="#3C87BD"/>
<path d="M176.735 20.8651C176.81 20.8227 176.842 20.791 176.916 20.7486C174.257 18.2187 172.928 16.9591 170.268 14.4292C170.226 14.461 170.205 14.4821 170.162 14.5139C172.789 17.0544 174.108 18.3246 176.735 20.8651Z" fill="#3C87BD"/>
<path d="M174.619 22.1141C174.693 22.0718 174.725 22.0612 174.8 22.0189C172.491 19.362 171.343 18.0282 169.035 15.3607C168.992 15.3925 168.971 15.4031 168.928 15.4348C171.204 18.1023 172.343 19.4466 174.619 22.1141Z" fill="#3C87BD"/>
<path d="M175.331 21.7225C175.406 21.6802 175.437 21.659 175.512 21.6166C173.087 18.9915 171.874 17.6895 169.449 15.0643C169.407 15.0961 169.385 15.1067 169.343 15.1384C171.736 17.7742 172.938 19.0868 175.331 21.7225Z" fill="#3C87BD"/>
<path d="M177.267 20.5051C177.405 20.4099 177.48 20.3569 177.618 20.2617C174.842 17.7847 173.448 16.5462 170.672 14.0798C170.598 14.1539 170.555 14.1857 170.47 14.2598C173.193 16.7579 174.544 18.007 177.267 20.5157V20.5051Z" fill="#3C87BD"/>
<path d="M177.958 20.0077C178.097 19.9019 178.16 19.849 178.299 19.7431C175.406 17.3296 173.959 16.1229 171.055 13.7095C170.981 13.7836 170.938 13.8259 170.864 13.9C173.704 16.3452 175.118 17.5625 177.958 20.0077Z" fill="#3C87BD"/>
<path d="M179.948 18.3458C180.075 18.2294 180.139 18.1659 180.267 18.0495C177.023 15.8371 175.395 14.7363 172.151 12.5239C172.077 12.6086 172.045 12.651 171.981 12.7356C175.172 14.9797 176.757 16.1123 179.948 18.3564V18.3458Z" fill="#3C87BD"/>
<path d="M180.735 17.5836C180.799 17.5201 180.83 17.4884 180.894 17.4248C177.533 15.2866 175.853 14.2281 172.502 12.0898C172.47 12.1322 172.449 12.1534 172.417 12.1957C175.746 14.3445 177.416 15.4242 180.745 17.5836H180.735Z" fill="#3C87BD"/>
<path d="M181.192 17.0965C181.309 16.9695 181.373 16.8954 181.49 16.7684C178.022 14.7148 176.289 13.6881 172.81 11.6345C172.747 11.7298 172.715 11.7721 172.651 11.8568C176.065 13.9527 177.778 15.0007 181.192 17.086V17.0965Z" fill="#3C87BD"/>
<path d="M184 13.4977C183.894 13.6565 183.851 13.7306 183.745 13.8894C179.841 12.2169 177.884 11.3701 173.98 9.69762C174.034 9.59176 174.055 9.53884 174.108 9.43298C178.065 11.0525 180.043 11.8676 184 13.4872V13.4977Z" fill="#3C87BD"/>
<path d="M183.341 14.4609C183.288 14.535 183.256 14.5774 183.202 14.6515C179.405 12.8731 177.501 11.984 173.704 10.2056C173.736 10.1527 173.747 10.1315 173.768 10.0786C177.597 11.8358 179.512 12.7038 183.33 14.4609H183.341Z" fill="#3C87BD"/>
<path d="M182.936 15.0221C182.83 15.1703 182.766 15.2444 182.66 15.382C178.969 13.5084 177.118 12.5663 173.427 10.6927C173.48 10.5974 173.512 10.5445 173.566 10.4492C177.31 12.2805 179.182 13.1908 182.926 15.0115L182.936 15.0221Z" fill="#3C87BD"/>
<path d="M172.683 23.0245C172.534 23.088 172.449 23.1197 172.3 23.1832C170.396 20.4099 169.439 19.0338 167.535 16.2604C167.63 16.2075 167.673 16.1863 167.769 16.1334C169.736 18.8856 170.715 20.2723 172.683 23.0245Z" fill="#3C87BD"/>
<path d="M171.715 23.3949C171.64 23.4266 171.598 23.4372 171.523 23.469C169.736 20.6744 168.853 19.2772 167.066 16.4932C167.109 16.4721 167.141 16.4615 167.183 16.4403C168.992 19.2242 169.906 20.6215 171.715 23.4054V23.3949Z" fill="#3C87BD"/>
<path d="M171.14 23.6067C170.981 23.6596 170.906 23.6808 170.747 23.7337C169.087 20.9181 168.258 19.5208 166.588 16.7051C166.684 16.6628 166.726 16.6416 166.822 16.5992C168.545 19.4044 169.407 20.8016 171.13 23.6067H171.14Z" fill="#3C87BD"/>
<path d="M0 6.56024H5.70857C6.86964 5.43143 7.62756 4.09298 7.98233 2.55026H13.2447C12.89 4.09835 12.1321 5.43143 10.971 6.56024H16.7226V10.5702H13.0674C13.7823 11.226 14.3306 11.9947 14.7176 12.887C15.1046 13.7793 15.2981 14.7146 15.2981 15.6929C15.2981 16.9722 14.9863 18.1064 14.3628 19.1062C13.7393 20.106 12.9007 20.8747 11.8418 21.423C10.7882 21.9712 9.63254 22.2454 8.38547 22.2454C6.42349 22.2454 4.78402 21.638 3.4617 20.4178C2.13937 19.1976 1.47821 17.6226 1.47821 15.6929C1.47821 14.7146 1.67172 13.7739 2.05874 12.887C2.44576 11.9947 2.97792 11.2206 3.66058 10.5702H0V6.56024ZM6.91264 16.9937C7.20828 17.7086 7.69743 18.0634 8.38547 18.0634C9.07351 18.0634 9.55191 17.7086 9.83681 16.9937C10.1217 16.2788 10.2615 15.3757 10.2615 14.2738C10.2615 13.3546 10.0733 12.5752 9.70242 11.9355C9.33153 11.2959 8.89075 10.9787 8.38547 10.9787C7.85332 10.9787 7.39642 11.2959 7.02552 11.9355C6.65463 12.5752 6.46649 13.3546 6.46649 14.2738C6.46649 15.3757 6.617 16.2788 6.91264 16.9937ZM26.3497 10.6186H30.3167V15.3005H26.3497V34.071H21.0927V0.09375H26.3497V10.6132V10.6186Z" fill="#3C87BD"/>
<path d="M34.3267 5.93133H48.8615V22.025H43.5991V19.3965C42.3197 20.407 41.0727 21.1488 39.8525 21.6272C38.6323 22.1056 37.5035 22.3421 36.466 22.3421C35.6329 22.3421 35.0685 22.1325 34.7728 21.7186C34.4772 21.3047 34.3267 20.6328 34.3267 19.7136V5.93133ZM41.6586 15.8703C42.2391 15.4832 42.8841 14.978 43.5991 14.3544V9.71554H39.5891V17.1173C40.39 16.6712 41.0834 16.2573 41.6639 15.8703H41.6586ZM59.0692 10.6078H63.0362V15.2897H59.0692V34.0603H53.8068V0.09375H59.0692V10.6132V10.6078Z" fill="#3C87BD"/>
<path d="M67.0461 6.56024H72.7547C73.9158 5.43143 74.6737 4.09298 75.0285 2.55026H80.2909C79.9361 4.09835 79.1782 5.43143 78.0171 6.56024H83.7687V10.5702H80.1135C80.8284 11.226 81.3767 11.9947 81.7637 12.887C82.1507 13.7793 82.3443 14.7146 82.3443 15.6929C82.3443 16.9722 82.0325 18.1064 81.409 19.1062C80.7854 20.106 79.9469 20.8747 78.8879 21.423C77.8344 21.9712 76.6787 22.2454 75.4316 22.2454C73.4696 22.2454 71.8302 21.638 70.5078 20.4178C69.1855 19.1976 68.5244 17.6226 68.5244 15.6929C68.5244 14.7146 68.7179 13.7739 69.1049 12.887C69.4919 11.9947 70.0241 11.2206 70.7067 10.5702H67.0515V6.56024H67.0461ZM73.9588 16.9937C74.2544 17.7086 74.7436 18.0634 75.4316 18.0634C76.1197 18.0634 76.5981 17.7086 76.8829 16.9937C77.1678 16.2788 77.3076 15.3757 77.3076 14.2738C77.3076 13.3546 77.1195 12.5752 76.7486 11.9355C76.3777 11.2959 75.9369 10.9787 75.4316 10.9787C74.8995 10.9787 74.4426 11.2959 74.0717 11.9355C73.7008 12.5752 73.5126 13.3546 73.5126 14.2738C73.5126 15.3757 73.6631 16.2788 73.9588 16.9937ZM93.3959 10.6186H97.3629V15.3005H93.3959V34.071H88.1388V0.09375H93.3959V10.6132V10.6186Z" fill="#3C87BD"/>
<path d="M101.373 5.93133H115.908V22.025H110.645V19.3965C109.366 20.407 108.119 21.1488 106.899 21.6272C105.679 22.1056 104.55 22.3421 103.512 22.3421C102.679 22.3421 102.115 22.1325 101.819 21.7186C101.524 21.3047 101.373 20.6328 101.373 19.7136V5.93133ZM108.705 15.8703C109.285 15.4832 109.931 14.978 110.645 14.3544V9.71554H106.635V17.1173C107.436 16.6712 108.13 16.2573 108.71 15.8703H108.705ZM126.116 10.6078H130.083V15.2897H126.116V34.0603H120.853V0.09375H126.116V10.6132V10.6078Z" fill="#3C87BD"/>
</svg>
