<svg width="214" height="40" viewBox="0 0 214 40" fill="none" xmlns="http://www.w3.org/2000/svg">
<path d="M169.342 20.0213C169.008 19.6643 168.847 19.4796 168.538 19.0979C170.529 17.7314 171.531 17.0543 173.535 15.6877C173.783 15.9217 173.906 16.0325 174.154 16.2417C172.236 17.756 171.272 18.507 169.354 20.0213H169.342Z" fill="#3C87BD"/>
<path d="M165.68 14.9489C165.432 14.4934 165.309 14.2718 165.074 13.804C167.35 13.2377 168.476 12.9545 170.752 12.3882C170.95 12.6837 171.049 12.8314 171.259 13.1145C169.032 13.8532 167.907 14.2102 165.68 14.9489Z" fill="#3C87BD"/>
<path d="M176.059 25.3398C175.156 24.835 174.711 24.5641 173.857 23.9732C175.292 21.8064 176.022 20.7231 177.457 18.5686C178.075 18.901 178.385 19.0611 179.016 19.3319C177.828 21.7449 177.247 22.9514 176.059 25.3521V25.3398Z" fill="#3C87BD"/>
<path d="M168.068 18.5193C167.944 18.3592 167.882 18.2854 167.758 18.1253C169.824 16.9065 170.863 16.3033 172.929 15.0845C173.028 15.183 173.065 15.2322 173.164 15.3307C171.123 16.6111 170.109 17.2389 168.068 18.5193Z" fill="#3C87BD"/>
<path d="M167.313 17.5221C167.251 17.4359 167.226 17.399 167.164 17.3128C169.28 16.2171 170.344 15.6754 172.459 14.592C172.508 14.6413 172.533 14.6659 172.57 14.7152C170.467 15.8355 169.416 16.4018 167.313 17.5221Z" fill="#3C87BD"/>
<path d="M170.529 21.2401C170.455 21.1785 170.43 21.1416 170.356 21.0677C172.175 19.3934 173.09 18.5439 174.909 16.8696C174.958 16.9066 174.983 16.9312 175.032 16.9681C173.226 18.6794 172.323 19.5288 170.529 21.2401Z" fill="#3C87BD"/>
<path d="M170.01 20.7353C169.874 20.5998 169.812 20.526 169.676 20.3905C171.569 18.827 172.509 18.0391 174.401 16.4756C174.5 16.5618 174.55 16.5987 174.661 16.6849C172.806 18.31 171.878 19.1225 170.022 20.7476L170.01 20.7353Z" fill="#3C87BD"/>
<path d="M166.892 16.9065C166.781 16.7342 166.719 16.6603 166.608 16.4879C168.773 15.5277 169.849 15.0475 172.014 14.075C172.1 14.1858 172.15 14.235 172.236 14.3335C170.096 15.3553 169.02 15.8724 166.88 16.9065H166.892Z" fill="#3C87BD"/>
<path d="M176.677 25.6722C176.838 25.7583 176.925 25.8076 177.098 25.8814C178.15 23.37 178.682 22.1142 179.745 19.6027C179.634 19.5535 179.572 19.5412 179.449 19.4919C178.335 21.9665 177.791 23.1976 176.677 25.6722Z" fill="#3C87BD"/>
<path d="M178.372 26.4846C178.546 26.5584 178.632 26.5954 178.805 26.6692C179.646 24.01 180.079 22.6681 180.921 20.0089C180.797 19.972 180.747 19.9596 180.624 19.9104C179.721 22.5327 179.275 23.85 178.372 26.4723V26.4846Z" fill="#3C87BD"/>
<path d="M179.238 26.8539C179.411 26.9278 179.498 26.9524 179.671 27.0263C180.413 24.2932 180.772 22.9267 181.514 20.1936C181.391 20.1567 181.329 20.1444 181.217 20.1074C180.426 22.8036 180.03 24.1578 179.238 26.8539Z" fill="#3C87BD"/>
<path d="M181.898 27.7525C182.084 27.8018 182.17 27.8264 182.343 27.8757C182.739 24.9579 182.937 23.4929 183.321 20.5751C183.197 20.5505 183.135 20.5505 183.011 20.5259C182.554 23.419 182.331 24.8717 181.886 27.7649L181.898 27.7525Z" fill="#3C87BD"/>
<path d="M183.024 28.0604C183.11 28.085 183.16 28.0973 183.246 28.1096C183.519 25.1303 183.655 23.6406 183.927 20.6613C183.865 20.6613 183.84 20.6613 183.778 20.6367C183.469 23.6037 183.321 25.0811 183.024 28.0481V28.0604Z" fill="#3C87BD"/>
<path d="M183.704 28.2081C183.89 28.245 183.976 28.2696 184.162 28.3066C184.31 25.278 184.384 23.7637 184.545 20.7352C184.422 20.7352 184.36 20.7106 184.236 20.6982C184.026 23.7022 183.914 25.2041 183.704 28.2081Z" fill="#3C87BD"/>
<path d="M184.632 28.3928C184.818 28.4298 184.904 28.4421 185.09 28.479C185.114 25.4012 185.127 23.8623 185.152 20.7968C185.028 20.7968 184.966 20.7845 184.842 20.7722C184.756 23.8254 184.706 25.352 184.62 28.4051L184.632 28.3928Z" fill="#3C87BD"/>
<path d="M188.343 28.8236C188.157 28.8236 188.058 28.8112 187.873 28.7989C187.514 25.6103 187.341 24.0099 186.982 20.8213C187.106 20.8213 187.168 20.8213 187.291 20.8213C187.712 24.0222 187.922 25.635 188.343 28.8359V28.8236Z" fill="#3C87BD"/>
<path d="M187.18 28.7374C187.081 28.7374 187.044 28.7251 186.945 28.7128C186.722 25.5611 186.599 23.973 186.376 20.8213C186.438 20.8213 186.463 20.8213 186.524 20.8213C186.784 23.9853 186.908 25.5734 187.168 28.7374H187.18Z" fill="#3C87BD"/>
<path d="M185.548 28.5527C185.362 28.5281 185.275 28.5157 185.09 28.4788C185.115 25.401 185.127 23.8621 185.152 20.7966C185.275 20.7966 185.337 20.7966 185.461 20.8089C185.498 23.9114 185.51 25.4503 185.548 28.5527Z" fill="#3C87BD"/>
<path d="M173.275 23.5546C173.127 23.4438 173.04 23.3823 172.892 23.2715C174.438 21.2278 175.218 20.206 176.764 18.1624C176.875 18.2239 176.925 18.2608 177.036 18.3224C175.527 20.4153 174.772 21.4617 173.275 23.5546Z" fill="#3C87BD"/>
<path d="M172.323 22.8283C172.249 22.7667 172.211 22.7421 172.137 22.6805C173.77 20.7354 174.587 19.7628 176.22 17.8176C176.269 17.8546 176.306 17.8669 176.356 17.9038C174.747 19.8736 173.943 20.8585 172.323 22.8283Z" fill="#3C87BD"/>
<path d="M171.779 22.3726C171.63 22.2495 171.556 22.1879 171.42 22.0648C173.127 20.2182 173.981 19.3071 175.7 17.4604C175.812 17.5343 175.861 17.5712 175.972 17.6451C174.302 19.541 173.461 20.489 171.791 22.3726H171.779Z" fill="#3C87BD"/>
<path d="M195.827 28.2204C195.37 28.3189 195.135 28.3681 194.665 28.442C193.329 25.1303 192.661 23.4806 191.324 20.1689C191.621 20.0827 191.757 20.0458 192.054 19.9473C193.564 23.259 194.318 24.9087 195.827 28.2081V28.2204Z" fill="#3C87BD"/>
<path d="M189.976 28.8605C189.506 28.8605 189.271 28.8605 188.801 28.8482C188.318 25.6226 188.071 24.0222 187.588 20.7967C187.898 20.772 188.046 20.7597 188.343 20.7351C188.999 23.9853 189.32 25.6103 189.976 28.8605Z" fill="#3C87BD"/>
<path d="M202.693 25.8076C202.211 26.0415 201.976 26.1646 201.493 26.3739C199.106 23.1976 197.906 21.6095 195.518 18.4209C195.803 18.2485 195.951 18.1623 196.236 17.99C198.821 21.117 200.12 22.6806 202.705 25.8076H202.693Z" fill="#3C87BD"/>
<path d="M193.972 28.5529C193.786 28.5775 193.687 28.5898 193.502 28.6145C192.339 25.3027 191.758 23.6531 190.595 20.3537C190.718 20.329 190.768 20.3167 190.892 20.2798C192.129 23.5915 192.735 25.2412 193.972 28.5529Z" fill="#3C87BD"/>
<path d="M192.797 28.7006C192.698 28.7006 192.66 28.7129 192.561 28.7253C191.535 25.4259 191.028 23.7762 190.001 20.4768C190.063 20.4768 190.087 20.4645 190.149 20.4521C191.213 23.7515 191.745 25.4012 192.797 28.7006Z" fill="#3C87BD"/>
<path d="M197.448 27.8264C197.361 27.851 197.312 27.8633 197.213 27.888C195.493 24.6009 194.627 22.9512 192.908 19.6518C192.97 19.6272 192.995 19.6149 193.044 19.6025C194.801 22.8896 195.679 24.5393 197.436 27.8264H197.448Z" fill="#3C87BD"/>
<path d="M196.755 28.0112C196.57 28.0604 196.483 28.0851 196.297 28.122C194.714 24.8226 193.922 23.1729 192.339 19.8612C192.45 19.8243 192.512 19.7996 192.623 19.7627C194.269 23.0621 195.098 24.7118 196.755 28.0112Z" fill="#3C87BD"/>
<path d="M192.092 28.7744C191.906 28.7867 191.807 28.799 191.622 28.8113C190.731 25.5243 190.285 23.8869 189.395 20.5998C189.518 20.5752 189.58 20.5752 189.692 20.5505C190.644 23.8376 191.127 25.4873 192.079 28.7744H192.092Z" fill="#3C87BD"/>
<path d="M191.151 28.8238C190.966 28.8238 190.867 28.8361 190.681 28.8361C189.927 25.5736 189.555 23.9362 188.801 20.6614C188.924 20.6491 188.986 20.6368 189.098 20.6245C189.914 23.8993 190.335 25.5367 191.151 28.8114V28.8238Z" fill="#3C87BD"/>
<path d="M207.951 22.3973C208.334 22.0773 208.532 21.9172 208.903 21.5725C205.266 18.9133 203.448 17.5837 199.798 14.9368C199.588 15.1707 199.477 15.2938 199.266 15.5154C202.743 18.2731 204.474 19.6519 207.938 22.3973H207.951Z" fill="#3C87BD"/>
<path d="M205.551 24.1576C205.637 24.1083 205.675 24.0714 205.761 24.0221C202.668 21.0798 201.122 19.6147 198.029 16.6724C197.98 16.7093 197.955 16.7339 197.906 16.7709C200.961 19.7255 202.495 21.2029 205.551 24.1576Z" fill="#3C87BD"/>
<path d="M203.089 25.6104C203.176 25.5611 203.213 25.5488 203.299 25.4996C200.615 22.4095 199.279 20.8583 196.594 17.7559C196.545 17.7928 196.52 17.8051 196.471 17.842C199.118 20.9445 200.442 22.508 203.089 25.6104Z" fill="#3C87BD"/>
<path d="M203.918 25.1549C204.004 25.1056 204.042 25.081 204.128 25.0318C201.308 21.9786 199.897 20.4643 197.077 17.4111C197.027 17.4481 197.003 17.4604 196.953 17.4973C199.737 20.5628 201.134 22.0894 203.918 25.1549Z" fill="#3C87BD"/>
<path d="M206.169 23.7392C206.33 23.6284 206.417 23.5669 206.578 23.4561C203.349 20.5753 201.728 19.1349 198.499 16.2664C198.413 16.3525 198.363 16.3895 198.264 16.4756C201.431 19.3811 203.002 20.8338 206.169 23.7516V23.7392Z" fill="#3C87BD"/>
<path d="M206.973 23.1606C207.134 23.0375 207.208 22.9759 207.369 22.8528C204.004 20.0459 202.322 18.6424 198.945 15.8354C198.858 15.9216 198.809 15.9709 198.722 16.0571C202.025 18.9009 203.67 20.3167 206.973 23.1606Z" fill="#3C87BD"/>
<path d="M209.287 21.2277C209.435 21.0923 209.509 21.0184 209.658 20.883C205.885 18.3099 203.992 17.0296 200.219 14.4565C200.132 14.555 200.095 14.6043 200.021 14.7028C203.732 17.3127 205.575 18.63 209.287 21.24V21.2277Z" fill="#3C87BD"/>
<path d="M210.202 20.3414C210.276 20.2675 210.314 20.2306 210.388 20.1567C206.479 17.6699 204.524 16.4388 200.627 13.9519C200.59 14.0011 200.565 14.0258 200.528 14.075C204.4 16.5742 206.343 17.8299 210.215 20.3414H210.202Z" fill="#3C87BD"/>
<path d="M210.734 19.7749C210.87 19.6272 210.944 19.541 211.08 19.3933C207.048 17.0049 205.031 15.8107 200.986 13.4224C200.912 13.5332 200.875 13.5824 200.8 13.6809C204.771 16.1185 206.763 17.3373 210.734 19.7626V19.7749Z" fill="#3C87BD"/>
<path d="M214 15.5893C213.876 15.774 213.827 15.8602 213.703 16.0448C209.163 14.0997 206.887 13.1148 202.347 11.1696C202.409 11.0465 202.433 10.9849 202.495 10.8618C207.097 12.7454 209.398 13.6934 214 15.577V15.5893Z" fill="#3C87BD"/>
<path d="M213.233 16.7094C213.171 16.7956 213.134 16.8448 213.072 16.931C208.656 14.8627 206.441 13.8286 202.025 11.7603C202.062 11.6987 202.075 11.6741 202.099 11.6125C206.553 13.6562 208.78 14.6657 213.221 16.7094H213.233Z" fill="#3C87BD"/>
<path d="M212.763 17.3619C212.639 17.5342 212.565 17.6204 212.441 17.7805C208.149 15.6014 205.996 14.5057 201.704 12.3266C201.765 12.2158 201.803 12.1543 201.864 12.0435C206.219 14.1733 208.396 15.2321 212.751 17.3496L212.763 17.3619Z" fill="#3C87BD"/>
<path d="M200.838 26.6694C200.664 26.7432 200.565 26.7802 200.392 26.854C198.178 23.6285 197.064 22.028 194.85 18.8025C194.961 18.741 195.011 18.7163 195.122 18.6548C197.411 21.8557 198.549 23.4685 200.838 26.6694Z" fill="#3C87BD"/>
<path d="M199.712 27.1002C199.625 27.1371 199.576 27.1494 199.489 27.1863C197.411 23.9362 196.384 22.3111 194.306 19.0733C194.355 19.0487 194.393 19.0363 194.442 19.0117C196.545 22.2496 197.609 23.8746 199.712 27.1125V27.1002Z" fill="#3C87BD"/>
<path d="M199.044 27.3463C198.858 27.4078 198.772 27.4325 198.586 27.494C196.656 24.2193 195.691 22.5942 193.749 19.3194C193.861 19.2702 193.91 19.2455 194.021 19.1963C196.025 22.4588 197.028 24.0838 199.032 27.3463H199.044Z" fill="#3C87BD"/>
<path d="M0 7.52081H6.63932C7.98969 6.20795 8.87118 4.65127 9.28379 2.85703H15.4042C14.9916 4.65753 14.1101 6.20795 12.7597 7.52081H19.4491V12.1846H15.1979C16.0294 12.9473 16.6671 13.8413 17.1172 14.8791C17.5673 15.9169 17.7924 17.0047 17.7924 18.1425C17.7924 19.6304 17.4298 20.9495 16.7046 22.1123C15.9794 23.2751 15.0041 24.1691 13.7725 24.8068C12.5472 25.4445 11.2031 25.7633 9.75267 25.7633C7.4708 25.7633 5.56402 25.0569 4.0261 23.6377C2.48818 22.2186 1.71922 20.3868 1.71922 18.1425C1.71922 17.0047 1.94428 15.9106 2.39441 14.8791C2.84453 13.8413 3.46345 12.941 4.25742 12.1846H0V7.52081ZM8.0397 19.6554C8.38354 20.4869 8.95245 20.8995 9.75267 20.8995C10.5529 20.8995 11.1093 20.4869 11.4406 19.6554C11.772 18.8239 11.9345 17.7736 11.9345 16.492C11.9345 15.423 11.7157 14.5165 11.2843 13.7725C10.853 13.0286 10.3403 12.6597 9.75267 12.6597C9.13375 12.6597 8.60236 13.0286 8.17099 13.7725C7.73962 14.5165 7.52081 15.423 7.52081 16.492C7.52081 17.7736 7.69586 18.8239 8.0397 19.6554ZM30.6459 12.2409H35.2597V17.6861H30.6459V39.5171H24.5317V0H30.6459V12.2346V12.2409Z" fill="#3C87BD"/>
<path d="M39.9233 6.78936H56.828V25.507H50.7075V22.4499C49.2196 23.6252 47.7692 24.488 46.3501 25.0444C44.931 25.6008 43.6181 25.8758 42.4115 25.8758C41.4425 25.8758 40.7861 25.632 40.4422 25.1506C40.0984 24.6693 39.9233 23.8878 39.9233 22.8187V6.78936ZM48.4507 18.3488C49.1259 17.8986 49.8761 17.311 50.7075 16.5858V11.1906H46.0438V19.7992C46.9753 19.2803 47.7817 18.7989 48.4569 18.3488H48.4507ZM68.7 12.2283H73.3137V17.6736H68.7V39.5046H62.5795V0H68.7V12.2346V12.2283Z" fill="#3C87BD"/>
<path d="M77.9775 7.52081H84.6169C85.9672 6.20795 86.8487 4.65127 87.2613 2.85703H93.3818C92.9691 4.65753 92.0877 6.20795 90.7373 7.52081H97.4266V12.1846H93.1754C94.0069 12.9473 94.6446 13.8413 95.0947 14.8791C95.5448 15.9169 95.7699 17.0047 95.7699 18.1425C95.7699 19.6304 95.4073 20.9495 94.6821 22.1123C93.9569 23.2751 92.9816 24.1691 91.7501 24.8068C90.5247 25.4445 89.1806 25.7633 87.7302 25.7633C85.4483 25.7633 83.5416 25.0569 82.0036 23.6377C80.4657 22.2186 79.6968 20.3868 79.6968 18.1425C79.6968 17.0047 79.9218 15.9106 80.3719 14.8791C80.8221 13.8413 81.441 12.941 82.2349 12.1846H77.9838V7.52081H77.9775ZM86.0172 19.6554C86.3611 20.4869 86.93 20.8995 87.7302 20.8995C88.5304 20.8995 89.0868 20.4869 89.4182 19.6554C89.7495 18.8239 89.9121 17.7736 89.9121 16.492C89.9121 15.423 89.6932 14.5165 89.2619 13.7725C88.8305 13.0286 88.3179 12.6597 87.7302 12.6597C87.1113 12.6597 86.5799 13.0286 86.1485 13.7725C85.7172 14.5165 85.4983 15.423 85.4983 16.492C85.4983 17.7736 85.6734 18.8239 86.0172 19.6554ZM108.623 12.2409H113.237V17.6861H108.623V39.5171H102.509V0H108.623V12.2346V12.2409Z" fill="#3C87BD"/>
<path d="M117.901 6.78936H134.806V25.507H128.686V22.4499C127.198 23.6252 125.747 24.488 124.328 25.0444C122.909 25.6008 121.596 25.8758 120.39 25.8758C119.421 25.8758 118.764 25.632 118.42 25.1506C118.076 24.6693 117.901 23.8878 117.901 22.8187V6.78936ZM126.429 18.3488C127.104 17.8986 127.854 17.311 128.686 16.5858V11.1906H124.022V19.7992C124.953 19.2803 125.76 18.7989 126.435 18.3488H126.429ZM146.678 12.2283H151.292V17.6736H146.678V39.5046H140.558V0H146.678V12.2346V12.2283Z" fill="#3C87BD"/>
</svg>
