<svg width="31" height="29" viewBox="0 0 31 29" fill="none" xmlns="http://www.w3.org/2000/svg">
<path fill-rule="evenodd" clip-rule="evenodd" d="M16.4464 9.72321C16.4464 13.4363 13.4363 16.4464 9.72321 16.4464C6.01009 16.4464 3 13.4363 3 9.72321C3 6.01009 6.01009 3 9.72321 3C13.4363 3 16.4464 6.01009 16.4464 9.72321ZM16.2789 16.9041C14.5501 18.4832 12.2491 19.4464 9.72321 19.4464C4.35323 19.4464 0 15.0932 0 9.72321C0 4.35323 4.35323 0 9.72321 0C15.0932 0 19.4464 4.35323 19.4464 9.72321C19.4464 11.4937 18.9732 13.1536 18.1464 14.5834C18.2411 14.6426 18.3306 14.7134 18.4129 14.7957L29.7816 26.1644C30.3674 26.7502 30.3674 27.6999 29.7816 28.2857C29.1958 28.8715 28.2461 28.8715 27.6603 28.2857L16.2916 16.917C16.2873 16.9127 16.2831 16.9084 16.2789 16.9041Z" fill="#3C87BD"/>
</svg>
