<svg width="40" height="38" viewBox="0 0 40 38" fill="none" xmlns="http://www.w3.org/2000/svg">
<path fill-rule="evenodd" clip-rule="evenodd" d="M22.9793 12.9896C22.9793 18.5068 18.5068 22.9793 12.9896 22.9793C7.47251 22.9793 3 18.5068 3 12.9896C3 7.47251 7.47251 3 12.9896 3C18.5068 3 22.9793 7.47251 22.9793 12.9896ZM22.1131 22.2359C19.7674 24.5506 16.5454 25.9793 12.9896 25.9793C5.81566 25.9793 0 20.1636 0 12.9896C0 5.81566 5.81566 0 12.9896 0C20.1636 0 25.9793 5.81566 25.9793 12.9896C25.9793 15.5352 25.2471 17.9097 23.9818 19.9141C24.0742 19.9725 24.1617 20.0419 24.2422 20.1225L39.4301 35.3104C40.0159 35.8962 40.0159 36.8459 39.4301 37.4317C38.8443 38.0175 37.8946 38.0175 37.3088 37.4317L22.1209 22.2438C22.1183 22.2412 22.1157 22.2386 22.1131 22.2359Z" fill="#3C87BD"/>
</svg>
