<svg width="49" height="51" viewBox="0 0 49 51" fill="none" xmlns="http://www.w3.org/2000/svg">
<path d="M48 25.5C48 39.0691 37.4414 50 24.5 50C11.5586 50 1 39.0691 1 25.5C1 11.9309 11.5586 1 24.5 1C37.4414 1 48 11.9309 48 25.5Z" fill="white" stroke="#358CC1" stroke-width="2"/>
<path d="M25 11.2361L27.8657 20.0557L28.0902 20.7467H28.8167L38.0903 20.7467L30.5878 26.1976L30 26.6246L30.2246 27.3156L33.0902 36.1353L25.5878 30.6844L25 30.2574L24.4122 30.6844L16.9098 36.1353L19.7754 27.3156L20 26.6246L19.4122 26.1976L11.9097 20.7467L21.1833 20.7467H21.9098L22.1343 20.0557L25 11.2361Z" fill="white" stroke="#358CC1" stroke-width="2"/>
</svg>
