<svg width="130" height="49" viewBox="0 0 130 49" fill="none" xmlns="http://www.w3.org/2000/svg">
<rect width="130" height="48.9726" rx="15" fill="#358CC1"/>
<path d="M42.225 17.09H43.32V17.84C43.32 20.435 40.68 22.295 37.86 22.775L37.365 21.77C39.84 21.395 42.225 19.775 42.225 17.84V17.09ZM42.45 17.09H43.53V17.84C43.53 19.73 45.945 21.395 48.39 21.77L47.895 22.775C45.105 22.295 42.45 20.405 42.45 17.84V17.09ZM42.225 25.01H43.455V30.17H42.225V25.01ZM36.75 24.245H49.005V25.28H36.75V24.245ZM57.7788 20.12H60.8388V21.155H57.7788V20.12ZM60.4488 16.61H61.6938V24.695H60.4488V16.61ZM57.2388 25.1C60.0288 25.1 61.7538 26.045 61.7538 27.635C61.7538 29.24 60.0288 30.155 57.2388 30.155C54.4338 30.155 52.7088 29.24 52.7088 27.635C52.7088 26.045 54.4338 25.1 57.2388 25.1ZM57.2388 26.075C55.1988 26.075 53.9538 26.645 53.9538 27.635C53.9538 28.61 55.1988 29.18 57.2388 29.18C59.2788 29.18 60.5238 28.61 60.5238 27.635C60.5238 26.645 59.2788 26.075 57.2388 26.075ZM53.9988 17.975H55.0188V19.07C55.0188 21.575 53.4888 23.72 51.2388 24.56L50.5938 23.57C52.6038 22.835 53.9988 21.02 53.9988 19.07V17.975ZM54.2388 17.975H55.2438V19.07C55.2438 20.825 56.5638 22.505 58.5288 23.195L57.8988 24.185C55.6938 23.39 54.2388 21.35 54.2388 19.07V17.975ZM50.9688 17.6H58.2138V18.62H50.9688V17.6ZM73.5277 16.61H74.7727V30.17H73.5277V16.61ZM74.4727 22.175H76.9927V23.225H74.4727V22.175ZM64.2727 18.77H72.2677V19.79H64.2727V18.77ZM68.3227 20.915C70.2427 20.915 71.6227 22.205 71.6227 24.035C71.6227 25.865 70.2427 27.155 68.3227 27.155C66.4177 27.155 65.0227 25.865 65.0227 24.035C65.0227 22.205 66.4177 20.915 68.3227 20.915ZM68.3227 21.95C67.0927 21.95 66.2077 22.805 66.2077 24.035C66.2077 25.25 67.0927 26.12 68.3227 26.12C69.5527 26.12 70.4377 25.25 70.4377 24.035C70.4377 22.805 69.5527 21.95 68.3227 21.95ZM67.6777 16.775H68.9227V19.235H67.6777V16.775ZM88.0165 16.61H89.2615V30.17H88.0165V16.61ZM84.0415 18.065H85.2715C85.2715 21.995 83.5015 25.43 78.9715 27.65L78.3115 26.645C82.2265 24.755 84.0415 21.875 84.0415 18.275V18.065ZM78.9265 18.065H84.5815V19.085H78.9265V18.065Z" fill="white"/>
</svg>
