<svg width="146" height="55" viewBox="0 0 146 55" fill="none" xmlns="http://www.w3.org/2000/svg">
<rect width="146" height="55" rx="15" fill="#358CC1"/>
<path d="M35 26.08H51.34V27.46H35V26.08ZM37.06 23.02H49.44V24.36H37.06V23.02ZM37.06 18.2H49.3V19.56H38.7V23.66H37.06V18.2ZM43.14 29.02C47 29.02 49.34 30.2 49.34 32.28C49.34 34.36 47 35.52 43.14 35.52C39.28 35.52 36.94 34.36 36.94 32.28C36.94 30.2 39.28 29.02 43.14 29.02ZM43.14 30.3C40.32 30.3 38.62 31.02 38.62 32.28C38.62 33.52 40.32 34.22 43.14 34.22C45.98 34.22 47.66 33.52 47.66 32.28C47.66 31.02 45.98 30.3 43.14 30.3ZM53.3784 27.42H69.7784V28.78H53.3784V27.42ZM55.4584 17.94H67.6584V22.32H57.1384V24.76H55.4984V21.1H66.0384V19.24H55.4584V17.94ZM55.4984 24.22H68.0584V25.52H55.4984V24.22ZM60.7384 24.9H62.3984V28.1H60.7384V24.9ZM55.1984 30.16H67.7784V35.4H66.1184V31.52H55.1984V30.16ZM84.0369 17.48H85.6969V35.56H84.0369V17.48ZM85.2969 24.9H88.6569V26.3H85.2969V24.9ZM71.6969 20.36H82.3569V21.72H71.6969V20.36ZM77.0969 23.22C79.6569 23.22 81.4969 24.94 81.4969 27.38C81.4969 29.82 79.6569 31.54 77.0969 31.54C74.5569 31.54 72.6969 29.82 72.6969 27.38C72.6969 24.94 74.5569 23.22 77.0969 23.22ZM77.0969 24.6C75.4569 24.6 74.2769 25.74 74.2769 27.38C74.2769 29 75.4569 30.16 77.0969 30.16C78.7369 30.16 79.9169 29 79.9169 27.38C79.9169 25.74 78.7369 24.6 77.0969 24.6ZM76.2369 17.7H77.8969V20.98H76.2369V17.7ZM103.355 17.48H105.015V35.56H103.355V17.48ZM98.0553 19.42H99.6953C99.6953 24.66 97.3353 29.24 91.2953 32.2L90.4153 30.86C95.6353 28.34 98.0553 24.5 98.0553 19.7V19.42ZM91.2353 19.42H98.7753V20.78H91.2353V19.42Z" fill="white"/>
</svg>
