<svg width="130" height="49" viewBox="0 0 130 49" fill="none" xmlns="http://www.w3.org/2000/svg">
<rect width="130" height="48.9726" rx="15" fill="#358CC1"/>
<path d="M36.75 23.06H49.005V24.095H36.75V23.06ZM38.295 20.765H47.58V21.77H38.295V20.765ZM38.295 17.15H47.475V18.17H39.525V21.245H38.295V17.15ZM42.855 25.265C45.75 25.265 47.505 26.15 47.505 27.71C47.505 29.27 45.75 30.14 42.855 30.14C39.96 30.14 38.205 29.27 38.205 27.71C38.205 26.15 39.96 25.265 42.855 25.265ZM42.855 26.225C40.74 26.225 39.465 26.765 39.465 27.71C39.465 28.64 40.74 29.165 42.855 29.165C44.985 29.165 46.245 28.64 46.245 27.71C46.245 26.765 44.985 26.225 42.855 26.225ZM50.5338 24.065H62.8338V25.085H50.5338V24.065ZM52.0938 16.955H61.2438V20.24H53.3538V22.07H52.1238V19.325H60.0288V17.93H52.0938V16.955ZM52.1238 21.665H61.5438V22.64H52.1238V21.665ZM56.0538 22.175H57.2988V24.575H56.0538V22.175ZM51.8988 26.12H61.3338V30.05H60.0888V27.14H51.8988V26.12ZM73.5277 16.61H74.7727V30.17H73.5277V16.61ZM74.4727 22.175H76.9927V23.225H74.4727V22.175ZM64.2727 18.77H72.2677V19.79H64.2727V18.77ZM68.3227 20.915C70.2427 20.915 71.6227 22.205 71.6227 24.035C71.6227 25.865 70.2427 27.155 68.3227 27.155C66.4177 27.155 65.0227 25.865 65.0227 24.035C65.0227 22.205 66.4177 20.915 68.3227 20.915ZM68.3227 21.95C67.0927 21.95 66.2077 22.805 66.2077 24.035C66.2077 25.25 67.0927 26.12 68.3227 26.12C69.5527 26.12 70.4377 25.25 70.4377 24.035C70.4377 22.805 69.5527 21.95 68.3227 21.95ZM67.6777 16.775H68.9227V19.235H67.6777V16.775ZM88.0165 16.61H89.2615V30.17H88.0165V16.61ZM84.0415 18.065H85.2715C85.2715 21.995 83.5015 25.43 78.9715 27.65L78.3115 26.645C82.2265 24.755 84.0415 21.875 84.0415 18.275V18.065ZM78.9265 18.065H84.5815V19.085H78.9265V18.065Z" fill="white"/>
</svg>
