<svg width="32" height="31" viewBox="0 0 32 31" fill="none" xmlns="http://www.w3.org/2000/svg">
<path fill-rule="evenodd" clip-rule="evenodd" d="M17.395 10.1975C17.395 14.1726 14.1726 17.395 10.1975 17.395C6.22244 17.395 3 14.1726 3 10.1975C3 6.22244 6.22244 3 10.1975 3C14.1726 3 17.395 6.22244 17.395 10.1975ZM17.127 17.6791C15.3079 19.3647 12.8731 20.395 10.1975 20.395C4.56559 20.395 0 15.8295 0 10.1975C0 4.56559 4.56559 0 10.1975 0C15.8295 0 20.395 4.56559 20.395 10.1975C20.395 12.0805 19.8847 13.8442 18.9948 15.358C19.0889 15.417 19.1778 15.4874 19.2596 15.5692L31.1829 27.4925C31.7687 28.0783 31.7687 29.028 31.1829 29.6138C30.5971 30.1996 29.6474 30.1996 29.0616 29.6138L17.1383 17.6905C17.1345 17.6867 17.1307 17.6829 17.127 17.6791Z" fill="#3C87BD"/>
</svg>
